<svg width="20" height="18" viewBox="0 0 20 18" fill="none" xmlns="http://www.w3.org/2000/svg">
<g clip-path="url(#clip0_1_31)">
<path d="M8.05556 8.33906C9.15972 7.80469 9.73611 6.99609 9.73611 5.7375C9.73611 3.25547 7.90972 2.65078 5.80208 2.65078H0V15.1102H5.96528C8.20139 15.1102 10.3021 14.0238 10.3021 11.4926C10.3021 9.92813 9.56944 8.77149 8.05556 8.33906ZM2.70486 4.77773H5.24306C6.21875 4.77773 7.09722 5.05547 7.09722 6.20156C7.09722 7.25977 6.41319 7.68516 5.44792 7.68516H2.70486V4.77773ZM5.59722 12.9938H2.70486V9.5625H5.65278C6.84375 9.5625 7.59722 10.0652 7.59722 11.3414C7.59722 12.6 6.69792 12.9938 5.59722 12.9938ZM18.0451 4.53164H13.0556V3.30469H18.0451V4.53164ZM20 10.7297C20 8.06133 18.4583 5.83594 15.6632 5.83594C12.9479 5.83594 11.1042 7.90313 11.1042 10.6102C11.1042 13.4191 12.8507 15.3457 15.6632 15.3457C17.7917 15.3457 19.1701 14.3754 19.8333 12.3117H17.6736C17.441 13.0816 16.4826 13.4895 15.7396 13.4895C14.3056 13.4895 13.5521 12.6387 13.5521 11.1938H19.9792C19.9896 11.0461 20 10.8879 20 10.7297ZM13.5556 9.63281C13.6354 8.44805 14.4132 7.70625 15.5868 7.70625C16.816 7.70625 17.434 8.4375 17.5382 9.63281H13.5556Z" fill="#373C42"/>
</g>
<defs>
<clipPath id="clip0_1_31">
<rect width="20" height="18" fill="white"/>
</clipPath>
</defs>
</svg>
