<svg width="300" height="265" viewBox="0 0 300 265" fill="none" xmlns="http://www.w3.org/2000/svg">
<path d="M295.063 91.5434H2.36687V77.6563C2.36687 76.0231 3.69172 74.6987 5.32545 74.6987H292.105C293.738 74.6987 295.063 76.0231 295.063 77.6563V91.5434Z" fill="#E1E7F3"/>
<path d="M21.5213 85.4234C22.7935 85.4234 23.8249 84.3924 23.8249 83.1207C23.8249 81.8489 22.7935 80.8179 21.5213 80.8179C20.2491 80.8179 19.2178 81.8489 19.2178 83.1207C19.2178 84.3924 20.2491 85.4234 21.5213 85.4234Z" fill="white"/>
<path d="M30.2657 85.4234C31.5379 85.4234 32.5692 84.3924 32.5692 83.1207C32.5692 81.8489 31.5379 80.8179 30.2657 80.8179C28.9935 80.8179 27.9621 81.8489 27.9621 83.1207C27.9621 84.3924 28.9935 85.4234 30.2657 85.4234Z" fill="white"/>
<path d="M39.0095 85.4234C40.2817 85.4234 41.313 84.3924 41.313 83.1207C41.313 81.8489 40.2817 80.8179 39.0095 80.8179C37.7373 80.8179 36.7059 81.8489 36.7059 83.1207C36.7059 84.3924 37.7373 85.4234 39.0095 85.4234Z" fill="white"/>
<path d="M292.105 74.698C293.738 74.698 295.063 76.0224 295.063 77.6556V259.22C295.063 260.853 293.738 262.177 292.105 262.177H5.32544C3.69172 262.177 2.36686 260.853 2.36686 259.22V77.6556C2.36686 76.0224 3.69172 74.698 5.32544 74.698H292.105ZM292.105 73.2192H5.32544C2.87811 73.2192 0.887573 75.2091 0.887573 77.6556V259.22C0.887573 261.666 2.87811 263.656 5.32544 263.656H292.105C294.552 263.656 296.543 261.666 296.543 259.22V77.6556C296.543 75.2097 294.552 73.2192 292.105 73.2192Z" fill="#696872"/>
<path d="M283.509 253.623H13.9213C12.2876 253.623 10.9627 252.298 10.9627 250.665V104.753C10.9627 103.119 12.2876 101.795 13.9213 101.795H283.509C285.143 101.795 286.468 103.119 286.468 104.753V250.665C286.468 252.298 285.143 253.623 283.509 253.623Z" fill="white"/>
<path d="M95.926 171.389H30.7716C29.1379 171.389 27.813 170.065 27.813 168.432V121.597C27.813 119.964 29.1379 118.64 30.7716 118.64H95.926C97.5598 118.64 98.8846 119.964 98.8846 121.597V168.432C98.8846 170.065 97.5598 171.389 95.926 171.389Z" fill="#E1E7F3"/>
<path d="M266.659 171.389H201.505C199.871 171.389 198.546 170.065 198.546 168.432V121.597C198.546 119.964 199.871 118.64 201.505 118.64H266.659C268.293 118.64 269.618 119.964 269.618 121.597V168.432C269.618 170.065 268.293 171.389 266.659 171.389Z" stroke="#696872" stroke-width="2.5" stroke-miterlimit="10"/>
<path d="M97.5633 200.437H29.4036C28.5254 200.437 27.813 199.726 27.813 198.847C27.813 197.969 28.5249 197.257 29.4036 197.257H97.5639C98.442 197.257 99.1544 197.969 99.1544 198.847C99.1544 199.726 98.442 200.437 97.5633 200.437Z" fill="#E1E7F3"/>
<path d="M97.5633 191.352H29.4036C28.5254 191.352 27.813 190.641 27.813 189.762C27.813 188.885 28.5249 188.172 29.4036 188.172H97.5639C98.442 188.172 99.1544 188.884 99.1544 189.762C99.1538 190.641 98.442 191.352 97.5633 191.352Z" fill="#E1E7F3"/>
<path d="M64.8243 209.523H28.6568C28.1905 209.523 27.813 208.811 27.813 207.933C27.813 207.054 28.1911 206.343 28.6568 206.343H64.8243C65.2905 206.343 65.668 207.054 65.668 207.933C65.668 208.811 65.2905 209.523 64.8243 209.523Z" fill="#ADA3F1"/>
<path d="M86.5621 218.608H29.1527C28.413 218.608 27.813 217.896 27.813 217.018C27.813 216.14 28.413 215.428 29.1527 215.428H86.5621C87.3018 215.428 87.9018 216.139 87.9018 217.018C87.9018 217.896 87.3018 218.608 86.5621 218.608Z" fill="#ADA3F1"/>
<path d="M97.5633 227.693H29.4036C28.5254 227.693 27.813 226.981 27.813 226.103C27.813 225.225 28.5249 224.513 29.4036 224.513H97.5639C98.442 224.513 99.1544 225.224 99.1544 226.103C99.1538 226.981 98.442 227.693 97.5633 227.693Z" fill="#E1E7F3"/>
<path d="M87.0095 236.777H29.1627C28.4172 236.777 27.813 236.066 27.813 235.187C27.813 234.309 28.4172 233.597 29.1627 233.597H87.0095C87.755 233.597 88.3592 234.309 88.3592 235.187C88.3592 236.066 87.755 236.777 87.0095 236.777Z" fill="#E1E7F3"/>
<path d="M176.888 209.523H120.543C119.664 209.523 118.952 208.811 118.952 207.933C118.952 207.054 119.664 206.343 120.543 206.343H176.888C177.766 206.343 178.479 207.054 178.479 207.933C178.479 208.811 177.766 209.523 176.888 209.523Z" fill="#E1E7F3"/>
<path d="M176.888 218.608H120.543C119.664 218.608 118.952 217.896 118.952 217.018C118.952 216.14 119.664 215.428 120.543 215.428H176.888C177.766 215.428 178.479 216.139 178.479 217.018C178.479 217.896 177.766 218.608 176.888 218.608Z" fill="#ADA3F1"/>
<path d="M169.501 227.693H120.339C119.573 227.693 118.951 226.981 118.951 226.103C118.951 225.225 119.573 224.513 120.339 224.513H169.501C170.267 224.513 170.888 225.224 170.888 226.103C170.888 226.981 170.267 227.693 169.501 227.693Z" fill="#E1E7F3"/>
<path d="M176.888 236.777H120.543C119.664 236.777 118.952 236.066 118.952 235.187C118.952 234.309 119.664 233.597 120.543 233.597H176.888C177.766 233.597 178.479 234.309 178.479 235.187C178.479 236.066 177.766 236.777 176.888 236.777Z" fill="#E1E7F3"/>
<path d="M266.659 236.778H201.698C200.064 236.778 198.74 235.453 198.74 233.82V186.985C198.74 185.352 200.064 184.028 201.698 184.028H266.659C268.293 184.028 269.618 185.352 269.618 186.985V233.82C269.618 235.454 268.293 236.778 266.659 236.778Z" fill="#ADA3F1"/>
<path d="M175.289 151.958H122.141C120.507 151.958 119.182 150.634 119.182 149V121.597C119.182 119.964 120.507 118.64 122.141 118.64H175.289C176.922 118.64 178.247 119.964 178.247 121.597V149C178.247 150.634 176.923 151.958 175.289 151.958Z" fill="#ADA3F1"/>
<path d="M175.289 196.129H122.141C120.507 196.129 119.182 194.805 119.182 193.171V165.768C119.182 164.135 120.507 162.811 122.141 162.811H175.289C176.922 162.811 178.247 164.135 178.247 165.768V193.171C178.247 194.805 176.923 196.129 175.289 196.129Z" fill="#E1E7F3"/>
<path d="M169.811 51.6908L149.518 131.911C149.418 132.307 149.016 132.547 148.62 132.447L148.012 132.293C147.617 132.193 147.376 131.791 147.477 131.395L167.769 51.1744C167.869 50.7787 168.272 50.5385 168.667 50.6391L169.275 50.7929C169.671 50.8929 169.911 51.2951 169.811 51.6908Z" fill="#696872"/>
<path d="M173.959 51.9492C186.001 51.9492 195.762 42.191 195.762 30.1536C195.762 18.1162 186.001 8.35791 173.959 8.35791C161.918 8.35791 152.156 18.1162 152.156 30.1536C152.156 42.191 161.918 51.9492 173.959 51.9492Z" fill="#E1E7F3"/>
<path d="M173.96 9.09745C185.592 9.09745 195.023 18.5245 195.023 30.1537C195.023 41.7829 185.593 51.21 173.96 51.21C162.327 51.21 152.896 41.7829 152.896 30.1537C152.896 18.5245 162.327 9.09745 173.96 9.09745ZM173.96 7.61865C161.53 7.61865 151.417 17.7277 151.417 30.1537C151.417 42.5797 161.53 52.6888 173.96 52.6888C186.39 52.6888 196.502 42.5797 196.502 30.1537C196.502 17.7277 186.389 7.61865 173.96 7.61865Z" fill="#696872"/>
<path d="M183.956 25.7552H163.963C163.21 25.7552 162.599 25.2838 162.599 24.7023C162.599 24.1209 163.209 23.6494 163.963 23.6494H183.956C184.709 23.6494 185.32 24.1209 185.32 24.7023C185.32 25.2844 184.709 25.7552 183.956 25.7552Z" fill="#696872"/>
<path d="M183.956 31.2064H163.963C163.21 31.2064 162.599 30.735 162.599 30.1535C162.599 29.572 163.209 29.1006 163.963 29.1006H183.956C184.709 29.1006 185.32 29.572 185.32 30.1535C185.32 30.735 184.709 31.2064 183.956 31.2064Z" fill="#696872"/>
<path d="M183.956 36.6576H163.963C163.21 36.6576 162.599 36.1861 162.599 35.6047C162.599 35.0232 163.209 34.5518 163.963 34.5518H183.956C184.709 34.5518 185.32 35.0232 185.32 35.6047C185.32 36.1861 184.709 36.6576 183.956 36.6576Z" fill="#696872"/>
</svg>
