<svg width="134" height="34" viewBox="0 0 134 34" fill="none" xmlns="http://www.w3.org/2000/svg">
<path d="M15.45 6.65039V2.40039H2.04999V31.6004H15.45V27.3504C12.705 27.3504 10.0724 26.2599 8.13143 24.3189C6.19043 22.3779 5.09999 19.7454 5.09999 17.0004C5.09999 14.2554 6.19043 11.6228 8.13143 9.68184C10.0724 7.74084 12.705 6.65039 15.45 6.65039Z" fill="white"/>
<path d="M15.45 6.65039V27.3504C18.195 27.3504 20.8276 26.2599 22.7686 24.3189C24.7096 22.3779 25.8 19.7454 25.8 17.0004C25.8 14.2554 24.7096 11.6228 22.7686 9.68184C20.8276 7.74084 18.195 6.65039 15.45 6.65039Z" fill="white"/>
<path d="M33.32 9.25H36.32V23.7H33.32V9.25Z" fill="white"/>
<path d="M38 18.7509C38 17.7113 38.3087 16.6951 38.8869 15.8311C39.4651 14.9671 40.2868 14.2942 41.2479 13.8977C42.209 13.5013 43.2661 13.3991 44.2853 13.6041C45.3045 13.8091 46.2399 14.3121 46.9729 15.0493C47.7059 15.7866 48.2036 16.7248 48.4028 17.7452C48.6019 18.7656 48.4937 19.8221 48.0917 20.7809C47.6897 21.7396 47.0122 22.5575 46.1449 23.1307C45.2776 23.704 44.2596 24.0068 43.22 24.0009C42.5305 24.0063 41.8468 23.874 41.2091 23.6116C40.5714 23.3493 39.9924 22.9623 39.5062 22.4734C39.02 21.9844 38.6364 21.4032 38.3777 20.764C38.1191 20.1248 37.9907 19.4404 38 18.7509ZM45.52 18.7509C45.5082 18.3027 45.3645 17.8679 45.1069 17.501C44.8493 17.134 44.4893 16.8511 44.0717 16.6877C43.6542 16.5243 43.1978 16.4876 42.7596 16.5823C42.3213 16.6769 41.9207 16.8986 41.6078 17.2198C41.2949 17.5409 41.0836 17.9471 41.0004 18.3877C40.9172 18.8283 40.9657 19.2836 41.1399 19.6967C41.3141 20.1098 41.6062 20.4625 41.9798 20.7104C42.3533 20.9584 42.7916 21.0907 43.24 21.0909C43.5453 21.0969 43.8485 21.0398 44.1307 20.9232C44.4129 20.8067 44.668 20.6332 44.8801 20.4136C45.0922 20.194 45.2567 19.9329 45.3634 19.6469C45.4701 19.3608 45.5166 19.0558 45.5 18.7509H45.52Z" fill="white"/>
<path d="M60.31 13.8001V23.2101C60.31 26.5301 57.71 27.9401 55.08 27.9401C54.1523 28.0162 53.2218 27.8319 52.3933 27.4079C51.5647 26.9839 50.8709 26.337 50.39 25.5401L52.92 24.0801C53.125 24.4935 53.4511 24.8345 53.8549 25.0578C54.2587 25.2811 54.7209 25.3761 55.18 25.3301C55.4725 25.3661 55.7693 25.3371 56.0492 25.2451C56.3292 25.153 56.5853 25.0003 56.7993 24.7977C57.0134 24.5951 57.18 24.3478 57.2873 24.0733C57.3946 23.7989 57.4399 23.5041 57.42 23.2101V22.3001C57.0709 22.7234 56.6279 23.0594 56.1263 23.2816C55.6246 23.5038 55.0781 23.606 54.53 23.5801C53.2039 23.5801 51.9322 23.0533 50.9945 22.1156C50.0568 21.178 49.53 19.9062 49.53 18.5801C49.53 17.254 50.0568 15.9823 50.9945 15.0446C51.9322 14.1069 53.2039 13.5801 54.53 13.5801C55.0781 13.5542 55.6246 13.6564 56.1263 13.8786C56.6279 14.1008 57.0709 14.4368 57.42 14.8601V13.8601L60.31 13.8001ZM57.42 18.5501C57.4399 18.0717 57.3163 17.5982 57.065 17.1906C56.8137 16.783 56.4463 16.4599 56.0098 16.2628C55.5734 16.0657 55.0881 16.0037 54.6161 16.0847C54.1442 16.1657 53.7072 16.386 53.3615 16.7173C53.0158 17.0486 52.7771 17.4758 52.6761 17.9439C52.5751 18.412 52.6164 18.8995 52.7947 19.3439C52.9731 19.7883 53.2803 20.1692 53.6768 20.4376C54.0734 20.706 54.5412 20.8497 55.02 20.8501C55.3325 20.8726 55.6462 20.8293 55.9408 20.7231C56.2355 20.6168 56.5047 20.4499 56.7308 20.2331C56.957 20.0164 57.1352 19.7546 57.2539 19.4647C57.3726 19.1748 57.4292 18.8632 57.42 18.5501Z" fill="white"/>
<path d="M62 18.75C62 17.7112 62.3082 16.6958 62.8855 15.8322C63.4628 14.9686 64.2833 14.2957 65.2432 13.8987C66.2031 13.5016 67.2592 13.3982 68.2779 13.6016C69.2966 13.805 70.232 14.306 70.9659 15.0412C71.6997 15.7765 72.1989 16.7129 72.4003 17.7319C72.6018 18.751 72.4964 19.8069 72.0975 20.766C71.6986 21.7252 71.0241 22.5444 70.1595 23.1201C69.2948 23.6958 68.2788 24.002 67.24 24C66.5492 24.0067 65.8639 23.8754 65.2245 23.6138C64.5851 23.3522 64.0043 22.9656 63.5163 22.4766C63.0282 21.9876 62.6427 21.4061 62.3823 20.7662C62.122 20.1263 61.992 19.4408 62 18.75ZM69.52 18.75C69.5082 18.3014 69.3642 17.8662 69.1062 17.499C68.8482 17.1319 68.4875 16.849 68.0694 16.6859C67.6513 16.5228 67.1944 16.4867 66.7559 16.5822C66.3174 16.6776 65.9168 16.9004 65.6043 17.2225C65.2918 17.5446 65.0813 17.9518 64.9993 18.393C64.9172 18.8342 64.9671 19.2898 65.1428 19.7027C65.3185 20.1157 65.6122 20.4676 65.9871 20.7144C66.3619 20.9611 66.8012 21.0918 67.25 21.09C67.5553 21.096 67.8585 21.0389 68.1407 20.9223C68.4229 20.8058 68.678 20.6323 68.8901 20.4127C69.1022 20.1931 69.2667 19.932 69.3734 19.646C69.4801 19.3599 69.5266 19.0549 69.51 18.75H69.52Z" fill="white"/>
<path d="M73.87 11.1501C73.87 10.7981 73.9744 10.4539 74.17 10.1612C74.3656 9.86848 74.6436 9.64034 74.9688 9.50561C75.2941 9.37089 75.652 9.33564 75.9973 9.40432C76.3425 9.473 76.6597 9.64253 76.9087 9.89147C77.1576 10.1404 77.3271 10.4576 77.3958 10.8028C77.4645 11.1481 77.4292 11.506 77.2945 11.8313C77.1598 12.1565 76.9316 12.4345 76.6389 12.6301C76.3462 12.8257 76.0021 12.9301 75.65 12.9301C75.1795 12.9249 74.7298 12.7357 74.3971 12.403C74.0644 12.0703 73.8752 11.6206 73.87 11.1501ZM74.16 13.8001H77.16V23.7001H74.16V13.8001Z" fill="white"/>
<path d="M90 18.7506C90.0336 19.409 89.9367 20.0676 89.7148 20.6884C89.493 21.3092 89.1505 21.88 88.7072 22.3679C88.2638 22.8559 87.7284 23.2513 87.1316 23.5315C86.5349 23.8117 85.8886 23.9711 85.23 24.0006C84.6711 24.0378 84.111 23.9483 83.5916 23.7388C83.0721 23.5292 82.6067 23.2051 82.23 22.7906V27.6806H79.23V13.8006H82.23V14.7306C82.6072 14.3173 83.073 13.9947 83.5925 13.7869C84.112 13.579 84.6718 13.4914 85.23 13.5306C85.886 13.5601 86.5297 13.7186 87.1244 13.9969C87.7191 14.2752 88.2532 14.668 88.6961 15.1527C89.1391 15.6374 89.4822 16.2046 89.7059 16.822C89.9296 17.4393 90.0296 18.0946 90 18.7506ZM87 18.7506C86.9882 18.2861 86.8395 17.8355 86.5727 17.4552C86.3059 17.0749 85.9327 16.7817 85.5 16.6126C85.0673 16.4434 84.5943 16.4058 84.1402 16.5043C83.6862 16.6028 83.2714 16.8332 82.9477 17.1665C82.624 17.4998 82.4059 17.9212 82.3208 18.378C82.2356 18.8347 82.2871 19.3064 82.4689 19.734C82.6507 20.1615 82.9546 20.5259 83.3426 20.7815C83.7306 21.0371 84.1854 21.1724 84.65 21.1706C84.9682 21.1841 85.2857 21.1302 85.5816 21.0124C85.8776 20.8946 86.1453 20.7156 86.3672 20.4871C86.5891 20.2586 86.7601 19.9857 86.8692 19.6865C86.9783 19.3872 87.0228 19.0683 87 18.7506Z" fill="white"/>
<path d="M99.13 20.7307C99.13 23.0107 97.13 23.9807 95.01 23.9807C94.1453 24.0585 93.2772 23.8752 92.5178 23.4545C91.7584 23.0338 91.1426 22.395 90.75 21.6207L93.33 20.1607C93.4322 20.5175 93.6538 20.8284 93.9578 21.0414C94.2618 21.2544 94.6297 21.3565 95 21.3307C95.71 21.3307 96.07 21.1107 96.07 20.7107C96.07 19.6207 91.2 20.2007 91.2 16.7707C91.2 14.6107 93.02 13.5307 95.08 13.5307C95.863 13.4956 96.641 13.6733 97.3311 14.0448C98.0213 14.4163 98.598 14.9678 99 15.6407L96.42 17.0007C96.306 16.7427 96.1198 16.5233 95.8838 16.3689C95.6477 16.2145 95.372 16.1318 95.09 16.1307C94.57 16.1307 94.26 16.3307 94.26 16.6807C94.26 17.8207 99.13 17.0707 99.13 20.7307Z" fill="white"/>
<path d="M110 13.8008V23.7008H107V22.7708C106.659 23.1825 106.226 23.5082 105.737 23.7219C105.247 23.9356 104.714 24.0311 104.18 24.0008C102.18 24.0008 100.47 22.5708 100.47 19.9008V13.8008H103.47V19.4508C103.446 19.687 103.474 19.9255 103.552 20.1499C103.63 20.3742 103.755 20.579 103.919 20.7502C104.084 20.9213 104.284 21.0547 104.505 21.1412C104.726 21.2276 104.963 21.265 105.2 21.2508C106.28 21.2508 107.04 20.6108 107.04 19.2508V13.8008H110Z" fill="white"/>
<path d="M127 17.6207V23.7007H124V17.8807C124 16.8807 123.53 16.2607 122.58 16.2607C121.63 16.2607 121.03 16.9507 121.03 18.1207V23.7007H118.03V17.8807C118.03 16.8807 117.56 16.2607 116.61 16.2607C115.66 16.2607 115.06 16.9507 115.06 18.1207V23.7007H112.06V13.8007H115.06V14.7107C115.371 14.3087 115.776 13.9903 116.241 13.7843C116.705 13.5783 117.214 13.4911 117.72 13.5307C118.227 13.5042 118.733 13.6102 119.187 13.8381C119.641 14.066 120.028 14.4081 120.31 14.8307C120.64 14.3891 121.076 14.0383 121.578 13.811C122.079 13.5836 122.631 13.4872 123.18 13.5307C125.52 13.5307 127 15.1507 127 17.6207Z" fill="white"/>
<path d="M129.52 13.7408C130.735 13.7408 131.72 12.7558 131.72 11.5408C131.72 10.3258 130.735 9.34082 129.52 9.34082C128.305 9.34082 127.32 10.3258 127.32 11.5408C127.32 12.7558 128.305 13.7408 129.52 13.7408Z" fill="white"/>
</svg>
