<svg width="150" height="39" viewBox="0 0 150 39" fill="none" xmlns="http://www.w3.org/2000/svg">
<path d="M27.8006 16.4531C30.6883 16.4531 31.338 17.7188 31.338 19.2973C31.338 20.9706 30.5521 22.1694 27.8126 22.1694C25.0905 22.1694 24.3037 21.0403 24.3037 19.2973C24.3037 17.5823 25.1613 16.4531 27.8006 16.4531Z" fill="white"/>
<path d="M57.9791 16.4531C60.8669 16.4531 61.5166 17.7188 61.5166 19.2973C61.5166 20.9706 60.7298 22.1694 57.9911 22.1694C55.2699 22.1694 54.4822 21.0403 54.4822 19.2973C54.4822 17.5823 55.3399 16.4531 57.9791 16.4531Z" fill="white"/>
<path fill-rule="evenodd" clip-rule="evenodd" d="M2.23322 35.7497V2.8291H148.164V35.7497H2.23322ZM71.7836 33.8926H146.324V4.68624H71.7836V33.8926ZM27.8144 24.9718C32.9411 24.9718 35.0963 22.7405 35.0963 19.2555C35.0963 15.714 32.6687 13.6089 27.8144 13.6089C23.0347 13.6089 20.5187 15.895 20.5187 19.2555C20.5187 23.0478 23.158 24.9718 27.8144 24.9718ZM9.99018 13.8596V24.8047H20.3374V21.8899H13.7337V13.8596H9.99018ZM46.6767 24.8047L46.5801 23.7442C45.3277 24.6461 43.8034 25.0801 42.2687 24.9718C39.9617 24.9718 38.0402 24.2745 36.9626 22.8667C36.2518 21.839 35.8929 20.6053 35.9402 19.353C35.8998 18.127 36.2711 16.9232 36.9939 15.9368C38.0844 14.5709 40.061 13.6646 43.004 13.6646C46.3896 13.6646 48.3791 14.7102 49.235 16.467C49.4186 16.8808 49.5266 17.3247 49.5534 17.7772H45.9718C45.8815 17.5022 45.7136 17.2598 45.4887 17.0799C44.7752 16.6026 43.9232 16.3819 43.0702 16.4531C42.5699 16.3919 42.0623 16.4385 41.5812 16.59C41.1001 16.7414 40.6563 16.9942 40.2791 17.3315C39.8509 17.923 39.6498 18.6512 39.7132 19.3809C39.6635 20.077 39.8484 20.7698 40.2377 21.3467C40.6182 21.7045 41.0706 21.9754 41.5641 22.1414C42.0576 22.3074 42.5806 22.3645 43.0979 22.3087C44.1251 22.393 45.145 22.0733 45.9442 21.4163C46.1158 21.1998 46.2341 20.9452 46.2893 20.6735H42.4353V18.3214H49.6472V24.8047H46.6767ZM57.9929 24.9718C63.1187 24.9718 65.2748 22.7405 65.2748 19.2555C65.2748 15.714 62.8435 13.6089 57.9929 13.6089C53.2132 13.6089 50.6972 15.895 50.6972 19.2555C50.6972 23.0478 53.3365 24.9718 57.9929 24.9718Z" fill="white"/>
<path d="M78.0893 24.7625V13.8174H80.758V24.7625H78.0893Z" fill="white"/>
<path d="M94.4623 20.19C93.7859 21.0824 92.6218 21.49 90.981 21.5002C90.635 21.5002 86.0475 21.4863 86.0475 21.4863V24.7632H83.4359V13.8182H90.9819C91.5867 13.7536 92.1985 13.8184 92.7764 14.0081C93.3552 14.1979 93.8871 14.5084 94.339 14.9195C94.9353 15.7034 95.2252 16.6808 95.1543 17.6662C95.215 18.5624 94.9712 19.4528 94.4623 20.19ZM92.3209 16.6215C92.0448 16.2037 91.4494 15.9715 90.4417 15.9715H86.0337V19.3032H90.4132C91.4908 19.3032 92.0586 19.0804 92.3209 18.6477C92.4764 18.3428 92.5436 17.9995 92.5141 17.6578C92.5371 17.3014 92.4709 16.945 92.3209 16.6215Z" fill="white"/>
<path d="M102.85 24.9297C97.9307 24.9297 96.4251 23.0726 96.4251 21.235H99.2162C99.2162 22.1412 100.446 22.8247 102.975 22.8247C105.489 22.8247 106.152 22.378 106.152 21.6528C106.152 20.844 105.655 20.5933 103.32 20.3287C102.86 20.2869 101.607 20.1337 101.137 20.064C97.8239 19.687 96.5485 18.6972 96.5485 16.9264C96.5485 15.0581 98.4147 13.6504 102.463 13.6504C106.857 13.6504 108.543 15.3933 108.543 17.2059H105.782C105.782 16.2857 104.746 15.7555 102.3 15.7555C99.785 15.7555 99.2466 16.1037 99.2466 16.7871C99.2466 17.4984 99.7988 17.7212 102.467 18.0416C103.076 18.1261 104.429 18.2793 104.802 18.3202C107.622 18.6127 108.893 19.6443 108.893 21.4708C108.888 23.6465 106.954 24.9297 102.85 24.9297Z" fill="white"/>
<path d="M116.752 24.9157C113.146 24.9157 110.797 23.4792 110.797 20.4585V13.8174H113.435V20.4957C113.435 21.8765 114.555 22.7957 116.862 22.7957C118.948 22.7957 120.192 21.9322 120.192 20.4957V13.8174H122.804V20.7065C122.804 23.4522 120.62 24.9157 116.752 24.9157Z" fill="white"/>
<path d="M137.105 24.7625V17.4565L133.719 24.7625H131.15L127.861 17.4565V24.7625H125.376V13.8174H128.742L132.473 22.155L136.286 13.8174H139.599V24.7625H137.105Z" fill="white"/>
</svg>
