<svg width="127" height="39" viewBox="0 0 127 39" fill="none" xmlns="http://www.w3.org/2000/svg">
<path d="M19.5 2C17.2019 2 14.9262 2.4527 12.803 3.3321C10.6798 4.2116 8.7507 5.5006 7.1256 7.1256C5.5006 8.7507 4.2116 10.6798 3.3321 12.803C2.4527 14.9262 2 17.2019 2 19.5C2 21.7981 2.4527 24.0738 3.3321 26.197C4.2116 28.3202 5.5006 30.2493 7.1256 31.8744C8.7507 33.4994 10.6798 34.7884 12.803 35.6679C14.9262 36.5473 17.2019 37 19.5 37V28.25C18.3509 28.25 17.2131 28.0237 16.1515 27.5839C15.0899 27.1442 14.1253 26.4997 13.3128 25.6872C12.5003 24.8747 11.8558 23.9101 11.4161 22.8485C10.9763 21.7869 10.75 20.6491 10.75 19.5C10.75 18.3509 10.9763 17.2131 11.4161 16.1515C11.8558 15.0899 12.5003 14.1253 13.3128 13.3128C14.1253 12.5003 15.0899 11.8558 16.1515 11.4161C17.2131 10.9763 18.3509 10.75 19.5 10.75V2Z" fill="white"/>
<path d="M19.5001 25.3336C22.7218 25.3336 25.3334 22.722 25.3334 19.5003C25.3334 16.2786 22.7218 13.667 19.5001 13.667C16.2784 13.667 13.6668 16.2786 13.6668 19.5003C13.6668 22.722 16.2784 25.3336 19.5001 25.3336Z" fill="white"/>
<path d="M2 19.5C2 21.7981 2.4527 24.0738 3.3321 26.197C4.2116 28.3202 5.5006 30.2493 7.1256 31.8744C8.7507 33.4994 10.6798 34.7884 12.803 35.6679C14.9262 36.5473 17.2019 37 19.5 37C21.7981 37 24.0738 36.5473 26.197 35.6679C28.3202 34.7884 30.2493 33.4994 31.8744 31.8744C33.4994 30.2493 34.7884 28.3202 35.6679 26.197C36.5473 24.0738 37 21.7981 37 19.5H28.25C28.25 20.6491 28.0237 21.7869 27.5839 22.8485C27.1442 23.9101 26.4997 24.8747 25.6872 25.6872C24.8747 26.4997 23.9101 27.1442 22.8485 27.5839C21.7869 28.0237 20.6491 28.25 19.5 28.25C18.3509 28.25 17.2131 28.0237 16.1515 27.5839C15.0899 27.1442 14.1253 26.4997 13.3128 25.6872C12.5003 24.8747 11.8558 23.9101 11.4161 22.8485C10.9763 21.7869 10.75 20.6491 10.75 19.5H2Z" fill="white"/>
<path d="M25.3334 19.5004C25.3334 17.9533 24.7188 16.4696 23.6249 15.3756C22.5309 14.2816 21.0472 13.667 19.5001 13.667C17.953 13.667 16.4693 14.2816 15.3753 15.3756C14.2813 16.4696 13.6667 17.9533 13.6667 19.5004H19.5001H25.3334Z" fill="white"/>
<path d="M46.1396 12.9248H43.9661V24.9998H46.1396V12.9248Z" fill="white"/>
<path d="M47.5589 20.7216C47.5589 23.5161 49.4909 25.2411 52.0439 25.2411C54.5969 25.2411 56.5289 23.5161 56.5289 20.7216C56.5289 17.9271 54.5969 16.2021 52.0439 16.2021C49.4909 16.2021 47.5589 17.9271 47.5589 20.7216ZM49.7324 20.7216C49.7324 19.0656 50.6984 18.0996 52.0439 18.0996C53.3894 18.0996 54.3554 19.0656 54.3554 20.7216C54.3554 22.3776 53.3894 23.3436 52.0439 23.3436C50.6984 23.3436 49.7324 22.3776 49.7324 20.7216Z" fill="white"/>
<path d="M64.296 16.4436V17.5993H64.1235C63.606 16.8576 62.778 16.2021 61.2945 16.2021C59.259 16.2021 57.4305 17.9271 57.4305 20.5836C57.4305 23.2401 59.259 24.9651 61.2945 24.9651C62.778 24.9651 63.606 24.2923 64.089 23.6196H64.2615V24.4476C64.2615 26.1036 63.2955 26.8626 61.881 26.8626C60.4665 26.8626 59.742 26.1037 59.4487 25.1203L57.4995 25.9656C57.948 27.2593 59.259 28.6911 61.9155 28.6911C64.641 28.6911 66.435 27.2593 66.435 24.4993V16.4436H64.296ZM61.95 23.1021C60.6045 23.1021 59.604 22.1361 59.604 20.5836C59.604 19.0311 60.6045 18.0651 61.95 18.0651C63.2955 18.0651 64.296 19.0311 64.296 20.5836C64.296 22.1361 63.2955 23.1021 61.95 23.1021Z" fill="white"/>
<path d="M67.8411 20.7216C67.8411 23.5161 69.7731 25.2411 72.3261 25.2411C74.8791 25.2411 76.811 23.5161 76.811 20.7216C76.811 17.9271 74.8791 16.2021 72.3261 16.2021C69.7731 16.2021 67.8411 17.9271 67.8411 20.7216ZM70.0146 20.7216C70.0146 19.0656 70.9806 18.0996 72.3261 18.0996C73.6716 18.0996 74.6376 19.0656 74.6376 20.7216C74.6376 22.3776 73.6716 23.3436 72.3261 23.3436C70.9806 23.3436 70.0146 22.3776 70.0146 20.7216Z" fill="white"/>
<path d="M78.517 13.9601C78.517 14.8399 79.19 15.4436 80.053 15.4436C80.915 15.4436 81.588 14.8399 81.588 13.9601C81.588 13.0804 80.915 12.4766 80.053 12.4766C79.19 12.4766 78.517 13.0804 78.517 13.9601ZM81.139 16.4441H78.966V25.0001H81.139V16.4441Z" fill="white"/>
<path d="M83.076 28.4496H85.25V23.8956H85.422C85.905 24.5856 86.733 25.2411 88.217 25.2411C90.252 25.2411 92.081 23.5161 92.081 20.7216C92.081 17.9271 90.252 16.2021 88.217 16.2021C86.733 16.2021 85.905 16.8576 85.388 17.5994H85.215V16.4436H83.076V28.4496ZM87.561 23.3781C86.216 23.3781 85.215 22.4121 85.215 20.7216C85.215 19.0311 86.216 18.0651 87.561 18.0651C88.907 18.0651 89.907 19.0311 89.907 20.7216C89.907 22.4121 88.907 23.3781 87.561 23.3781Z" fill="white"/>
<path d="M93.349 18.8414C93.349 20.5319 94.763 21.1529 96.557 21.4979L97.006 21.5841C98.075 21.7911 98.558 22.0499 98.558 22.6019C98.558 23.1539 98.075 23.5851 97.075 23.5851C96.074 23.5851 95.264 23.1711 95.039 21.9291L93.038 22.4466C93.332 24.2406 94.832 25.2411 97.075 25.2411C99.248 25.2411 100.663 24.2234 100.663 22.4294C100.663 20.6353 99.214 20.1524 97.282 19.7729L96.833 19.6866C95.936 19.5141 95.453 19.2726 95.453 18.7034C95.453 18.1859 95.902 17.8581 96.73 17.8581C97.558 17.8581 98.144 18.2031 98.351 19.1346L100.318 18.5309C99.904 17.1509 98.645 16.2021 96.73 16.2021C94.694 16.2021 93.349 17.1509 93.349 18.8414Z" fill="white"/>
<path d="M110.426 25.0003V16.4443H108.253V20.8603C108.253 22.4473 107.477 23.3788 106.148 23.3788C104.975 23.3788 104.32 22.7406 104.32 21.4468V16.4443H102.146V21.5503C102.146 23.6721 103.475 25.1383 105.476 25.1383C107.045 25.1383 107.77 24.4483 108.115 23.7238H108.287V25.0003H110.426Z" fill="white"/>
<path d="M112.354 16.4437V24.9997H114.528V19.8937C114.528 18.7207 115.08 18.0652 116.08 18.0652C116.943 18.0652 117.46 18.5482 117.46 19.4797V24.9997H119.634V19.8937C119.634 18.7207 120.186 18.0652 121.186 18.0652C122.049 18.0652 122.566 18.5482 122.566 19.4797V24.9997H124.74V19.3762C124.74 17.3062 123.463 16.3057 121.876 16.3057C120.479 16.3057 119.841 16.9267 119.427 17.6512H119.254C118.857 16.8405 118.15 16.3057 116.908 16.3057C115.666 16.3057 114.993 16.8577 114.666 17.5132H114.493V16.4437H112.354Z" fill="white"/>
</svg>
