<svg width="141" height="40" viewBox="0 0 141 40" fill="none" xmlns="http://www.w3.org/2000/svg">
<path d="M47.0967 25.4548V9.89844H44.5276V25.4548H47.0967Z" fill="white"/>
<path d="M48.6692 20.2694C48.6692 23.4476 50.8171 25.7057 54.0812 25.7057C57.3452 25.7057 59.4932 23.4476 59.4932 20.2694C59.4932 17.0912 57.3452 14.833 54.0812 14.833C50.8171 14.833 48.6692 17.0912 48.6692 20.2694ZM51.2593 20.2694C51.2593 18.4085 52.3754 17.1121 54.0812 17.1121C55.7869 17.1121 56.903 18.4085 56.903 20.2694C56.903 22.1094 55.7869 23.4266 54.0812 23.4266C52.3754 23.4266 51.2593 22.1094 51.2593 20.2694Z" fill="white"/>
<path d="M60.3573 20.0601C60.3573 23.071 62.3158 25.2456 65.2429 25.2456C66.7591 25.2456 68.0647 24.6392 68.7175 23.6356V25.3919C68.7175 27.0856 67.6436 28.2147 65.8536 28.2147C64.2531 28.2147 63.1581 27.441 63.0107 26.0819H60.4205C60.7574 28.7792 62.8422 30.5356 65.7062 30.5356C69.0755 30.5356 71.2235 28.3401 71.2235 24.9319V15.1256H68.9492L68.8018 16.5265C68.17 15.4392 66.8644 14.791 65.3271 14.791C62.3579 14.791 60.3573 17.0283 60.3573 20.0601ZM62.9686 19.9974C62.9686 18.2828 64.0636 17.0283 65.6851 17.0283C67.454 17.0283 68.6333 18.3037 68.6333 19.9974C68.6333 21.7119 67.454 23.0292 65.6851 23.0292C64.0847 23.0292 62.9686 21.7328 62.9686 19.9974Z" fill="white"/>
<path d="M72.4949 20.2694C72.4949 23.4476 74.6428 25.7057 77.9069 25.7057C81.171 25.7057 83.3189 23.4476 83.3189 20.2694C83.3189 17.0912 81.171 14.833 77.9069 14.833C74.6428 14.833 72.4949 17.0912 72.4949 20.2694ZM75.0851 20.2694C75.0851 18.4085 76.2012 17.1121 77.9069 17.1121C79.6126 17.1121 80.7287 18.4085 80.7287 20.2694C80.7287 22.1094 79.6126 23.4266 77.9069 23.4266C76.2012 23.4266 75.0851 22.1094 75.0851 20.2694Z" fill="white"/>
<path d="M86.0993 13.0142C86.9416 13.0142 87.6365 12.3451 87.6365 11.4879C87.6365 10.6515 86.9416 9.98242 86.0993 9.98242C85.2359 9.98242 84.5831 10.6515 84.5831 11.4879C84.5831 12.3451 85.2359 13.0142 86.0993 13.0142ZM84.8147 25.4551H87.3838V15.1261H84.8147V25.4551Z" fill="white"/>
<path d="M89.6346 30.2424H92.1408V24.0324C92.7936 25.0988 94.2045 25.7261 95.7628 25.7261C98.8373 25.7261 100.669 23.3843 100.627 20.1643C100.564 16.9233 98.6899 14.8115 95.7417 14.8115C94.1624 14.8115 92.7304 15.5015 92.0986 16.6933L91.9512 15.1252H89.6346V30.2424ZM92.246 20.2897C92.246 18.4288 93.3832 17.1324 95.1732 17.1324C96.9631 17.1324 98.0371 18.4497 98.0371 20.2897C98.0371 22.1297 96.9631 23.4261 95.1732 23.4261C93.3832 23.4261 92.246 22.1506 92.246 20.2897Z" fill="white"/>
<path d="M101.279 22.3597C101.363 24.4088 102.964 25.7261 105.449 25.7261C107.892 25.7261 109.555 24.4297 109.555 22.4224C109.555 20.9379 108.629 19.9343 106.923 19.5161L105.091 19.077C104.312 18.8679 103.785 18.5961 103.785 17.927C103.785 17.2161 104.354 16.7143 105.28 16.7143C106.249 16.7143 106.881 17.2579 106.881 18.157H109.218C109.134 16.1079 107.597 14.8115 105.343 14.8115C103.111 14.8115 101.448 16.1079 101.448 18.0733C101.448 19.4115 102.227 20.5197 104.227 21.0424L106.038 21.5024C106.712 21.6906 107.133 22.0043 107.133 22.5897C107.133 23.4052 106.354 23.7815 105.407 23.7815C104.269 23.7815 103.617 23.2588 103.617 22.3597H101.279Z" fill="white"/>
<path d="M114.885 25.7269C116.296 25.7269 117.643 25.0787 118.254 24.1169L118.423 25.4551H120.823V15.126H118.254V20.5414C118.254 22.4023 117.538 23.4478 115.853 23.4478C114.548 23.4478 113.642 22.8205 113.642 20.6878V15.126H111.073V21.5869C111.073 24.0542 112.421 25.7269 114.885 25.7269Z" fill="white"/>
<path d="M125.659 25.4543V19.5161C125.659 17.8433 126.649 17.0488 127.871 17.0488C129.092 17.0488 129.892 17.8224 129.892 19.2861V25.4543H132.398V19.537C132.398 17.8433 133.367 17.0488 134.588 17.0488C135.831 17.0488 136.631 17.8224 136.631 19.2861V25.4543H139.116V18.7006C139.116 16.317 137.789 14.8115 135.262 14.8115C133.683 14.8115 132.44 15.5643 131.935 16.777C131.366 15.5643 130.229 14.8115 128.502 14.8115C127.281 14.8115 126.186 15.3761 125.575 16.2961L125.449 15.1252H123.09V25.4543H125.659Z" fill="white"/>
<path d="M119.5 34.6854C119.883 34.6854 120.215 34.3654 120.215 33.9854C120.215 33.5954 119.883 33.2754 119.5 33.2754C119.107 33.2754 118.775 33.5954 118.775 33.9854C118.775 34.3654 119.107 34.6854 119.5 34.6854Z" fill="white"/>
<path d="M120.954 32.1056C120.954 33.6356 121.901 34.6656 123.281 34.6656C124.469 34.6656 125.376 33.9556 125.567 32.8956H124.66C124.489 33.4856 123.966 33.8356 123.341 33.8356C122.455 33.8356 121.891 33.1556 121.891 32.0956C121.891 31.0156 122.485 30.3556 123.361 30.3556C123.966 30.3556 124.489 30.6756 124.65 31.3056H125.557C125.396 30.2356 124.55 29.5156 123.371 29.5156C121.941 29.5156 120.954 30.5656 120.954 32.1056Z" fill="white"/>
<path d="M125.924 32.0954C125.924 33.5654 126.931 34.6654 128.442 34.6654C129.953 34.6654 130.96 33.5654 130.96 32.0954C130.96 30.6254 129.953 29.5254 128.442 29.5254C126.931 29.5254 125.924 30.6254 125.924 32.0954ZM126.881 32.0954C126.881 31.0954 127.495 30.3654 128.442 30.3654C129.389 30.3654 130.003 31.0954 130.003 32.0954C130.003 33.0954 129.389 33.8254 128.442 33.8254C127.495 33.8254 126.881 33.0954 126.881 32.0954Z" fill="white"/>
<path d="M132.715 34.5554V31.6154C132.715 30.8454 133.198 30.3454 133.903 30.3454C134.578 30.3454 135.001 30.7754 135.001 31.5454V34.5554H135.928V31.6254C135.928 30.8454 136.401 30.3454 137.116 30.3454C137.781 30.3454 138.204 30.7754 138.204 31.5454V34.5554H139.12V31.3454C139.12 30.2154 138.456 29.5254 137.328 29.5254C136.562 29.5254 135.968 29.8954 135.726 30.4954C135.474 29.8954 134.921 29.5254 134.115 29.5254C133.5 29.5254 132.957 29.8054 132.685 30.2854L132.614 29.6654H131.768V34.5554H132.715Z" fill="white"/>
<path fill-rule="evenodd" clip-rule="evenodd" d="M1.83116 20.3959L1.83293 20.2137L1.83657 20.0315L1.8421 19.8492L1.84951 19.6669L1.85881 19.4846L1.86999 19.3024L1.88307 19.1202L1.89802 18.938L1.91486 18.7559L1.9336 18.5738L1.95422 18.392L1.97671 18.2102L2.0011 18.0285L2.02738 17.8471L2.05553 17.6658L2.08557 17.4848L2.1175 17.3039L2.1513 17.1234L2.18698 16.943L2.22453 16.7629L2.26397 16.5831L2.30526 16.4036L2.34844 16.2245L2.39347 16.0457L2.44037 15.8674L2.48913 15.6893L2.53975 15.5116L2.59222 15.3345L2.64654 15.1577L2.70271 14.9815L2.76072 14.8056L2.82057 14.6303L2.88225 14.4555L2.94576 14.2812L3.01109 14.1074L3.07824 13.9343L3.14721 13.7617L3.21799 13.5897L3.29057 13.4185L3.36494 13.2477L3.44111 13.0776L3.51906 12.9083L3.59879 12.7396L3.68029 12.5716L3.76357 12.4044L3.8486 12.2379L3.93538 12.0722L4.0239 11.9072L4.11416 11.7431L4.20615 11.5797L4.29987 11.4172L4.39529 11.2555L4.49243 11.0947L4.59126 10.9348L4.69178 10.7758L4.79397 10.6177L4.89785 10.4606L5.00339 10.3044L5.11057 10.1492L5.21941 9.9949L5.32988 9.84163L5.44196 9.68945L5.55567 9.53818L5.67098 9.38809L5.78789 9.239L5.90637 9.09094L6.02643 8.94403L6.14806 8.79823L6.27123 8.65356L6.39595 8.51002L6.5222 8.36765L6.64996 8.22646L6.77924 8.08645L6.91001 7.94765L7.04226 7.81007L7.17598 7.67372L7.31115 7.53862L7.44778 7.40479L7.58584 7.27223L7.72532 7.14097L7.86621 7.01102L8.00849 6.88239L8.15215 6.7551L8.29719 6.62915L8.44359 6.50456L8.59131 6.38136L8.74037 6.25955L8.89075 6.13914L9.04242 6.02015L9.19539 5.90259L9.34958 5.78648L9.50513 5.67181L9.66188 5.55863L9.81982 5.44693L9.97895 5.33672L10.1394 5.22802L10.3009 5.12083L10.4636 5.01519L10.6275 4.91108L10.7925 4.80853L10.9586 4.70755L11.1259 4.60814L11.2942 4.51033L11.4636 4.41412L11.634 4.31952L11.8055 4.22655L11.978 4.1352L12.1515 4.04551L12.326 3.95747L12.5016 3.8711L12.678 3.7864L12.8554 3.70338L13.0337 3.62206L13.213 3.54245L13.3931 3.46455L13.5741 3.38838L13.7559 3.31394L13.9386 3.24124L14.1221 3.17029L14.3064 3.1011L14.4914 3.03368L14.6773 2.96804L14.8639 2.90418L15.0512 2.8421L15.2392 2.78184L15.4279 2.72338L15.6173 2.66673L15.8074 2.61191L15.998 2.55892L16.1894 2.50776L16.3813 2.45844L16.5737 2.41098L16.7667 2.36538L16.9604 2.32162L17.1545 2.27975L17.349 2.23974L17.5441 2.20161L17.7397 2.16538L17.9357 2.13102L18.1322 2.09857L18.3291 2.06801L18.5263 2.03936L18.7239 2.01262L18.9218 1.9878L19.1201 1.96489L19.3187 1.94389L19.5176 1.92483L19.7167 1.9077L19.9162 1.89249L20.1157 1.87922L21.1892 1.81836L21.2504 6.95351L21.2855 6.95311L21.4337 6.9529L21.582 6.95414L21.7302 6.95682L21.8786 6.96096L22.0269 6.96654L22.1754 6.97356L22.3238 6.98204L22.4722 6.99198L22.6205 7.00335L22.7689 7.01619L22.9172 7.03048L23.0654 7.04622L23.2134 7.06341L23.3615 7.08206L23.5094 7.10216L23.6571 7.1237L23.8047 7.14671L23.9522 7.17117L24.0995 7.19707L24.2466 7.22442L24.3935 7.25322L24.54 7.28348L24.6865 7.31517L24.8327 7.3483L24.9785 7.38288L25.1242 7.4189L25.2695 7.45636L25.4144 7.49525L25.5591 7.53558L25.7035 7.57733L25.8474 7.62051L25.991 7.66512L26.1342 7.71116L26.277 7.75861L26.4194 7.80748L26.5613 7.85776L26.7028 7.90944L26.8438 7.96254L26.9844 8.01703L27.1245 8.07293L27.264 8.13022L27.403 8.1889L27.5415 8.24896L27.6795 8.3104L27.8168 8.37322L27.9536 8.4374L28.0898 8.50296L28.2254 8.56988L28.3604 8.63815L28.4947 8.70777L28.6284 8.77873L28.7614 8.85104L28.8937 8.92468L29.0254 8.99964L29.1563 9.07592L29.2865 9.15354L29.416 9.23245L29.5447 9.31263L29.6726 9.39418L29.7998 9.4769L29.9261 9.561L30.0518 9.64636L30.1765 9.7329L30.3004 9.82081L30.4235 9.9099L30.5456 10.0003L30.667 10.0919L30.7874 10.1847L30.907 10.2788L31.0256 10.374L31.1433 10.4704L31.2601 10.5682L31.3759 10.667L31.4908 10.767L31.6047 10.8682L31.7175 10.9705L31.8294 11.0741L31.9402 11.1787L32.0501 11.2844L32.1589 11.3914L32.2667 11.4994L32.3733 11.6085L32.479 11.7187L32.5834 11.83L32.6869 11.9424L32.7892 12.0558L32.8903 12.1703L32.9904 12.2858L33.0893 12.4024L33.1871 12.5199L33.2837 12.6385L33.3791 12.7581L33.4733 12.8786L33.5663 13.0002L33.6582 13.1227L33.7487 13.2462L33.8381 13.3706L33.9262 13.496L34.013 13.6222L34.0986 13.7494L34.183 13.8774L34.266 14.0065L34.3477 14.1363L34.4282 14.2669L34.5073 14.3984L34.5851 14.5308L34.6615 14.664L34.7367 14.798L34.8105 14.9328L34.8829 15.0684L34.954 15.2047L35.0237 15.3418L35.092 15.4796L35.1589 15.6183L35.2244 15.7575L35.2885 15.8975L35.3513 16.0383L35.4125 16.1796L35.4723 16.3217L35.5307 16.4644L35.5877 16.6077L35.6431 16.7516L35.6972 16.8963L35.7497 17.0414L35.8008 17.1872L35.8504 17.3335L35.8986 17.4804L35.9452 17.6277L35.9903 17.7756L36.0339 17.9241L36.076 18.073L36.1166 18.2225L36.1557 18.3724L36.1931 18.5226L36.2292 18.6735L36.2636 18.8246L36.2965 18.9763L36.3279 19.1282L36.3577 19.2806L36.3859 19.4334L36.4126 19.5865L36.4377 19.7398L36.4612 19.8935L36.4832 20.0476L36.5035 20.2019L36.5223 20.3565L36.5395 20.5114L36.5551 20.6665L36.5691 20.8217L36.5815 20.9773L36.5923 21.133L36.6015 21.2889L36.6091 21.4449L36.6151 21.6012L36.6194 21.7575L36.6223 21.9139L36.6234 22.0704L36.6229 22.2271L36.6208 22.3838L36.6171 22.5406L36.6117 22.6974L36.6048 22.8542L36.5963 23.011L36.586 23.1678L36.5742 23.3246L36.5607 23.4814L36.5456 23.6381L36.529 23.7947L36.5106 23.9512L36.4906 24.1076L36.4691 24.2639L36.4458 24.4201L36.421 24.5761L36.3946 24.7319L36.3665 24.8875L36.3368 25.043L36.3055 25.1983L36.2725 25.3533L36.2379 25.508L36.2017 25.6625L36.164 25.8167L36.1246 25.9706L36.0835 26.1242L36.041 26.2775L35.9967 26.4304L35.951 26.5829L35.9035 26.7352L35.8545 26.8869L35.8039 27.0384L35.7517 27.1893L35.6979 27.3398L35.6426 27.4899L35.5856 27.6395L35.5271 27.7885L35.4671 27.9372L35.4055 28.0853L35.3423 28.2328L35.2776 28.3799L35.2113 28.5263L35.1434 28.6722L35.074 28.8174L35.0032 28.9621L34.9306 29.1062L34.8568 29.2495L34.7812 29.3924L34.7043 29.5344L34.6257 29.6758L34.5458 29.8165L34.4643 29.9564L34.3814 30.0957L34.297 30.2342L34.2111 30.372L34.1236 30.5089L34.0348 30.6451L33.9446 30.7804L33.8529 30.915L33.7598 31.0487L33.6652 31.1816L33.5693 31.3136L33.4718 31.4448L33.373 31.5751L33.2729 31.7044L33.1713 31.8328L33.0684 31.9604L32.9641 32.0869L32.8585 32.2124L32.7515 32.3371L32.6431 32.4607L32.5335 32.5834L32.4225 32.705L32.3102 32.8256L32.1967 32.9452L32.0818 33.0637L31.9657 33.1811L31.8482 33.2974L31.7296 33.4127L31.6097 33.5269L31.4886 33.64L31.3663 33.7519L31.2427 33.8627L31.1179 33.9723L30.992 34.0807L30.8648 34.1881L30.7365 34.2942L30.6071 34.399L30.4765 34.5027L30.3448 34.6052L30.2119 34.7064L30.0779 34.8063L29.9429 34.905L29.8068 35.0024L29.6696 35.0985L29.5313 35.1935L29.3921 35.287L29.2518 35.3792L29.1105 35.4701L28.9682 35.5597L28.8249 35.6479L28.6806 35.7348L28.5353 35.8203L28.3891 35.9044L28.242 35.9872L28.0939 36.0684L27.945 36.1484L27.7951 36.2269L27.6444 36.304L27.4928 36.3797L27.3404 36.4539L27.1871 36.5266L27.033 36.598L26.8781 36.6678L26.7224 36.7362L26.566 36.803L26.4087 36.8684L26.2508 36.9323L26.0921 36.9946L25.9327 37.0554L25.7726 37.1148L25.6118 37.1725L25.4503 37.2288L25.2883 37.2835L25.1256 37.3366L24.9621 37.3882L24.7981 37.4382L24.6336 37.4866L24.4685 37.5334L24.3028 37.5787L24.1366 37.6224L23.9698 37.6644L23.8026 37.7049L23.6349 37.7438L23.4666 37.781L23.298 37.8166L23.1288 37.8506L22.9593 37.883L22.7893 37.9137L22.619 37.9427L22.4483 37.9702L22.2773 37.996L22.1058 38.0201L21.9341 38.0425L21.7621 38.0634L21.5897 38.0824L21.4171 38.0999L21.2442 38.1157L21.0712 38.1298L20.8978 38.1423L20.7243 38.153L20.5506 38.1621L20.3767 38.1694L20.2027 38.1751L20.0285 38.1791L19.8543 38.1814L19.6798 38.182L19.5054 38.1809L19.3309 38.1781L19.1563 38.1736L18.9817 38.1674L18.8071 38.1595L18.6325 38.1499L18.458 38.1385L18.2834 38.1255L18.109 38.1108L17.9346 38.0944L17.7602 38.0763L17.5861 38.0564L17.412 38.0349L17.2381 38.0116L17.0644 37.9866L16.8908 37.96L16.7175 37.9316L16.5443 37.9016L16.3714 37.8698L16.1988 37.8364L16.0264 37.8013L15.8543 37.7644L15.6825 37.7258L15.5111 37.6856L15.34 37.6437L15.1692 37.6001L14.9988 37.5548L14.8289 37.5079L14.6593 37.4593L14.4901 37.409L14.3215 37.357L14.1533 37.3034L13.9855 37.2481L13.8183 37.1911L13.6515 37.1325L13.4854 37.0723L13.3197 37.0104L13.1547 36.9468L12.9902 36.8816L12.8263 36.8148L12.6631 36.7464L12.5005 36.6764L12.3385 36.6047L12.1772 36.5314L12.0166 36.4565L11.8567 36.3801L11.6976 36.302L11.5391 36.2224L11.3814 36.1412L11.2246 36.0584L11.0684 35.9741L10.9131 35.8882L10.7587 35.8007L10.605 35.7117L10.4522 35.6212L10.3003 35.5292L10.1492 35.4355L9.99909 35.3405L9.84994 35.2439L9.70162 35.1459L9.5543 35.0463L9.40799 34.9453L9.26259 34.8428L9.11822 34.7388L8.97485 34.6334L8.83252 34.5265L8.69123 34.4183L8.551 34.3086L8.41184 34.1974L8.27378 34.085L8.13682 33.9711L8.00097 33.8558L7.86626 33.7392L7.73271 33.6211L7.60031 33.5017L7.4691 33.3811L7.33907 33.259L7.21026 33.1357L7.08266 33.011L6.95629 32.8851L6.83118 32.7579L6.70733 32.6294L6.58475 32.4996L6.46346 32.3686L6.34348 32.2364L6.22481 32.1029L6.10747 31.9683L5.99148 31.8324L5.87684 31.6954L5.76357 31.5571L5.65168 31.4177L5.54118 31.2772L5.43209 31.1355L5.32442 30.9927L5.21817 30.8488L5.11338 30.7038L5.01003 30.5577L4.90815 30.4106L4.80774 30.2625L4.70883 30.1132L4.61143 29.963L4.51552 29.8117L4.42114 29.6594L4.3283 29.5063L4.237 29.352L4.14726 29.1969L4.05908 29.0408L3.97248 28.8838L3.88746 28.7258L3.80404 28.567L3.72223 28.4074L3.64202 28.2468L3.56346 28.0854L3.48652 27.9232L3.41122 27.7602L3.33758 27.5963L3.2656 27.4317L3.19529 27.2663L3.12667 27.1002L3.05972 26.9333L2.99448 26.7656L2.93094 26.5974L2.86911 26.4284L2.80901 26.2587L2.75062 26.0884L2.69397 25.9174L2.63907 25.7459L2.58591 25.5737L2.53452 25.401L2.48489 25.2276L2.43702 25.0537L2.39093 24.8794L2.34663 24.7044L2.30411 24.529L2.26339 24.3531L2.22447 24.1766L2.18735 23.9998L2.15205 23.8225L2.11855 23.6449L2.08688 23.4668L2.05705 23.2884L2.02903 23.1095L2.00285 22.9304L1.97852 22.7508L1.95603 22.571L1.93538 22.3909L1.91659 22.2105L1.89965 22.03L1.88457 21.8491L1.87135 21.668L1.85999 21.4867L1.85051 21.3053L1.84289 21.1236L1.83714 20.9419L1.83327 20.76L1.83128 20.578L1.83116 20.3959ZM19.5734 7.06108L19.5317 3.5609L19.4921 3.5647L19.31 3.58393L19.1285 3.60491L18.947 3.62768L18.7663 3.65213L18.5857 3.67837L18.4053 3.70636L18.2255 3.73607L18.0459 3.76755L17.8672 3.80067L17.6882 3.83564L17.5105 3.87219L17.3325 3.91058L17.1554 3.9506L16.9785 3.9924L16.8024 4.0358L16.6268 4.08094L16.4517 4.12777L16.2771 4.17629L16.1033 4.22643L15.9298 4.2783L15.7572 4.33179L15.5851 4.38697L15.4139 4.44368L15.2429 4.50218L15.0729 4.56224L14.9037 4.6239L14.735 4.68723L14.5671 4.75211L14.4002 4.81856L14.2338 4.88671L14.0681 4.95641L13.9033 5.0277L13.7394 5.1005L13.5764 5.17487L13.4142 5.25074L13.2526 5.32829L13.0922 5.40725L12.9326 5.48775L12.774 5.56977L12.6162 5.6533L12.4595 5.73827L12.3035 5.8248L12.1485 5.91284L11.9949 6.00213L11.8417 6.09317L11.69 6.18541L11.5393 6.2791L11.3893 6.37431L11.2405 6.47092L11.0928 6.56894L10.9465 6.66811L10.8008 6.76904L10.6565 6.87105L10.5133 6.97447L10.3711 7.0793L10.2302 7.18539L10.0906 7.29274L9.95175 7.4016L9.81451 7.5115L9.67827 7.62285L9.54331 7.7354L9.40954 7.84927L9.27715 7.96422L9.14575 8.08063L9.01584 8.19808L8.88705 8.31688L8.75975 8.43668L8.63361 8.55778L8.50887 8.67997L8.3854 8.80337L8.26313 8.92804L8.14247 9.05357L8.02316 9.18018L7.90491 9.30827L7.7883 9.43718L7.67312 9.567L7.55912 9.69818L7.44678 9.83018L7.33568 9.96336L7.22608 10.0975L7.11791 10.2326L7.01115 10.3687L6.90597 10.5057L6.80216 10.6437L6.69978 10.7828L6.59905 10.9225L6.49966 11.0634L6.40186 11.2051L6.30557 11.3476L6.21072 11.4911L6.11748 11.6354L6.02576 11.7804L5.93559 11.9263L5.84702 12.0729L5.75992 12.2204L5.67437 12.3688L5.59051 12.5177L5.50816 12.6674L5.42738 12.818L5.34823 12.9692L5.27065 13.1211L5.19473 13.2735L5.12039 13.4267L5.04769 13.5805L4.97658 13.7351L4.90715 13.8901L4.8393 14.0458L4.7731 14.2021L4.7086 14.3588L4.6457 14.5162L4.58446 14.6741L4.5249 14.8324L4.46699 14.9914L4.41079 15.1506L4.35622 15.3105L4.30333 15.4708L4.25214 15.6315L4.20264 15.7925L4.1548 15.9542L4.10868 16.116L4.06424 16.2783L4.0215 16.4408L3.98045 16.6038L3.94112 16.767L3.90349 16.9305L3.86756 17.0944L3.83334 17.2585L3.80084 17.4227L3.77004 17.5873L3.74096 17.752L3.71359 17.917L3.68795 18.0821L3.66402 18.2474L3.6418 18.4128L3.6213 18.5784L3.60252 18.744L3.58547 18.9098L3.57013 19.0756L3.55651 19.2414L3.5446 19.4074L3.53442 19.5735L3.52595 19.7394L3.51921 19.9054L3.51417 20.0713L3.51086 20.2372L3.50924 20.403L3.50935 20.5688L3.51117 20.7344L3.51469 20.9001L3.51992 21.0655L3.52685 21.2308L3.53549 21.396L3.54582 21.5609L3.55785 21.7257L3.57158 21.8903L3.587 22.0546L3.60409 22.2188L3.62288 22.3826L3.64334 22.5463L3.66548 22.7095L3.68929 22.8725L3.71478 23.0353L3.74192 23.1975L3.77074 23.3595L3.8012 23.5212L3.83331 23.6824L3.86706 23.8433L3.90246 24.0036L3.9395 24.1636L3.97816 24.3232L4.01845 24.4823L4.06036 24.6409L4.10387 24.7989L4.14901 24.9565L4.19574 25.1136L4.24407 25.2702L4.29398 25.4262L4.34547 25.5815L4.39853 25.7364L4.45318 25.8905L4.50937 26.0442L4.56711 26.1971L4.62643 26.3494L4.68725 26.5011L4.74961 26.6521L4.81351 26.8024L4.87891 26.9519L4.94583 27.1008L5.01425 27.249L5.08415 27.3964L5.15553 27.543L5.22839 27.6888L5.30271 27.8339L5.37849 27.9782L5.45571 28.1216L5.53438 28.2643L5.61447 28.406L5.69597 28.5469L5.77889 28.687L5.86321 28.8261L5.94888 28.9644L6.03599 29.1017L6.12443 29.2381L6.21425 29.3736L6.30541 29.5082L6.3979 29.6417L6.49171 29.7744L6.58686 29.906L6.68329 30.0366L6.78105 30.1663L6.88004 30.2948L6.98036 30.4224L7.08188 30.5488L7.18468 30.6743L7.28875 30.7987L7.39398 30.922L7.50046 31.0442L7.60812 31.1653L7.71701 31.2853L7.82705 31.4041L7.93823 31.5218L8.05059 31.6384L8.16408 31.7538L8.27873 31.8681L8.39446 31.9811L8.51132 32.093L8.62923 32.2036L8.74823 32.3132L8.86833 32.4214L8.98945 32.5285L9.11154 32.6342L9.23476 32.7387L9.35901 32.842L9.48407 32.944L9.61033 33.0448L9.73742 33.1442L9.86551 33.2424L9.99451 33.3393L10.1245 33.4348L10.2554 33.529L10.3871 33.6219L10.5197 33.7134L10.6533 33.8037L10.7876 33.8925L10.9229 33.9801L11.0589 34.0663L11.1958 34.151L11.3335 34.2344L11.4718 34.3164L11.6111 34.3971L11.751 34.4763L11.8917 34.5541L12.0331 34.6304L12.1753 34.7054L12.318 34.779L12.4615 34.8512L12.6057 34.9218L12.7505 34.9911L12.8959 35.0589L13.0419 35.1253L13.1885 35.1901L13.3358 35.2535L13.4836 35.3155L13.632 35.376L13.7809 35.435L13.9303 35.4925L14.0803 35.5485L14.2306 35.6031L14.3815 35.6561L14.533 35.7076L14.6848 35.7577L14.837 35.8063L14.9896 35.8533L15.1428 35.8988L15.2961 35.9428L15.4499 35.9853L15.6041 36.0263L15.7586 36.0657L15.9134 36.1036L16.0684 36.14L16.2239 36.1749L16.3795 36.2082L16.5354 36.24L16.6916 36.2703L16.8479 36.299L17.0045 36.3262L17.1612 36.3518L17.3182 36.3759L17.4753 36.3984L17.6326 36.4194L17.7899 36.439L17.9474 36.4569L18.1049 36.4733L18.2626 36.4882L18.4204 36.5014L18.5781 36.5133L18.7359 36.5234L18.8937 36.5322L19.0515 36.5393L19.2092 36.5449L19.367 36.549L19.5247 36.5514L19.6823 36.5524L19.8399 36.5519L19.9974 36.5498L20.1547 36.5463L20.3119 36.5411L20.469 36.5344L20.6259 36.5263L20.7826 36.5165L20.9391 36.5054L21.0955 36.4926L21.2516 36.4784L21.4075 36.4625L21.5631 36.4453L21.7184 36.4265L21.8735 36.4063L22.0282 36.3844L22.1827 36.3612L22.3368 36.3364L22.4906 36.3102L22.644 36.2824L22.797 36.2533L22.9497 36.2226L23.1019 36.1904L23.2537 36.1569L23.4051 36.1218L23.5561 36.0853L23.7065 36.0474L23.8565 36.0079L24.0059 35.9671L24.1549 35.9248L24.3034 35.8811L24.4513 35.836L24.5986 35.7895L24.7455 35.7415L24.8917 35.6923L25.0372 35.6415L25.1823 35.5894L25.3267 35.5359L25.4705 35.481L25.6136 35.4248L25.7559 35.3673L25.8977 35.3083L26.0388 35.248L26.1791 35.1864L26.3186 35.1235L26.4576 35.0592L26.5958 34.9935L26.7331 34.9267L26.8698 34.8585L27.0056 34.789L27.1407 34.7183L27.275 34.6462L27.4083 34.5729L27.5409 34.4984L27.6725 34.4226L27.8035 34.3455L27.9334 34.2674L28.0627 34.1878L28.1907 34.1072L28.318 34.0253L28.4445 33.9422L28.57 33.8578L28.6943 33.7725L28.8178 33.6859L28.9404 33.5982L29.062 33.5094L29.1827 33.4193L29.3022 33.3283L29.4209 33.2359L29.5384 33.1426L29.6549 33.0483L29.7705 32.9527L29.8849 32.8561L29.9982 32.7585L30.1105 32.6598L30.2217 32.5602L30.3318 32.4594L30.4409 32.3577L30.5487 32.2551L30.6555 32.1513L30.7612 32.0465L30.8656 31.9409L30.969 31.8343L31.0711 31.7268L31.172 31.6185L31.272 31.5088L31.3705 31.3986L31.468 31.2874L31.5641 31.1754L31.6592 31.0624L31.7529 30.9486L31.8454 30.834L31.9368 30.7184L32.0268 30.6023L32.1157 30.4851L32.2031 30.3673L32.2894 30.2485L32.3746 30.129L32.4581 30.009L32.5406 29.888L32.6216 29.7665L32.7015 29.644L32.7801 29.5208L32.8572 29.3972L32.933 29.2728L33.0076 29.1474L33.0807 29.0219L33.1526 28.8954L33.2232 28.7684L33.2922 28.6409L33.36 28.5125L33.4265 28.3836L33.4914 28.2546L33.5552 28.1245L33.6175 27.994L33.6784 27.8631L33.7379 27.7316L33.796 27.5996L33.8527 27.4673L33.9081 27.3342L33.962 27.2007L34.0145 27.0672L34.0656 26.9326L34.1152 26.7981L34.1636 26.6629L34.2104 26.5275L34.2559 26.3915L34.2997 26.2556L34.3424 26.1187L34.3834 25.982L34.423 25.8448L34.4613 25.7074L34.4981 25.5695L34.5334 25.4316L34.5673 25.2933L34.5997 25.1546L34.6308 25.0159L34.6604 24.8768L34.6884 24.7378L34.715 24.5982L34.7402 24.4589L34.7639 24.3191L34.7862 24.1792L34.8069 24.0393L34.8264 23.8991L34.8442 23.7591L34.8607 23.6185L34.8756 23.4784L34.8892 23.3378L34.9012 23.1975L34.9118 23.0568L34.9209 22.9166L34.9286 22.776L34.9348 22.6353L34.9396 22.4949L34.943 22.3548L34.9448 22.2142L34.9453 22.0738L34.9443 21.9336L34.9418 21.7935L34.9379 21.6535L34.9325 21.5139L34.9257 21.3738L34.9175 21.2344L34.9077 21.0949L34.8967 20.9559L34.8841 20.8166L34.8702 20.678L34.8548 20.5393L34.838 20.401L34.8198 20.2628L34.8002 20.1251L34.779 19.9873L34.7566 19.8501L34.7328 19.7134L34.7075 19.5765L34.6808 19.4402L34.6528 19.3044L34.6233 19.1684L34.5926 19.0335L34.5603 18.8984L34.5269 18.7643L34.4918 18.6299L34.4555 18.4965L34.4179 18.3634L34.3789 18.2304L34.3386 18.0984L34.297 17.9667L34.2538 17.8352L34.2096 17.7046L34.1638 17.5742L34.117 17.4445L34.0686 17.3152L34.0191 17.1867L33.9681 17.0584L33.9159 16.9309L33.8625 16.8042L33.8079 16.678L33.7516 16.552L33.6946 16.4272L33.6359 16.3025L33.5762 16.1789L33.5152 16.0558L33.4529 15.9332L33.3895 15.8115L33.3248 15.6904L33.2588 15.5699L33.1919 15.4505L33.1236 15.3315L33.0541 15.2134L32.9834 15.0958L32.9118 14.9794L32.8386 14.8634L32.7646 14.7484L32.6893 14.6339L32.6129 14.5204L32.5356 14.408L32.4568 14.296L32.3771 14.185L32.2963 14.0748L32.2144 13.9656L32.1314 13.8571L32.0474 13.7496L31.9623 13.6429L31.8762 13.5372L31.789 13.4324L31.7007 13.3284L31.6115 13.2254L31.5213 13.1233L31.4302 13.0222L31.338 12.922L31.2446 12.8226L31.1507 12.7246L31.0553 12.6272L30.9595 12.5311L30.8625 12.4357L30.7647 12.3415L30.6657 12.2481L30.5662 12.1561L30.4655 12.0648L30.364 11.9746L30.2619 11.8856L30.1588 11.7976L30.0545 11.7105L29.9497 11.6245L29.8441 11.5397L29.7376 11.456L29.6303 11.3733L29.5225 11.2919L29.4134 11.2112L29.304 11.132L29.1937 11.0538L29.0825 10.9766L28.9709 10.9007L28.8581 10.8257L28.7453 10.7523L28.6312 10.6796L28.5168 10.6083L28.4014 10.538L28.2856 10.4689L28.1691 10.4011L28.0522 10.3345L27.9342 10.2688L27.8162 10.2046L27.6972 10.1414L27.5777 10.0795L27.4577 10.0189L27.3371 9.95936L27.2159 9.901L27.0943 9.844L26.9721 9.78809L26.8496 9.73354L26.7265 9.68009L26.5989 9.62627L26.479 9.57709L26.3542 9.52727L26.2296 9.479L26.1039 9.43163L25.9783 9.38581L25.8522 9.34109L25.7257 9.29772L25.5987 9.25545L25.4716 9.21463L25.344 9.175L25.2161 9.13663L25.0881 9.09963L24.9596 9.06378L24.8306 9.02916L24.7017 8.99595L24.5726 8.964L24.4427 8.93323L24.3132 8.90388L24.1831 8.8757L24.053 8.84888L23.9225 8.82328L23.7921 8.79902L23.6613 8.77602L23.5307 8.75436L23.3994 8.7339L23.2685 8.7148L23.1373 8.69697L23.0059 8.68041L22.8745 8.66516L22.7431 8.65121L22.6116 8.63854L22.4801 8.62716L22.3484 8.61706L22.2166 8.60824L22.0853 8.60073L21.9538 8.5945L21.8218 8.58955L21.6906 8.5859L21.5592 8.58351L21.4278 8.58242L21.2962 8.5826L21.2698 8.5829L21.3113 12.0576L21.3859 12.0573L21.482 12.0578L21.578 12.0593L21.6742 12.0617L21.7704 12.0651L21.8666 12.0695L21.9629 12.0747L22.0592 12.0809L22.1555 12.0881L22.2518 12.0962L22.3481 12.1053L22.4444 12.1153L22.5407 12.1263L22.6369 12.1382L22.733 12.151L22.8292 12.1649L22.9252 12.1796L23.0212 12.1954L23.1171 12.2121L23.2129 12.2297L23.3086 12.2484L23.4042 12.2679L23.4997 12.2884L23.595 12.3098L23.6901 12.3323L23.7851 12.3556L23.8799 12.3799L23.9746 12.4052L24.0691 12.4314L24.1634 12.4585L24.2575 12.4866L24.3513 12.5156L24.4449 12.5456L24.5383 12.5765L24.6315 12.6084L24.7243 12.6413L24.817 12.675L24.9093 12.7096L25.0014 12.7453L25.0931 12.7818L25.1846 12.8193L25.2757 12.8577L25.3665 12.897L25.457 12.9373L25.5471 12.9784L25.6368 13.0204L25.7263 13.0634L25.8153 13.1074L25.9039 13.1522L25.9922 13.1979L26.08 13.2444L26.1674 13.292L26.2544 13.3404L26.3409 13.3896L26.4271 13.4398L26.5128 13.4909L26.5979 13.5428L26.6826 13.5956L26.7668 13.6494L26.8506 13.7039L26.9338 13.7593L27.0166 13.8155L27.0988 13.8727L27.1805 13.9306L27.2616 13.9894L27.3422 14.0492L27.4223 14.1096L27.5017 14.171L27.5806 14.2332L27.6589 14.2961L27.7366 14.3599L27.8137 14.4245L27.8903 14.4899L27.9662 14.5561L28.0414 14.6231L28.116 14.6909L28.1899 14.7595L28.2633 14.8288L28.3359 14.8989L28.4078 14.9698L28.4792 15.0415L28.5497 15.1139L28.6197 15.187L28.6888 15.2609L28.7573 15.3355L28.8251 15.4109L28.8921 15.4869L28.9584 15.5637L29.0239 15.6412L29.0888 15.7194L29.1528 15.7983L29.216 15.8778L29.2785 15.9581L29.3402 16.039L29.4011 16.1206L29.4611 16.2028L29.5204 16.2857L29.5789 16.3693L29.6365 16.4535L29.6933 16.5383L29.7493 16.6236L29.8044 16.7097L29.8587 16.7964L29.9121 16.8835L29.9647 16.9714L30.0163 17.0598L30.0671 17.1487L30.117 17.2383L30.166 17.3284L30.2142 17.419L30.2614 17.5102L30.3077 17.6019L30.3531 17.6942L30.3976 17.7869L30.4411 17.8801L30.4836 17.9739L30.5253 18.0681L30.566 18.1628L30.6058 18.258L30.6446 18.3536L30.6824 18.4497L30.7192 18.5462L30.7551 18.6432L30.79 18.7405L30.824 18.8384L30.8569 18.9365L30.8888 19.0352L30.9197 19.1341L30.9497 19.2334L30.9786 19.3332L31.0065 19.4333L31.0334 19.5337L31.0593 19.6344L31.0841 19.7355L31.1079 19.8369L31.1307 19.9386L31.1524 20.0406L31.1731 20.1429L31.1927 20.2454L31.2113 20.3484L31.2288 20.4515L31.2453 20.5547L31.2607 20.6584L31.2751 20.7621L31.2884 20.8661L31.3006 20.9704L31.3117 21.0748L31.3218 21.1794L31.3308 21.2842L31.3387 21.3891L31.3456 21.4942L31.3512 21.5994L31.3559 21.7047L31.3595 21.8103L31.362 21.9158L31.3633 22.0215L31.3636 22.1274L31.3628 22.2332L31.3609 22.3391L31.3578 22.4451L31.3537 22.5512L31.3485 22.6572L31.3422 22.7633L31.3348 22.8694L31.3263 22.9755L31.3166 23.0816L31.3058 23.1877L31.2939 23.2937L31.281 23.3998L31.2669 23.5057L31.2517 23.6116L31.2354 23.7174L31.218 23.8232L31.1995 23.9288L31.1799 24.0344L31.1592 24.1398L31.1373 24.2451L31.1143 24.3503L31.0903 24.4553L31.0651 24.5601L31.0389 24.6647L31.0115 24.7693L30.983 24.8735L30.9534 24.9776L30.9228 25.0814L30.891 25.1851L30.8581 25.2885L30.8241 25.3917L30.789 25.4945L30.7528 25.5972L30.7157 25.6995L30.6773 25.8015L30.6378 25.9033L30.5974 26.0047L30.5558 26.1058L30.5131 26.2066L30.4694 26.307L30.4246 26.4071L30.3787 26.5068L30.3317 26.6061L30.2838 26.705L30.2347 26.8035L30.1845 26.9016L30.1333 26.9994L30.0812 27.0965L30.0279 27.1934L29.9736 27.2897L29.9183 27.3856L29.8619 27.481L29.8045 27.576L29.7461 27.6704L29.6866 27.7644L29.6261 27.8577L29.5647 27.9506L29.5021 28.0429L29.4387 28.1347L29.3742 28.226L29.3088 28.3166L29.2423 28.4067L29.1749 28.4963L29.1065 28.5852L29.0371 28.6734L28.9668 28.7611L28.8955 28.8482L28.8232 28.9345L28.7501 29.0204L28.6759 29.1054L28.6008 29.1899L28.5248 29.2736L28.4479 29.3567L28.3701 29.4391L28.2915 29.5208L28.2118 29.6017L28.1313 29.682L28.0498 29.7614L27.9676 29.8403L27.8844 29.9183L27.8004 29.9954L27.7156 30.072L27.6298 30.1476L27.5432 30.2225L27.4558 30.2967L27.3676 30.37L27.2785 30.4425L27.1887 30.5142L27.098 30.585L27.0065 30.655L26.9143 30.7242L26.8213 30.7924L26.7275 30.8599L26.633 30.9265L26.5377 30.9922L26.4416 31.057L26.3447 31.1209L26.2472 31.1839L26.149 31.246L26.0501 31.3072L25.9504 31.3674L25.8501 31.4267L25.7491 31.4851L25.6474 31.5424L25.5451 31.5989L25.4421 31.6544L25.3384 31.709L25.2341 31.7625L25.1292 31.8151L25.0237 31.8666L24.9176 31.9173L24.8109 31.9668L24.7036 32.0154L24.5957 32.0629L24.4873 32.1095L24.3783 32.1549L24.2687 32.1994L24.1587 32.2428L24.0481 32.2852L23.937 32.3265L23.8254 32.3668L23.7134 32.406L23.6007 32.4441L23.4878 32.4812L23.3742 32.5171L23.2603 32.552L23.146 32.5858L23.0312 32.6185L22.916 32.6501L22.8003 32.6805L22.6843 32.7099L22.568 32.7382L22.4512 32.7654L22.334 32.7914L22.2166 32.8163L22.0988 32.84L21.9807 32.8626L21.8623 32.8842L21.7436 32.9045L21.6245 32.9237L21.5053 32.9417L21.3858 32.9586L21.2659 32.9744L21.1459 32.989L21.0257 33.0024L20.9052 33.0146L20.7845 33.0257L20.6636 33.0356L20.5426 33.0444L20.4214 33.0519L20.3 33.0583L20.1785 33.0634L20.0568 33.0674L19.935 33.0703L19.8131 33.0719L19.6911 33.0724L19.5691 33.0716L19.447 33.0696L19.3248 33.0665L19.2025 33.0622L19.0803 33.0566L18.958 33.0499L18.8358 33.042L18.7134 33.0329L18.5912 33.0225L18.469 33.011L18.3467 32.9983L18.2246 32.9844L18.1026 32.9693L17.9805 32.9529L17.8587 32.9354L17.7369 32.9166L17.6152 32.8967L17.4936 32.8755L17.3722 32.8533L17.251 32.8297L17.1299 32.8049L17.009 32.779L16.8883 32.7519L16.7678 32.7235L16.6475 32.694L16.5275 32.6633L16.4076 32.6314L16.2881 32.5983L16.1688 32.564L16.0498 32.5285L15.9311 32.4919L15.8127 32.454L15.6947 32.415L15.5768 32.3748L15.4595 32.3335L15.3424 32.2909L15.2257 32.2472L15.1094 32.2023L14.9935 32.1563L14.878 32.109L14.7629 32.0606L14.6482 32.0112L14.5341 31.9604L14.4203 31.9086L14.307 31.8557L14.1942 31.8016L14.0819 31.7464L13.97 31.69L13.8587 31.6325L13.748 31.5739L13.6377 31.5142L13.528 31.4534L13.4189 31.3914L13.3103 31.3284L13.2024 31.2642L13.095 31.1989L12.9882 31.1326L12.8821 31.0652L12.7766 30.9967L12.6718 30.9271L12.5676 30.8564L12.464 30.7848L12.3612 30.7121L12.259 30.6383L12.1576 30.5634L12.0568 30.4875L11.9568 30.4106L11.8575 30.3327L11.759 30.2537L11.6612 30.1738L11.5642 30.0928L11.468 30.0109L11.3726 29.9279L11.2779 29.844L11.184 29.7591L11.0911 29.6733L10.9989 29.5864L10.9075 29.4986L10.8171 29.4099L10.7275 29.3203L10.6388 29.2296L10.5509 29.1382L10.4639 29.0457L10.378 28.9524L10.2928 28.8582L10.2086 28.7631L10.1253 28.6671L10.0429 28.5703L9.96164 28.4725L9.88116 28.3739L9.80178 28.2745L9.72332 28.1743L9.64586 28.0732L9.56941 27.9713L9.49387 27.8686L9.41943 27.7651L9.3461 27.6608L9.27367 27.5557L9.20235 27.4499L9.13209 27.3434L9.06288 27.236L8.99473 27.1279L8.92767 27.0191L8.8617 26.9095L8.79682 26.7994L8.73304 26.6884L8.67037 26.5768L8.60882 26.4645L8.5484 26.3515L8.48911 26.2379L8.43096 26.1236L8.37396 26.0087L8.31812 25.8932L8.26344 25.7771L8.20994 25.6603L8.1576 25.543L8.10646 25.4251L8.0565 25.3065L8.00774 25.1875L7.96019 25.068L7.91385 24.9478L7.86872 24.8272L7.82481 24.7061L7.78213 24.5844L7.74069 24.4623L7.70049 24.3396L7.66153 24.2165L7.62383 24.0931L7.58738 23.9691L7.55219 23.8447L7.51827 23.7199L7.48563 23.5946L7.45426 23.4691L7.42416 23.3431L7.39537 23.2167L7.36786 23.09L7.34164 22.963L7.31673 22.8356L7.29312 22.7079L7.27081 22.5799L7.24983 22.4516L7.23015 22.3231L7.21179 22.1943L7.19477 22.0652L7.17906 21.9358L7.16469 21.8063L7.15164 21.6765L7.13993 21.5465L7.12957 21.4164L7.12054 21.2861L7.11285 21.1555L7.10651 21.0249L7.10152 20.8942L7.09789 20.7633L7.0956 20.6323L7.09466 20.5011L7.09509 20.3699L7.09687 20.2386L7.10002 20.1074L7.10452 19.976L7.11038 19.8445L7.11762 19.7132L7.12621 19.5817L7.13617 19.4504L7.14748 19.3189L7.16017 19.1876L7.17424 19.0563L7.18966 18.9251L7.20645 18.7939L7.2246 18.6628L7.24412 18.5318L7.26502 18.401L7.28727 18.2703L7.31089 18.1397L7.33588 18.0093L7.36223 17.879L7.38993 17.749L7.41901 17.6191L7.44944 17.4894L7.48123 17.36L7.51438 17.2308L7.54889 17.1019L7.58474 16.9732L7.62195 16.8448L7.66051 16.7167L7.70041 16.5889L7.74167 16.4614L7.78426 16.3343L7.82819 16.2074L7.87347 16.081L7.92007 15.9549L7.968 15.8292L8.01726 15.7039L8.06785 15.579L8.11975 15.4545L8.17298 15.3305L8.22751 15.2069L8.28336 15.0838L8.3405 14.9612L8.39895 14.839L8.45869 14.7174L8.51973 14.5963L8.58206 14.4756L8.64566 14.3556L8.71054 14.2361L8.7767 14.1172L8.84413 13.9988L8.9128 13.881L8.98275 13.7639L9.05394 13.6474L9.12637 13.5315L9.20006 13.4162L9.27495 13.3015L9.35113 13.1876L9.42841 13.0744L9.50706 12.9618L9.5868 12.8499L9.66774 12.7387L9.74996 12.6284L9.83328 12.5186L9.91788 12.4097L10.0036 12.3015L10.0905 12.1942L10.1785 12.0876L10.2676 11.9818L10.358 11.8768L10.4495 11.7726L10.542 11.6694L10.6358 11.5669L10.7306 11.4653L10.8265 11.3645L10.9236 11.2646L11.0216 11.1657L11.1208 11.0676L11.221 10.9704L11.3224 10.8743L11.4247 10.7789L11.5281 10.6846L11.6326 10.5912L11.7381 10.4988L11.8444 10.4074L11.9519 10.3169L12.0604 10.2275L12.1698 10.139L12.2803 10.0515L12.3917 9.96518L12.504 9.87981L12.6173 9.79554L12.7316 9.71227L12.8467 9.63009L12.9627 9.549L13.0797 9.469L13.1975 9.39009L13.3162 9.31236L13.4358 9.23563L13.5562 9.16009L13.6775 9.08567L13.7997 9.01239L13.9226 8.94026L14.0463 8.8693L14.171 8.7995L14.2963 8.73087L14.4224 8.66344L14.5493 8.5972L14.6769 8.53217L14.8053 8.46834L14.9344 8.40573L15.0642 8.34435L15.1948 8.2842L15.326 8.2253L15.4579 8.16763L15.5905 8.11123L15.7237 8.0561L15.8575 8.00222L15.992 7.94963L16.1271 7.89832L16.2628 7.8483L16.3991 7.79959L16.536 7.75217L16.6734 7.70606L16.8114 7.66127L16.9498 7.6178L17.0889 7.57566L17.2285 7.53485L17.3685 7.49539L17.509 7.45726L17.65 7.42049L17.7914 7.38507L17.9334 7.35101L18.0756 7.31833L18.2184 7.287L18.3615 7.25706L18.505 7.2285L18.6489 7.20132L18.7931 7.17553L18.9377 7.15113L19.0826 7.12813L19.2278 7.10653L19.3733 7.08634L19.5191 7.06755L19.5734 7.06108ZM19.635 12.2148L19.593 8.7019L19.4736 8.71848L19.3451 8.7376L19.2166 8.75799L19.0888 8.77954L18.9609 8.80241L18.8337 8.82646L18.7067 8.85174L18.5801 8.8782L18.4539 8.90592L18.3279 8.93487L18.2023 8.965L18.0772 8.99633L17.9522 9.02891L17.8322 9.06145L17.7043 9.09754L17.5808 9.13363L17.4578 9.1709L17.3355 9.20927L17.2134 9.2489L17.0918 9.28972L16.9708 9.33163L16.8504 9.37463L16.7305 9.4189L16.6111 9.46418L16.4921 9.51072L16.3741 9.55827L16.2561 9.60709L16.139 9.6569L16.0224 9.70781L15.9067 9.75981L15.7913 9.813L15.6764 9.86727L15.5626 9.92245L15.449 9.9789L15.3366 10.0363L15.2243 10.0949L15.1132 10.1543L15.0022 10.2151L14.8923 10.2765L14.7832 10.3392L14.6746 10.4029L14.5668 10.4675L14.4596 10.5334L14.3535 10.5999L14.2479 10.6676L14.1432 10.7363L14.0393 10.8058L13.9361 10.8764L13.8336 10.9481L13.7322 11.0204L13.6314 11.0939L13.5314 11.1683L13.4323 11.2435L13.3342 11.3196L13.2367 11.3968L13.1403 11.4747L13.0447 11.5535L12.9498 11.6335L12.8562 11.7139L12.7631 11.7955L12.671 11.8778L12.5799 11.9609L12.4898 12.0448L12.4004 12.1297L12.3122 12.2152L12.2249 12.3015L12.1384 12.3888L12.0529 12.4767L11.9684 12.5655L11.8849 12.655L11.8024 12.7452L11.7208 12.8362L11.6402 12.928L11.5609 13.0203L11.4823 13.1134L11.4048 13.2074L11.3283 13.3018L11.253 13.3969L11.1785 13.4929L11.1051 13.5894L11.0328 13.6865L10.9616 13.7844L10.8913 13.8828L10.8223 13.9817L10.7543 14.0814L10.6872 14.1816L10.6213 14.2824L10.5566 14.3837L10.493 14.4856L10.4303 14.5883L10.3688 14.6912L10.3085 14.7947L10.2491 14.8988L10.1911 15.0032L10.134 15.1083L10.078 15.2139L10.0234 15.3197L9.9697 15.4263L9.91724 15.5332L9.86587 15.6404L9.8157 15.7482L9.76662 15.8563L9.71874 15.9648L9.67195 16.0737L9.62645 16.183L9.58204 16.2926L9.53873 16.4027L9.49662 16.5131L9.45578 16.6237L9.41595 16.7348L9.3775 16.846L9.34005 16.9576L9.30389 17.0695L9.26882 17.1817L9.23504 17.2941L9.20235 17.4067L9.17094 17.5195L9.14065 17.6327L9.11157 17.746L9.08369 17.8595L9.05701 17.9733L9.03151 18.0871L9.0072 18.2012L8.98412 18.3154L8.96221 18.4296L8.9415 18.5442L8.92201 18.6587L8.90369 18.7735L8.88659 18.8881L8.87067 19.003L8.85596 19.1179L8.84245 19.2329L8.83014 19.3479L8.81902 19.463L8.8091 19.5781L8.80039 19.6931L8.79286 19.8083L8.78653 19.9234L8.78139 20.0384L8.77745 20.1534L8.7747 20.2683L8.77314 20.3832L8.77277 20.4981L8.77358 20.6128L8.77559 20.7274L8.77877 20.842L8.78313 20.9564L8.78868 21.0707L8.7954 21.1849L8.80329 21.2988L8.81236 21.4127L8.8226 21.5264L8.83401 21.6398L8.84658 21.7531L8.8603 21.8662L8.8752 21.9791L8.89124 22.0916L8.90845 22.2041L8.92679 22.3161L8.94628 22.428L8.96692 22.5396L8.98868 22.6508L9.01159 22.7619L9.03561 22.8725L9.06078 22.983L9.08704 23.0929L9.11445 23.2026L9.14296 23.312L9.17259 23.421L9.20326 23.5295L9.23513 23.6378L9.268 23.7456L9.30206 23.8531L9.33712 23.9602L9.37329 24.0667L9.41055 24.1728L9.44882 24.2785L9.48819 24.3838L9.52866 24.4886L9.57014 24.5929L9.61262 24.6967L9.6562 24.8001L9.70079 24.9029L9.74648 25.0052L9.79308 25.107L9.84079 25.2082L9.88949 25.3089L9.93912 25.4091L9.98984 25.5086L10.0415 25.6077L10.0941 25.7062L10.1478 25.804L10.2023 25.9013L10.2579 25.9979L10.3144 26.0939L10.3719 26.1893L10.4303 26.2841L10.4897 26.3782L10.5499 26.4716L10.6112 26.5645L10.6731 26.6565L10.7362 26.7481L10.8 26.8388L10.8649 26.9289L10.9305 27.0183L10.9971 27.1069L11.0645 27.1948L11.1328 27.2821L11.2018 27.3685L11.2718 27.4543L11.3425 27.5393L11.4141 27.6235L11.4865 27.7069L11.5598 27.7897L11.6338 27.8715L11.7086 27.9527L11.7841 28.033L11.8605 28.1125L11.9376 28.1913L12.0155 28.2692L12.094 28.3463L12.1734 28.4225L12.2535 28.498L12.3342 28.5725L12.4158 28.6464L12.4979 28.7192L12.5808 28.7912L12.6644 28.8624L12.7486 28.9326L12.8335 29.0021L12.919 29.0705L13.0051 29.1382L13.0919 29.2049L13.1794 29.2708L13.2675 29.3357L13.356 29.3997L13.4452 29.4628L13.535 29.525L13.6254 29.5863L13.7164 29.6466L13.8078 29.706L13.8998 29.7644L13.9924 29.822L14.0854 29.8785L14.179 29.9342L14.2731 29.9888L14.3676 30.0424L14.4627 30.0952L14.5582 30.1469L14.6542 30.1977L14.7506 30.2475L14.8474 30.2963L14.9447 30.3442L15.0425 30.391L15.1406 30.4369L15.239 30.4817L15.338 30.5256L15.4371 30.5684L15.5367 30.6103L15.6367 30.6512L15.7371 30.691L15.8376 30.7298L15.9386 30.7676L16.0398 30.8044L16.1414 30.8403L16.2432 30.875L16.3454 30.9088L16.4477 30.9415L16.5504 30.9732L16.6533 31.0038L16.7564 31.0334L16.8597 31.0621L16.9632 31.0896L17.0669 31.1163L17.1709 31.1417L17.275 31.1662L17.3793 31.1896L17.4837 31.2121L17.5883 31.2334L17.6929 31.2537L17.7979 31.273L17.9027 31.2913L18.0078 31.3085L18.1129 31.3246L18.2181 31.3398L18.3234 31.3539L18.4287 31.367L18.5341 31.379L18.6395 31.39L18.7449 31.3999L18.8504 31.4088L18.9559 31.4166L19.0614 31.4235L19.1667 31.4293L19.2721 31.4341L19.3776 31.4378L19.4829 31.4405L19.5881 31.4422L19.6933 31.4428L19.7984 31.4424L19.9034 31.441L20.0084 31.4386L20.1131 31.4352L20.2178 31.4307L20.3223 31.4252L20.4267 31.4187L20.5309 31.4112L20.635 31.4026L20.7388 31.3931L20.8425 31.3825L20.9461 31.371L21.0494 31.3584L21.1525 31.3449L21.2553 31.3304L21.3579 31.3149L21.4603 31.2984L21.5623 31.2809L21.6642 31.2624L21.7657 31.2429L21.867 31.2225L21.9681 31.2011L22.0686 31.1787L22.1689 31.1555L22.2689 31.1311L22.3686 31.1059L22.468 31.0797L22.567 31.0525L22.6656 31.0245L22.7638 30.9954L22.8616 30.9655L22.959 30.9346L23.0561 30.9028L23.1527 30.8701L23.249 30.8364L23.3447 30.8019L23.4401 30.7664L23.5349 30.7301L23.6293 30.6928L23.7233 30.6546L23.8168 30.6156L23.9097 30.5757L24.0023 30.535L24.0942 30.4934L24.1858 30.4508L24.2768 30.4075L24.3671 30.3634L24.4572 30.3182L24.5464 30.2724L24.6353 30.2255L24.7234 30.1781L24.8111 30.1297L24.8983 30.0805L24.9847 30.0305L25.0707 29.9797L25.156 29.9282L25.2406 29.8758L25.3249 29.8226L25.4082 29.7688L25.4911 29.7141L25.5734 29.6585L25.6549 29.6024L25.7356 29.5455L25.816 29.4877L25.8955 29.4294L25.9744 29.3703L26.0527 29.3104L26.1299 29.2499L26.2069 29.1885L26.2831 29.1265L26.3583 29.064L26.4332 29.0004L26.5071 28.9365L26.5802 28.872L26.6529 28.8064L26.7245 28.7406L26.7956 28.674L26.8659 28.6067L26.9353 28.5389L27.0041 28.4704L27.0721 28.4013L27.1393 28.3315L27.2056 28.2613L27.2712 28.1904L27.3361 28.1189L27.4 28.047L27.4634 27.9743L27.5258 27.9012L27.5873 27.8275L27.6482 27.7532L27.708 27.6786L27.7672 27.6033L27.8255 27.5275L27.883 27.4512L27.9396 27.3744L27.9953 27.2974L28.0503 27.2194L28.1043 27.1414L28.1575 27.0627L28.21 26.9835L28.2612 26.9042L28.312 26.8242L28.3617 26.7437L28.4106 26.663L28.4585 26.5818L28.5057 26.5001L28.5518 26.4184L28.5972 26.3358L28.6416 26.2532L28.685 26.1702L28.7277 26.0865L28.7693 26.0031L28.8102 25.9187L28.85 25.8346L28.8892 25.7496L28.9271 25.6648L28.9643 25.5793L29.0006 25.4938L29.0358 25.408L29.0703 25.3218L29.1038 25.2354L29.1362 25.1489L29.1679 25.0619L29.1985 24.9748L29.2283 24.8875L29.2571 24.8L29.2851 24.7122L29.3121 24.6243L29.3381 24.5363L29.3632 24.4479L29.3872 24.3595L29.4105 24.2709L29.4327 24.1822L29.4541 24.0934L29.4745 24.0043L29.4939 23.9152L29.5125 23.826L29.53 23.7368L29.5466 23.6474L29.5623 23.5577L29.577 23.4684L29.5909 23.3787L29.6037 23.289L29.6156 23.1994L29.6266 23.1097L29.6366 23.0197L29.6457 22.9304L29.6539 22.8403L29.6612 22.7505L29.6674 22.661L29.6728 22.5712L29.6772 22.4815L29.6807 22.392L29.6832 22.3022L29.6848 22.2129L29.6855 22.1233L29.6853 22.0339L29.6842 21.9445L29.6821 21.8555L29.679 21.7664L29.6751 21.6774L29.6702 21.5887L29.6645 21.4998L29.6578 21.4112L29.6503 21.323L29.6418 21.2345L29.6323 21.1466L29.622 21.0585L29.6108 20.9709L29.5987 20.8834L29.5857 20.7959L29.5718 20.7088L29.5571 20.622L29.5414 20.5354L29.5248 20.449L29.5074 20.3625L29.489 20.2767L29.4699 20.1912L29.4499 20.1057L29.4289 20.0205L29.4072 19.9359L29.3845 19.8511L29.361 19.767L29.3367 19.683L29.3115 19.5995L29.2855 19.5162L29.2586 19.4332L29.2309 19.3507L29.2025 19.2685L29.173 19.1864L29.143 19.1051L29.1119 19.0239L29.0801 18.9433L29.0476 18.8628L29.0141 18.7827L28.98 18.7034L28.9449 18.6241L28.9092 18.5454L28.8727 18.4673L28.8353 18.3893L28.7971 18.3117L28.7584 18.2349L28.7187 18.1583L28.6784 18.0824L28.6373 18.0069L28.5953 17.9315L28.5529 17.8571L28.5095 17.7829L28.4654 17.7094L28.4206 17.6361L28.3752 17.5636L28.3289 17.4914L28.2821 17.4199L28.2345 17.3489L28.1863 17.2784L28.1372 17.2084L28.0876 17.139L28.0374 17.0703L27.9863 17.0018L27.9347 16.9342L27.8824 16.867L27.8296 16.8005L27.776 16.7344L27.7218 16.6691L27.6669 16.6043L27.6115 16.54L27.5556 16.4765L27.4988 16.4134L27.4417 16.3512L27.3838 16.2894L27.3256 16.2285L27.2665 16.1678L27.207 16.1081L27.1468 16.0487L27.0862 15.9903L27.0251 15.9324L26.9634 15.8752L26.9011 15.8185L26.8382 15.7627L26.775 15.7075L26.711 15.6528L26.647 15.5992L26.5821 15.5458L26.5168 15.4934L26.451 15.4416L26.3848 15.3904L26.3181 15.34L26.2512 15.2904L26.1834 15.2414L26.1152 15.1929L26.047 15.1455L25.9779 15.0985L25.9088 15.0526L25.8392 15.0072L25.769 14.9625L25.6984 14.9185L25.6278 14.8754L25.5563 14.8328L25.4848 14.7912L25.4127 14.7501L25.3406 14.71L25.2679 14.6705L25.1949 14.6317L25.1215 14.5937L25.048 14.5566L24.974 14.5201L24.8997 14.4844L24.8252 14.4495L24.7506 14.4154L24.6752 14.3818L24.6001 14.3493L24.5245 14.3174L24.4485 14.2863L24.3724 14.256L24.2962 14.2265L24.2197 14.1978L24.1427 14.1697L24.0659 14.1426L23.9886 14.1162L23.9111 14.0905L23.8338 14.0657L23.756 14.0417L23.6783 14.0184L23.5999 13.9959L23.5218 13.9743L23.4435 13.9534L23.3651 13.9333L23.2865 13.9139L23.2076 13.8954L23.1288 13.8776L23.0501 13.8607L22.971 13.8445L22.8917 13.8291L22.8129 13.8146L22.7335 13.8008L22.6543 13.7878L22.5747 13.7755L22.4956 13.7642L22.4159 13.7535L22.3367 13.7437L22.2572 13.7346L22.1777 13.7264L22.0984 13.7189L22.0188 13.7122L21.9396 13.7063L21.8599 13.7012L21.7806 13.6968L21.7015 13.6933L21.6219 13.6905L21.5429 13.6884L21.4638 13.6873L21.3847 13.6868L21.3307 13.687L21.3717 17.1192L21.3961 17.1193L21.4415 17.1199L21.487 17.121L21.5326 17.1224L21.5782 17.1245L21.6239 17.127L21.6696 17.1299L21.7154 17.1334L21.7611 17.1373L21.807 17.1416L21.8529 17.1465L21.8988 17.1517L21.9447 17.1575L21.9906 17.1638L22.0366 17.1705L22.0825 17.1778L22.1285 17.1855L22.1743 17.1937L22.2203 17.2025L22.2662 17.2115L22.3121 17.2213L22.3579 17.2314L22.4038 17.242L22.4495 17.2531L22.4953 17.2646L22.5409 17.2767L22.5865 17.2893L22.6321 17.3023L22.6776 17.3158L22.7231 17.3298L22.7684 17.3444L22.8137 17.3594L22.8588 17.3748L22.904 17.3907L22.9489 17.4072L22.9938 17.4241L23.0386 17.4415L23.0833 17.4594L23.1277 17.4777L23.1722 17.4965L23.2165 17.5159L23.2606 17.5357L23.3046 17.556L23.3485 17.5768L23.3922 17.598L23.4358 17.6197L23.4791 17.642L23.5223 17.6646L23.5653 17.6878L23.6082 17.7115L23.6508 17.7355L23.6933 17.7601L23.7355 17.7851L23.7776 17.8106L23.8195 17.8366L23.8611 17.8631L23.9025 17.8899L23.9437 17.9173L23.9847 17.9452L24.0255 17.9734L24.0659 18.0022L24.1062 18.0314L24.1462 18.061L24.186 18.0911L24.2254 18.1216L24.2647 18.1526L24.3036 18.1841L24.3423 18.2159L24.3807 18.2483L24.4188 18.281L24.4566 18.3142L24.4942 18.3478L24.5313 18.3819L24.5682 18.4164L24.6048 18.4513L24.6411 18.4866L24.677 18.5224L24.7126 18.5585L24.748 18.5951L24.7829 18.6321L24.8175 18.6695L24.8517 18.7074L24.8857 18.7455L24.9192 18.7842L24.9523 18.8232L24.9852 18.8625L25.0176 18.9024L25.0497 18.9425L25.0813 18.9831L25.1126 19.0241L25.1436 19.0654L25.1741 19.1071L25.2041 19.1491L25.2339 19.1915L25.2632 19.2344L25.292 19.2775L25.3205 19.321L25.3486 19.3649L25.3761 19.4091L25.4033 19.4536L25.4301 19.4985L25.4564 19.5437L25.4823 19.5893L25.5076 19.6352L25.5326 19.6814L25.5572 19.7279L25.5811 19.7747L25.6048 19.8218L25.6278 19.8693L25.6505 19.9171L25.6726 19.9651L25.6943 20.0135L25.7156 20.0621L25.7362 20.111L25.7565 20.1602L25.7762 20.2096L25.7954 20.2594L25.8142 20.3094L25.8324 20.3596L25.8501 20.4102L25.8673 20.4609L25.8839 20.5119L25.9 20.5632L25.9157 20.6146L25.9308 20.6664L25.9454 20.7184L25.9595 20.7704L25.973 20.8228L25.9859 20.8754L25.9984 20.9283L26.0103 20.9812L26.0216 21.0344L26.0324 21.0878L26.0426 21.1413L26.0523 21.1951L26.0615 21.249L26.0701 21.303L26.078 21.3573L26.0855 21.4116L26.0923 21.4662L26.0986 21.5209L26.1044 21.5757L26.1095 21.6306L26.1141 21.6857L26.1181 21.741L26.1215 21.7963L26.1244 21.8517L26.1266 21.9073L26.1283 21.9629L26.1293 22.0186L26.1299 22.0744L26.1297 22.1303L26.129 22.1863L26.1278 22.2424L26.1258 22.2984L26.1234 22.3546L26.1202 22.4108L26.1166 22.4671L26.1123 22.5234L26.1073 22.5797L26.1018 22.6361L26.0958 22.6924L26.089 22.7488L26.0817 22.8053L26.0738 22.8617L26.0653 22.9181L26.0562 22.9744L26.0464 23.0308L26.036 23.0872L26.025 23.1435L26.0135 23.1998L26.0012 23.2561L25.9884 23.3123L25.975 23.3684L25.9609 23.4245L25.9463 23.4806L25.9311 23.5365L25.9152 23.5924L25.8987 23.6482L25.8815 23.7039L25.8639 23.7595L25.8456 23.815L25.8266 23.8704L25.8071 23.9257L25.7869 23.9808L25.7661 24.0359L25.7448 24.0907L25.7228 24.1455L25.7002 24.2001L25.677 24.2545L25.6532 24.3088L25.6288 24.363L25.6038 24.4169L25.5781 24.4706L25.5518 24.5243L25.5251 24.5776L25.4976 24.6308L25.4696 24.6838L25.441 24.7365L25.4118 24.7891L25.382 24.8414L25.3516 24.8935L25.3206 24.9454L25.2891 24.997L25.2568 25.0485L25.2242 25.0995L25.1908 25.1504L25.1569 25.201L25.1224 25.2513L25.0874 25.3014L25.0518 25.3511L25.0155 25.4005L24.9788 25.4497L24.9414 25.4985L24.9035 25.5471L24.8651 25.5954L24.8261 25.6433L24.7865 25.6908L24.7464 25.7381L24.7058 25.785L24.6645 25.8315L24.6227 25.8777L24.5804 25.9236L24.5376 25.9691L24.4943 26.0142L24.4503 26.059L24.4059 26.1034L24.3609 26.1473L24.3155 26.1909L24.2695 26.2341L24.223 26.2768L24.176 26.3192L24.1285 26.3612L24.0805 26.4027L24.032 26.4438L23.983 26.4844L23.9335 26.5247L23.8835 26.5645L23.833 26.6038L23.7821 26.6427L23.7308 26.6812L23.6788 26.7192L23.6266 26.7566L23.5737 26.7936L23.5205 26.8303L23.4668 26.8663L23.4127 26.9019L23.3581 26.9369L23.3031 26.9715L23.2476 27.0056L23.1917 27.0392L23.1354 27.0722L23.0788 27.1047L23.0216 27.1367L22.964 27.1682L22.9062 27.1992L22.8479 27.2295L22.7892 27.2595L22.73 27.2887L22.6706 27.3175L22.6107 27.3457L22.5505 27.3734L22.49 27.4004L22.429 27.4269L22.3677 27.4529L22.3061 27.4783L22.2441 27.503L22.1818 27.5272L22.1191 27.5508L22.0561 27.5738L21.9929 27.5963L21.9293 27.6181L21.8654 27.6393L21.8012 27.6599L21.7368 27.6798L21.6721 27.6992L21.607 27.718L21.5417 27.7361L21.4761 27.7536L21.4103 27.7705L21.3442 27.7867L21.2778 27.8023L21.2112 27.8173L21.1444 27.8315L21.0774 27.8453L21.0101 27.8583L20.9426 27.8706L20.875 27.8824L20.807 27.8934L20.739 27.9038L20.6707 27.9135L20.6023 27.9226L20.5336 27.9311L20.4649 27.9388L20.3959 27.9458L20.3268 27.9523L20.2576 27.9579L20.1882 27.963L20.1186 27.9673L20.049 27.971L19.9792 27.974L19.9094 27.9763L19.8393 27.9778L19.7693 27.9787L19.6992 27.979L19.6289 27.9785L19.5586 27.9774L19.4882 27.9755L19.4178 27.9729L19.3473 27.9696L19.2767 27.9656L19.2061 27.961L19.1355 27.9556L19.0649 27.9495L18.9942 27.9427L18.9237 27.9353L18.853 27.927L18.7824 27.9181L18.7117 27.9084L18.6411 27.8982L18.5705 27.8871L18.5 27.8754L18.4295 27.8629L18.3591 27.8497L18.2887 27.8359L18.2184 27.8213L18.1482 27.806L18.078 27.7899L18.008 27.7732L17.9379 27.7558L17.8681 27.7376L17.7984 27.7187L17.7287 27.6992L17.6593 27.6789L17.5899 27.6579L17.5207 27.6362L17.4517 27.6138L17.3827 27.5907L17.3141 27.5669L17.2455 27.5424L17.1771 27.5171L17.109 27.4912L17.0409 27.4645L16.9732 27.4372L16.9056 27.4092L16.8383 27.3804L16.7712 27.351L16.7043 27.3209L16.6377 27.2901L16.5712 27.2585L16.5051 27.2264L16.4393 27.1934L16.3738 27.1599L16.3085 27.1256L16.2435 27.0907L16.1787 27.0551L16.1144 27.0188L16.0502 26.9818L15.9865 26.9442L15.923 26.9059L15.8599 26.8669L15.7971 26.8273L15.7347 26.787L15.6726 26.746L15.6109 26.7044L15.5496 26.6621L15.4887 26.6192L15.428 26.5756L15.3679 26.5314L15.3081 26.4865L15.2488 26.4411L15.1898 26.3949L15.1313 26.3482L15.0732 26.3008L15.0155 26.2528L14.9583 26.2042L14.9015 26.1549L14.8452 26.1051L14.7893 26.0546L14.7339 26.0035L14.679 25.9519L14.6246 25.8996L14.5706 25.8468L14.5172 25.7934L14.4643 25.7394L14.4118 25.6847L14.3599 25.6296L14.3086 25.5738L14.2577 25.5175L14.2074 25.4607L14.1577 25.4033L14.1084 25.3454L14.0597 25.2868L14.0116 25.2277L13.9641 25.1682L13.9172 25.1081L13.8707 25.0474L13.825 24.9863L13.7798 24.9246L13.7352 24.8624L13.6912 24.7997L13.6478 24.7365L13.605 24.6729L13.5629 24.6087L13.5214 24.5441L13.4805 24.479L13.4403 24.4135L13.4007 24.3474L13.3618 24.2809L13.3235 24.2139L13.2859 24.1465L13.2489 24.0787L13.2126 24.0105L13.177 23.9417L13.142 23.8726L13.1078 23.8032L13.0743 23.7332L13.0414 23.6629L13.0093 23.5922L12.9779 23.5211L12.9471 23.4495L12.9171 23.3777L12.8878 23.3054L12.8592 23.2329L12.8314 23.1599L12.8043 23.0866L12.778 23.013L12.7523 22.9391L12.7274 22.8648L12.7034 22.7902L12.68 22.7153L12.6574 22.6401L12.6355 22.5645L12.6145 22.4887L12.5942 22.4126L12.5746 22.3363L12.556 22.2596L12.538 22.1828L12.5208 22.1056L12.5044 22.0283L12.4888 21.9506L12.474 21.8728L12.46 21.7947L12.4468 21.7164L12.4345 21.638L12.4228 21.5593L12.412 21.4804L12.4021 21.4014L12.393 21.3222L12.3846 21.2427L12.3771 21.1632L12.3705 21.0835L12.3646 21.0036L12.3596 20.9236L12.3553 20.8435L12.352 20.7634L12.3494 20.683L12.3477 20.6025L12.3469 20.5221L12.3468 20.4414L12.3477 20.3607L12.3494 20.28L12.3519 20.1992L12.3553 20.1183L12.3595 20.0374L12.3645 19.9564L12.3704 19.8755L12.3771 19.7945L12.3847 19.7134L12.3932 19.6325L12.4025 19.5514L12.4127 19.4704L12.4236 19.3895L12.4356 19.3086L12.4483 19.2277L12.4619 19.1469L12.4763 19.0661L12.4916 18.9854L12.5078 18.9047L12.5248 18.8242L12.5427 18.7437L12.5614 18.6634L12.5809 18.5832L12.6014 18.503L12.6227 18.423L12.6449 18.3432L12.6678 18.2634L12.6916 18.1838L12.7164 18.1045L12.7419 18.0252L12.7683 17.9461L12.7956 17.8673L12.8237 17.7885L12.8526 17.7101L12.8824 17.6318L12.913 17.5538L12.9445 17.476L12.9768 17.3984L13.01 17.3211L13.044 17.244L13.0788 17.1672L13.1145 17.0906L13.151 17.0144L13.1883 16.9384L13.2264 16.8627L13.2653 16.7874L13.3052 16.7124L13.3457 16.6376L13.3872 16.5633L13.4294 16.4892L13.4725 16.4155L13.5163 16.3422L13.561 16.2692L13.6064 16.1965L13.6527 16.1244L13.6998 16.0524L13.7476 15.981L13.7962 15.91L13.8456 15.8394L13.8958 15.7692L13.9468 15.6994L13.9985 15.6301L14.051 15.5612L14.1043 15.4928L14.1583 15.4248L14.2132 15.3574L14.2687 15.2903L14.325 15.2238L14.382 15.1577L14.4398 15.0922L14.4983 15.0272L14.5575 14.9626L14.6175 14.8987L14.6782 14.8353L14.7396 14.7724L14.8017 14.71L14.8645 14.6482L14.928 14.5869L14.9922 14.5263L15.0571 14.4662L15.1227 14.4066L15.1889 14.3477L15.2558 14.2894L15.3235 14.2317L15.3917 14.1745L15.4606 14.1181L15.5301 14.0623L15.6004 14.007L15.6711 13.9524L15.7426 13.8985L15.8147 13.8453L15.8874 13.7926L15.9607 13.7407L16.0346 13.6894L16.1092 13.6388L16.1843 13.5889L16.2599 13.5397L16.3362 13.4913L16.4131 13.4434L16.4905 13.3964L16.5685 13.35L16.647 13.3044L16.7261 13.2594L16.8056 13.2153L16.8858 13.1718L16.9664 13.1292L17.0475 13.0873L17.1292 13.0461L17.2113 13.0057L17.294 12.9661L17.3771 12.9273L17.4607 12.8892L17.5448 12.8519L17.6293 12.8154L17.7144 12.7797L17.7998 12.7448L17.8856 12.7108L17.9719 12.6775L18.0586 12.6451L18.1457 12.6135L18.2332 12.5827L18.3212 12.5527L18.4095 12.5236L18.4982 12.4954L18.5872 12.4679L18.6766 12.4414L18.7664 12.4156L18.8565 12.3908L18.9469 12.3668L19.0376 12.3436L19.1287 12.3214L19.2201 12.3L19.3119 12.2795L19.4038 12.2599L19.4961 12.2412L19.5886 12.2234L19.635 12.2148ZM20.772 18.8151L19.7167 19.0654L19.6548 13.875L19.605 13.8861L19.5301 13.9036L19.4553 13.9219L19.3811 13.9408L19.3069 13.9605L19.2332 13.9808L19.1595 14.002L19.0865 14.0236L19.0134 14.0462L18.9411 14.0692L18.8687 14.0931L18.7968 14.1176L18.7252 14.1428L18.6538 14.1686L18.5832 14.1951L18.5126 14.2224L18.4423 14.2502L18.3726 14.2786L18.3029 14.3079L18.2341 14.3375L18.1654 14.3681L18.0973 14.3991L18.0292 14.4309L17.9618 14.4632L17.8946 14.4962L17.8282 14.5297L17.762 14.5639L17.6962 14.5987L17.6309 14.6341L17.566 14.6701L17.5016 14.7067L17.4378 14.7438L17.374 14.7817L17.311 14.82L17.2486 14.8589L17.1865 14.8984L17.1248 14.9384L17.0637 14.9791L17.0031 15.0203L16.943 15.0619L16.8835 15.1041L16.8242 15.1469L16.7656 15.1903L16.7076 15.2341L16.65 15.2785L16.593 15.3232L16.5366 15.3685L16.4806 15.4144L16.4251 15.4609L16.3704 15.5076L16.3161 15.555L16.2623 15.6027L16.2091 15.651L16.1565 15.6998L16.1045 15.749L16.053 15.7985L16.002 15.8487L15.9518 15.8992L15.902 15.9502L15.853 16.0015L15.8043 16.0534L15.7564 16.1055L15.709 16.1582L15.6623 16.2113L15.6162 16.2645L15.5706 16.3184L15.5258 16.3724L15.4814 16.4272L15.4378 16.482L15.3947 16.5374L15.3523 16.5931L15.3106 16.649L15.2694 16.7053L15.2289 16.7619L15.189 16.819L15.1497 16.8763L15.1112 16.934L15.0733 16.9918L15.036 17.05L14.9993 17.1086L14.9634 17.1674L14.928 17.2266L14.8933 17.2858L14.8593 17.3455L14.8259 17.4054L14.7933 17.4655L14.7612 17.5259L14.7299 17.5865L14.6992 17.6475L14.6692 17.7084L14.6398 17.7699L14.6112 17.8314L14.5832 17.8931L14.5559 17.955L14.5292 18.0172L14.5033 18.0794L14.478 18.1419L14.4535 18.2045L14.4295 18.2674L14.4063 18.3302L14.3838 18.3934L14.3619 18.4566L14.3408 18.52L14.3203 18.5835L14.3005 18.6472L14.2814 18.7109L14.2631 18.7746L14.2453 18.8386L14.2282 18.9027L14.2119 18.9668L14.1962 19.031L14.1812 19.0953L14.1669 19.1596L14.1534 19.2241L14.1405 19.2885L14.1282 19.3529L14.1167 19.4175L14.1059 19.482L14.0957 19.5465L14.0862 19.6113L14.0774 19.6757L14.0693 19.7404L14.0619 19.8049L14.0551 19.8695L14.0491 19.9343L14.0437 19.9987L14.039 20.0633L14.035 20.1278L14.0316 20.1922L14.0289 20.2565L14.0269 20.3208L14.0256 20.3852L14.0249 20.4494L14.025 20.5134L14.0256 20.5774L14.027 20.6415L14.029 20.7053L14.0317 20.769L14.035 20.8326L14.039 20.8961L14.0437 20.9594L14.049 21.0227L14.0549 21.0858L14.0615 21.1489L14.0688 21.2115L14.0766 21.2744L14.0852 21.3367L14.0944 21.3992L14.1042 21.4613L14.1146 21.5233L14.1257 21.5852L14.1374 21.6467L14.1498 21.7082L14.1627 21.7693L14.1764 21.8304L14.1905 21.8911L14.2054 21.9517L14.2208 22.0119L14.2369 22.0722L14.2534 22.1319L14.2707 22.1916L14.2885 22.2509L14.3069 22.3101L14.326 22.3689L14.3456 22.4274L14.3658 22.4858L14.3866 22.5438L14.4079 22.6014L14.4298 22.659L14.4523 22.7162L14.4754 22.773L14.499 22.8295L14.5231 22.8857L14.5479 22.9417L14.5732 22.9974L14.599 23.0526L14.6254 23.1075L14.6522 23.1621L14.6797 23.2165L14.7076 23.2704L14.736 23.3239L14.7651 23.3772L14.7946 23.43L14.8247 23.4825L14.8552 23.5347L14.8862 23.5864L14.9178 23.6378L14.9497 23.6888L14.9823 23.7394L15.0153 23.7896L15.0487 23.8394L15.0827 23.889L15.117 23.9378L15.1519 23.9865L15.1872 24.0347L15.223 24.0824L15.2593 24.1299L15.2959 24.1768L15.333 24.2233L15.3706 24.2694L15.4085 24.3151L15.4468 24.3602L15.4857 24.405L15.5249 24.4494L15.5645 24.4932L15.6047 24.5366L15.645 24.5795L15.6858 24.6221L15.727 24.6641L15.7685 24.7056L15.8105 24.7467L15.8528 24.7874L15.8955 24.8275L15.9385 24.8672L15.9819 24.9064L16.0257 24.9451L16.0697 24.9833L16.1141 25.021L16.1588 25.0583L16.2038 25.095L16.2492 25.1313L16.295 25.167L16.3409 25.2022L16.3872 25.2369L16.4338 25.2712L16.4807 25.3049L16.5278 25.3381L16.5753 25.3708L16.623 25.403L16.671 25.4346L16.7191 25.4657L16.7675 25.4964L16.8164 25.5265L16.8653 25.556L16.9145 25.5851L16.964 25.6136L17.0136 25.6415L17.0634 25.669L17.1136 25.696L17.1639 25.7224L17.2144 25.7482L17.265 25.7734L17.316 25.7983L17.3669 25.8224L17.4183 25.8462L17.4696 25.8694L17.5211 25.8919L17.5729 25.914L17.6248 25.9355L17.6767 25.9565L17.7289 25.977L17.7812 25.9968L17.8337 26.0162L17.8861 26.035L17.9389 26.0533L17.9916 26.0709L18.0444 26.0881L18.0974 26.1047L18.1505 26.1208L18.2036 26.1363L18.2568 26.1513L18.3102 26.1656L18.3636 26.1795L18.417 26.1928L18.4704 26.2056L18.5239 26.2178L18.5775 26.2294L18.6311 26.2406L18.6848 26.2512L18.7384 26.2613L18.7921 26.2707L18.8458 26.2797L18.8996 26.2881L18.9533 26.296L19.0069 26.3033L19.0606 26.31L19.1143 26.3163L19.168 26.322L19.2217 26.3271L19.2753 26.3317L19.3289 26.3358L19.3824 26.3394L19.4359 26.3424L19.4893 26.3448L19.5426 26.3468L19.5961 26.3482L19.6492 26.3491L19.7023 26.3494L19.7554 26.3493L19.8083 26.3486L19.8613 26.3474L19.9141 26.3456L19.9667 26.3434L20.0192 26.3406L20.0719 26.3374L20.1241 26.3335L20.1764 26.3293L20.2284 26.3244L20.2804 26.3192L20.3322 26.3133L20.3837 26.307L20.4354 26.3002L20.4867 26.2928L20.5377 26.285L20.5889 26.2767L20.6397 26.2679L20.6904 26.2586L20.7409 26.2488L20.7913 26.2385L20.8413 26.2278L20.8911 26.2166L20.9409 26.2049L20.9904 26.1927L21.0397 26.1802L21.0887 26.1671L21.1375 26.1535L21.1863 26.1395L21.2347 26.125L21.2827 26.1101L21.3308 26.0946L21.3784 26.0788L21.4259 26.0626L21.473 26.0459L21.5199 26.0287L21.5667 26.0111L21.6131 25.9931L21.6591 25.9746L21.705 25.9558L21.7506 25.9364L21.796 25.9167L21.8409 25.8966L21.8858 25.8761L21.9302 25.8552L21.9742 25.8338L22.0182 25.8121L22.0616 25.79L22.1049 25.7674L22.1478 25.7444L22.1904 25.7212L22.2326 25.6975L22.2746 25.6735L22.3163 25.649L22.3575 25.6242L22.3984 25.599L22.439 25.5735L22.4793 25.5476L22.5193 25.5214L22.5589 25.4948L22.5982 25.4678L22.6371 25.4405L22.6755 25.413L22.7137 25.385L22.7515 25.3567L22.789 25.3281L22.8261 25.2992L22.8629 25.2699L22.8991 25.2404L22.9351 25.2106L22.9706 25.1804L23.0058 25.15L23.0407 25.1193L23.0751 25.0882L23.1092 25.0569L23.1427 25.0254L23.176 24.9934L23.2089 24.9613L23.2414 24.9289L23.2734 24.8963L23.305 24.8633L23.3362 24.8302L23.3672 24.7966L23.3975 24.7631L23.4276 24.7291L23.4572 24.6949L23.4863 24.6606L23.5152 24.6259L23.5434 24.5912L23.5714 24.5561L23.599 24.5209L23.626 24.4854L23.6527 24.4497L23.6789 24.414L23.7048 24.3778L23.7302 24.3415L23.7551 24.3053L23.7796 24.2685L23.8038 24.2318L23.8273 24.1949L23.8506 24.1578L23.8734 24.1205L23.8957 24.0831L23.9177 24.0455L23.9391 24.0078L23.9602 23.97L23.9808 23.9319L24.0009 23.8939L24.0206 23.8556L24.0399 23.8173L24.0588 23.7788L24.0772 23.7401L24.0952 23.7014L24.1126 23.6626L24.1297 23.6238L24.1463 23.5847L24.1624 23.5457L24.1783 23.5064L24.1935 23.4674L24.2084 23.4277L24.2227 23.3887L24.2367 23.3491L24.2503 23.3095L24.2633 23.27L24.2759 23.2304L24.2881 23.1908L24.2999 23.1508L24.311 23.1114L24.322 23.0713L24.3324 23.0318L24.3424 22.9918L24.3519 22.9518L24.3609 22.9121L24.3696 22.8724L24.3778 22.8323L24.3856 22.7925L24.3929 22.7524L24.3998 22.7128L24.4063 22.673L24.4123 22.6331L24.4179 22.5932L24.423 22.5534L24.4278 22.5137L24.4321 22.4742L24.4359 22.4343L24.4394 22.3947L24.4424 22.3551L24.445 22.3155L24.4472 22.2761L24.4489 22.2367L24.4502 22.1975L24.4511 22.1581L24.4517 22.1187L24.4518 22.0797L24.4514 22.0407L24.4507 22.0018L24.4495 21.963L24.4479 21.924L24.4459 21.8857L24.4435 21.8466L24.4408 21.8085L24.4376 21.7703L24.434 21.7317L24.43 21.6936L24.4257 21.6559L24.4208 21.6176L24.4157 21.5802L24.4101 21.5424L24.4043 21.5053L24.3978 21.4677L24.3912 21.4304L24.3841 21.3935L24.3767 21.3567L24.3688 21.3198L24.3606 21.2834L24.3521 21.2469L24.3431 21.2107L24.3338 21.1748L24.324 21.1386L24.3142 21.1032L24.3037 21.0674L24.293 21.0322L24.2819 20.997L24.2705 20.9621L24.2587 20.9273L24.2465 20.8925L24.2341 20.8584L24.2213 20.8243L24.2081 20.7901L24.1947 20.7564L24.1809 20.7226L24.1668 20.6896L24.1523 20.6563L24.1376 20.6234L24.1225 20.5909L24.1071 20.5584L24.0915 20.5262L24.0755 20.4942L24.0592 20.4624L24.0426 20.4309L24.0257 20.3996L24.0085 20.3686L23.9911 20.3378L23.9732 20.3073L23.9553 20.277L23.9369 20.247L23.9183 20.2171L23.8994 20.1877L23.8803 20.1585L23.8609 20.1294L23.8412 20.1006L23.8213 20.0723L23.8011 20.044L23.7807 20.0161L23.76 19.9885L23.739 19.9611L23.7179 19.934L23.6964 19.9071L23.6748 19.8806L23.6529 19.8544L23.6309 19.8284L23.6085 19.8026L23.5861 19.7773L23.5633 19.7522L23.5403 19.7274L23.5171 19.7027L23.4938 19.6785L23.4702 19.6546L23.4464 19.6309L23.4225 19.6076L23.3983 19.5846L23.374 19.5619L23.3493 19.5394L23.3248 19.5173L23.2999 19.4954L23.2749 19.4739L23.2496 19.4526L23.2242 19.4318L23.1987 19.4112L23.1731 19.3909L23.1472 19.3709L23.1212 19.3512L23.0952 19.3319L23.0689 19.3128L23.0424 19.2941L23.016 19.2757L22.9893 19.2575L22.9626 19.2398L22.9357 19.2224L22.9086 19.2052L22.8815 19.1884L22.8542 19.1718L22.8269 19.1556L22.7995 19.1398L22.772 19.1243L22.7442 19.109L22.7166 19.0941L22.6888 19.0794L22.6609 19.0652L22.6331 19.0513L22.6049 19.0375L22.5768 19.0243L22.5486 19.0114L22.5204 18.9986L22.4921 18.9863L22.4637 18.9742L22.4355 18.9625L22.4069 18.9512L22.3783 18.9401L22.3499 18.9294L22.3213 18.9189L22.2927 18.9088L22.2641 18.899L22.2354 18.8895L22.2069 18.8804L22.1781 18.8715L22.1494 18.8629L22.1208 18.8547L22.0919 18.8468L22.0633 18.8393L22.0345 18.832L22.0058 18.825L21.977 18.8184L21.9484 18.812L21.9196 18.806L21.891 18.8003L21.8624 18.7948L21.8338 18.7897L21.8051 18.7849L21.7767 18.7805L21.748 18.7763L21.7197 18.7724L21.6911 18.7687L21.6627 18.7654L21.6345 18.7624L21.6061 18.7598L21.5779 18.7574L21.5497 18.7553L21.5216 18.7534L21.4935 18.7519L21.4655 18.7507L21.4378 18.7498L21.4098 18.7491L21.3821 18.7487L21.3544 18.7486L21.3268 18.7489L21.2992 18.7494L21.2719 18.7501L21.2445 18.7512L21.2174 18.7525L21.1901 18.7541L21.1632 18.7559L21.1363 18.758L21.1094 18.7604L21.0828 18.7631L21.0561 18.766L21.0297 18.7692L21.0033 18.7726L20.9771 18.7764L20.9509 18.7804L20.925 18.7845L20.8991 18.789L20.8736 18.7937L20.8479 18.7987L20.8225 18.8039L20.7971 18.8094L20.772 18.8151Z" fill="white"/>
</svg>
