<svg width="132" height="35" viewBox="0 0 132 35" fill="none" xmlns="http://www.w3.org/2000/svg">
<path d="M44.83 25.2045C44.2352 25.2368 43.6469 25.0677 43.16 24.7245C42.9566 24.5737 42.7929 24.3756 42.6831 24.1474C42.5733 23.9191 42.5208 23.6676 42.53 23.4145V14.1445C42.5252 14.1053 42.5293 14.0654 42.5422 14.028C42.555 13.9906 42.5762 13.9567 42.6042 13.9287C42.6322 13.9007 42.6661 13.8795 42.7035 13.8667C42.7409 13.8538 42.7808 13.8497 42.82 13.8545H44.5C44.69 13.8545 44.78 13.9545 44.78 14.1445V22.6945C44.78 23.0745 44.95 23.2645 45.3 23.2645C45.4484 23.2706 45.5968 23.2538 45.74 23.2145C45.94 23.2145 46.05 23.2745 46.06 23.4545L46.21 24.7045C46.2172 24.741 46.2165 24.7785 46.208 24.8147C46.1995 24.8508 46.1833 24.8848 46.1605 24.9141C46.1378 24.9435 46.109 24.9677 46.0762 24.985C46.0433 25.0023 46.0071 25.0124 45.97 25.0145C45.602 25.1361 45.2175 25.2002 44.83 25.2045Z" fill="white"/>
<path d="M54.28 24.1347C53.4359 24.8322 52.375 25.2137 51.28 25.2137C50.185 25.2137 49.1242 24.8322 48.28 24.1347C47.5381 23.3857 47.1218 22.374 47.1218 21.3197C47.1218 20.2654 47.5381 19.2537 48.28 18.5047C49.1258 17.8108 50.186 17.4316 51.28 17.4316C52.374 17.4316 53.4342 17.8108 54.28 18.5047C55.0049 19.2606 55.4096 20.2674 55.4096 21.3147C55.4096 22.362 55.0049 23.3688 54.28 24.1247V24.1347ZM49.86 22.8147C50.2518 23.1696 50.7614 23.3661 51.29 23.3661C51.8186 23.3661 52.3283 23.1696 52.72 22.8147C53.0746 22.4071 53.2698 21.885 53.2698 21.3447C53.2698 20.8045 53.0746 20.2824 52.72 19.8747C52.3283 19.5199 51.8186 19.3233 51.29 19.3233C50.7614 19.3233 50.2518 19.5199 49.86 19.8747C49.5055 20.2824 49.3102 20.8045 49.3102 21.3447C49.3102 21.885 49.5055 22.4071 49.86 22.8147Z" fill="white"/>
<path d="M64.66 17.6846C64.85 17.6846 64.94 17.7846 64.94 17.9746V25.1446C64.9575 25.6286 64.8669 26.1103 64.6749 26.5548C64.4829 26.9994 64.1943 27.3956 63.83 27.7146C63.0214 28.4041 61.9816 28.7614 60.92 28.7146C59.9612 28.7483 59.0151 28.4865 58.21 27.9646C57.8662 27.7389 57.5725 27.4448 57.3472 27.1008C57.1218 26.7567 56.9696 26.37 56.9 25.9646C56.9 25.7646 56.9 25.6746 57.17 25.6746H58.85C58.9213 25.677 58.9905 25.7001 59.049 25.7409C59.1076 25.7817 59.1531 25.8385 59.18 25.9046C59.289 26.2083 59.5062 26.4612 59.79 26.6146C60.1359 26.7931 60.5209 26.8825 60.91 26.8746C61.1448 26.8875 61.3798 26.8534 61.6013 26.7744C61.8228 26.6955 62.0263 26.5731 62.2 26.4146C62.3587 26.2488 62.4821 26.0525 62.5629 25.8377C62.6437 25.6229 62.6801 25.3939 62.67 25.1646V24.5346C62.0685 24.977 61.3364 25.2058 60.59 25.1846C60.0676 25.2036 59.5468 25.1169 59.0587 24.9296C58.5707 24.7422 58.1256 24.4583 57.75 24.0946C57.0291 23.3488 56.6261 22.352 56.6261 21.3146C56.6261 20.2773 57.0291 19.2805 57.75 18.5346C58.1274 18.1742 58.5731 17.893 59.0608 17.7075C59.5486 17.522 60.0685 17.436 60.59 17.4546C61.358 17.4343 62.1098 17.6779 62.72 18.1446V17.9846C62.7154 17.9463 62.7194 17.9074 62.7317 17.8708C62.744 17.8343 62.7643 17.8009 62.7911 17.7731C62.8179 17.7453 62.8506 17.7239 62.8867 17.7103C62.9229 17.6967 62.9616 17.6914 63 17.6946L64.66 17.6846ZM60.78 23.4046C61.0376 23.4126 61.2939 23.3639 61.5306 23.2619C61.7673 23.16 61.9788 23.0073 62.15 22.8146C62.4825 22.3853 62.6629 21.8576 62.6629 21.3146C62.6629 20.7716 62.4825 20.244 62.15 19.8146C61.9794 19.6246 61.7692 19.4741 61.5343 19.3739C61.2993 19.2737 61.0453 19.2262 60.79 19.2346C60.5294 19.2264 60.2702 19.2749 60.0302 19.3768C59.7902 19.4787 59.5752 19.6315 59.4 19.8246C59.0317 20.2353 58.838 20.7734 58.86 21.3246C58.842 21.8704 59.0314 22.4028 59.39 22.8146C59.5656 23.0072 59.7807 23.1597 60.0206 23.2615C60.2605 23.3633 60.5195 23.4121 60.78 23.4046Z" fill="white"/>
<path d="M73.57 24.1348C72.7242 24.8287 71.664 25.2079 70.57 25.2079C69.476 25.2079 68.4158 24.8287 67.57 24.1348C66.8445 23.3772 66.4395 22.3688 66.4395 21.3198C66.4395 20.2709 66.8445 19.2624 67.57 18.5048C68.4166 17.8127 69.4765 17.4346 70.57 17.4346C71.6635 17.4346 72.7234 17.8127 73.57 18.5048C74.2949 19.2607 74.6996 20.2675 74.6996 21.3148C74.6996 22.3621 74.2949 23.3689 73.57 24.1248V24.1348ZM69.14 22.8148C69.3317 22.9972 69.5577 23.1397 69.8049 23.2341C70.0521 23.3285 70.3155 23.373 70.58 23.3648C70.8428 23.3716 71.1044 23.3266 71.3498 23.2322C71.5952 23.1378 71.8195 22.996 72.01 22.8148C72.3588 22.4044 72.5503 21.8834 72.5503 21.3448C72.5503 20.8062 72.3588 20.2852 72.01 19.8748C71.8195 19.6937 71.5952 19.5518 71.3498 19.4575C71.1044 19.3631 70.8428 19.318 70.58 19.3248C70.3155 19.3167 70.0521 19.3611 69.8049 19.4555C69.5577 19.5499 69.3317 19.6925 69.14 19.8748C68.7913 20.2852 68.5998 20.8062 68.5998 21.3448C68.5998 21.8834 68.7913 22.4044 69.14 22.8148Z" fill="white"/>
<path d="M78.31 15.9843C78.0457 16.2157 77.7063 16.3432 77.355 16.3432C77.0037 16.3432 76.6644 16.2157 76.4 15.9843C76.2802 15.8712 76.1847 15.7348 76.1194 15.5835C76.0542 15.4322 76.0205 15.2691 76.0205 15.1043C76.0205 14.9395 76.0542 14.7765 76.1194 14.6251C76.1847 14.4738 76.2802 14.3374 76.4 14.2243C76.6671 13.9987 77.0054 13.875 77.355 13.875C77.7046 13.875 78.0429 13.9987 78.31 14.2243C78.4299 14.3374 78.5254 14.4738 78.5906 14.6251C78.6559 14.7765 78.6895 14.9395 78.6895 15.1043C78.6895 15.2691 78.6559 15.4322 78.5906 15.5835C78.5254 15.7348 78.4299 15.8712 78.31 15.9843ZM78.52 25.2043C77.9256 25.2335 77.3383 25.0647 76.85 24.7243C76.6497 24.5713 76.4888 24.3725 76.381 24.1446C76.2731 23.9167 76.2213 23.6663 76.23 23.4143V17.9743C76.2252 17.9351 76.2293 17.8952 76.2422 17.8578C76.255 17.8204 76.2762 17.7865 76.3042 17.7585C76.3322 17.7305 76.3661 17.7093 76.4035 17.6965C76.4409 17.6836 76.4808 17.6795 76.52 17.6843H78.2C78.39 17.6843 78.48 17.7843 78.48 17.9743V22.6943C78.48 23.0743 78.65 23.2643 78.99 23.2643C79.1417 23.2698 79.2933 23.2529 79.44 23.2143C79.64 23.2143 79.75 23.2743 79.76 23.4543L79.91 24.7043C79.9172 24.7408 79.9165 24.7783 79.908 24.8145C79.8995 24.8506 79.8833 24.8846 79.8605 24.9139C79.8378 24.9433 79.809 24.9675 79.7762 24.9848C79.7433 25.0021 79.7071 25.0122 79.67 25.0143C79.2988 25.1366 78.9109 25.2007 78.52 25.2043Z" fill="white"/>
<path d="M86.09 17.4447C86.6148 17.424 87.1383 17.5089 87.6296 17.6944C88.1209 17.88 88.57 18.1623 88.95 18.5247C89.6572 19.2837 90.0504 20.2824 90.0504 21.3197C90.0504 22.357 89.6572 23.3558 88.95 24.1147C88.5718 24.4804 88.1233 24.7655 87.6317 24.9528C87.1401 25.1402 86.6157 25.2259 86.09 25.2047C85.3412 25.2214 84.6073 24.9932 84 24.5547V28.1647C84 28.3547 83.9 28.4447 83.71 28.4447H82.03C81.9917 28.4519 81.9522 28.4496 81.9149 28.4381C81.8777 28.4265 81.8438 28.4061 81.8162 28.3785C81.7887 28.3509 81.7682 28.3171 81.7567 28.2798C81.7451 28.2426 81.7429 28.2031 81.75 28.1647V19.9647C81.7618 19.8845 81.7546 19.8027 81.7292 19.7257C81.7037 19.6488 81.6605 19.5788 81.6032 19.5215C81.5459 19.4642 81.476 19.4211 81.399 19.3956C81.3221 19.3701 81.2402 19.363 81.16 19.3747H80.83C80.61 19.3747 80.5 19.2947 80.5 19.1347V17.9547C80.4948 17.8817 80.5148 17.8091 80.5567 17.7491C80.5985 17.689 80.6597 17.6451 80.73 17.6247C81.0759 17.499 81.442 17.438 81.81 17.4447C82.177 17.4122 82.5453 17.4901 82.8678 17.6682C83.1902 17.8464 83.4522 18.1168 83.62 18.4447C83.9421 18.1189 84.3273 17.8622 84.752 17.6902C85.1767 17.5183 85.632 17.4347 86.09 17.4447ZM84.53 22.8147C84.7083 23.0011 84.9225 23.1494 85.1597 23.2507C85.3969 23.352 85.6521 23.4042 85.91 23.4042C86.1679 23.4042 86.4232 23.352 86.6603 23.2507C86.8975 23.1494 87.1117 23.0011 87.29 22.8147C87.6656 22.3958 87.8629 21.8469 87.84 21.2847C87.8662 20.7221 87.6684 20.1719 87.29 19.7547C87.1117 19.5684 86.8975 19.4201 86.6603 19.3188C86.4232 19.2174 86.1679 19.1652 85.91 19.1652C85.6521 19.1652 85.3969 19.2174 85.1597 19.3188C84.9225 19.4201 84.7083 19.5684 84.53 19.7547C84.1662 20.1793 83.9768 20.726 84 21.2847C83.9797 21.843 84.1688 22.3887 84.53 22.8147Z" fill="white"/>
<path d="M94.77 25.2046C93.8723 25.2415 92.9822 25.0268 92.2 24.5846C91.8862 24.3956 91.619 24.1383 91.4181 23.8319C91.2173 23.5255 91.0881 23.1778 91.04 22.8146C91.04 22.6146 91.11 22.5146 91.33 22.5146H92.8C92.8699 22.5174 92.9378 22.5393 92.996 22.5782C93.0542 22.617 93.1006 22.6711 93.13 22.7346C93.34 23.2746 93.89 23.5446 94.77 23.5446C95.077 23.5587 95.3826 23.4968 95.66 23.3646C95.7558 23.3214 95.8379 23.253 95.8978 23.1667C95.9577 23.0804 95.993 22.9794 96 22.8746C96 22.6146 95.84 22.4346 95.52 22.3146C95.1405 22.1883 94.7481 22.1044 94.35 22.0646C93.8785 22.0112 93.4109 21.9277 92.95 21.8146C92.5018 21.7132 92.0943 21.4798 91.78 21.1446C91.5949 20.9168 91.4587 20.6533 91.3797 20.3706C91.3008 20.0879 91.2809 19.7919 91.3212 19.5012C91.3616 19.2104 91.4613 18.931 91.6142 18.6805C91.7671 18.4299 91.9699 18.2135 92.21 18.0446C92.9308 17.5855 93.7765 17.3618 94.63 17.4046C95.4564 17.3767 96.274 17.5811 96.99 17.9946C97.2786 18.1581 97.527 18.3838 97.7173 18.6554C97.9076 18.927 98.0349 19.2376 98.09 19.5646C98.09 19.7646 98 19.8646 97.82 19.8646H96.34C96.2777 19.8683 96.2157 19.8531 96.1622 19.821C96.1087 19.7889 96.0661 19.7413 96.04 19.6846C95.9411 19.4478 95.7549 19.258 95.52 19.1546C95.255 19.016 94.959 18.9471 94.66 18.9546C94.3669 18.9387 94.0745 18.9972 93.81 19.1246C93.7168 19.1606 93.6366 19.2236 93.5795 19.3056C93.5225 19.3876 93.4913 19.4848 93.49 19.5846C93.4964 19.7214 93.5465 19.8525 93.6329 19.9587C93.7193 20.0649 93.8374 20.1405 93.97 20.1746C94.354 20.3194 94.7533 20.42 95.16 20.4746C95.6277 20.5362 96.0917 20.623 96.55 20.7346C96.9982 20.8361 97.4057 21.0694 97.72 21.4046C97.8882 21.5893 98.018 21.8054 98.1021 22.0406C98.1862 22.2757 98.2229 22.5252 98.21 22.7746C98.2186 23.1203 98.1375 23.4623 97.9745 23.7673C97.8115 24.0722 97.5722 24.3297 97.28 24.5146C96.5329 24.9943 95.6574 25.2349 94.77 25.2046Z" fill="white"/>
<path d="M108.78 24.7046C108.786 24.7401 108.784 24.7764 108.776 24.8113C108.767 24.8463 108.752 24.8791 108.73 24.908C108.709 24.9369 108.682 24.9612 108.651 24.9795C108.62 24.9978 108.586 25.0097 108.55 25.0146C108.185 25.1338 107.804 25.1979 107.42 25.2046C107.04 25.244 106.656 25.1846 106.306 25.0322C105.955 24.8798 105.65 24.6395 105.42 24.3346C104.714 24.9419 103.8 25.2535 102.87 25.2046C102.438 25.2245 102.007 25.1538 101.604 24.9971C101.201 24.8404 100.835 24.6011 100.53 24.2946C100.227 23.9735 99.9922 23.5945 99.8392 23.1804C99.6863 22.7663 99.6186 22.3256 99.64 21.8846V17.9746C99.64 17.7846 99.73 17.6846 99.92 17.6846H101.6C101.79 17.6846 101.88 17.7846 101.88 17.9746V21.5846C101.862 22.0344 102.015 22.4742 102.31 22.8146C102.457 22.9706 102.636 23.0932 102.834 23.1743C103.032 23.2554 103.246 23.293 103.46 23.2846C103.679 23.2942 103.898 23.2603 104.104 23.1847C104.31 23.1092 104.499 22.9936 104.66 22.8446C104.812 22.6876 104.931 22.501 105.008 22.2963C105.086 22.0916 105.12 21.8732 105.11 21.6546V17.9746C105.11 17.7846 105.2 17.6846 105.39 17.6846H107.09C107.28 17.6846 107.37 17.7846 107.37 17.9746V22.6846C107.37 23.0746 107.54 23.2646 107.87 23.2646C108.025 23.2706 108.18 23.2538 108.33 23.2146C108.368 23.204 108.408 23.2021 108.446 23.2091C108.485 23.216 108.521 23.2316 108.553 23.2547C108.585 23.2778 108.611 23.3078 108.63 23.3424C108.648 23.377 108.658 23.4154 108.66 23.4546L108.78 24.7046Z" fill="white"/>
<path d="M124.67 24.7043C124.679 24.7401 124.68 24.7775 124.673 24.8137C124.665 24.8498 124.65 24.884 124.628 24.9136C124.606 24.9432 124.578 24.9676 124.545 24.985C124.513 25.0025 124.477 25.0125 124.44 25.0143C124.068 25.1352 123.681 25.1993 123.29 25.2043C122.695 25.235 122.108 25.0661 121.62 24.7243C121.409 24.5779 121.238 24.3818 121.121 24.1533C121.004 23.9248 120.945 23.6709 120.95 23.4143V21.0643C120.971 20.6159 120.821 20.1762 120.53 19.8343C120.39 19.678 120.216 19.5548 120.023 19.4735C119.829 19.3923 119.62 19.355 119.41 19.3643C119.221 19.3572 119.033 19.3931 118.859 19.4693C118.686 19.5455 118.533 19.6601 118.41 19.8043C118.146 20.1394 118.011 20.5582 118.03 20.9843V24.6743C118.03 24.8643 117.94 24.9643 117.75 24.9643H116.06C116.021 24.9692 115.981 24.965 115.944 24.9522C115.906 24.9393 115.872 24.9181 115.844 24.8901C115.816 24.8622 115.795 24.8282 115.782 24.7908C115.769 24.7534 115.765 24.7136 115.77 24.6743V21.0643C115.792 20.6208 115.653 20.1842 115.38 19.8343C115.258 19.6873 115.105 19.569 114.932 19.4878C114.76 19.4066 114.571 19.3644 114.38 19.3643C114.176 19.3561 113.973 19.391 113.783 19.4669C113.593 19.5427 113.422 19.6577 113.28 19.8043C112.994 20.1287 112.847 20.5525 112.87 20.9843V24.6743C112.875 24.7136 112.871 24.7534 112.858 24.7908C112.845 24.8282 112.824 24.8622 112.796 24.8901C112.768 24.9181 112.734 24.9393 112.697 24.9522C112.659 24.965 112.619 24.9692 112.58 24.9643H110.95C110.76 24.9643 110.67 24.8643 110.67 24.6743V19.9643C110.682 19.8841 110.675 19.8023 110.649 19.7253C110.624 19.6484 110.581 19.5784 110.523 19.5211C110.466 19.4638 110.396 19.4207 110.319 19.3952C110.242 19.3697 110.16 19.3626 110.08 19.3743H109.75C109.53 19.3743 109.42 19.2943 109.42 19.1343V17.9543C109.415 17.8813 109.435 17.8087 109.477 17.7487C109.519 17.6886 109.58 17.6447 109.65 17.6243C109.996 17.4986 110.362 17.4376 110.73 17.4443C111.083 17.4142 111.438 17.4846 111.753 17.6474C112.068 17.8102 112.33 18.0587 112.51 18.3643C112.847 18.0446 113.247 17.7978 113.684 17.6395C114.121 17.4812 114.586 17.4148 115.05 17.4443C115.501 17.4223 115.95 17.5068 116.362 17.691C116.774 17.8752 117.136 18.1538 117.42 18.5043C117.751 18.1446 118.158 17.863 118.611 17.6796C119.064 17.4963 119.552 17.416 120.04 17.4443C120.476 17.4239 120.912 17.4942 121.32 17.6509C121.728 17.8075 122.099 18.047 122.41 18.3543C122.714 18.6748 122.949 19.0537 123.102 19.468C123.255 19.8822 123.323 20.3233 123.3 20.7643V22.6943C123.3 23.0743 123.47 23.2643 123.79 23.2643C123.945 23.2715 124.1 23.2547 124.25 23.2143C124.457 23.2143 124.567 23.2943 124.58 23.4543L124.67 24.7043Z" fill="white"/>
<path d="M7.41 16.3847C8.14777 13.4194 9.85643 10.7861 12.2639 8.90424C14.6714 7.02234 17.6393 6 20.695 6C23.7507 6 26.7186 7.02234 29.1261 8.90424C31.5336 10.7861 33.2422 13.4194 33.98 16.3847H32.78C30.7557 16.3549 28.7729 16.9599 27.11 18.1147C27.014 18.1842 26.9138 18.2477 26.81 18.3047H26.67C26.5662 18.2477 26.466 18.1842 26.37 18.1147C24.6924 16.9866 22.7166 16.3841 20.695 16.3841C18.6734 16.3841 16.6976 16.9866 15.02 18.1147C14.924 18.1842 14.8238 18.2477 14.72 18.3047H14.58C14.4762 18.2477 14.376 18.1842 14.28 18.1147C12.6171 16.9599 10.6343 16.3549 8.61 16.3847H7.41ZM30.62 22.6547C31.236 22.175 31.9995 21.924 32.78 21.9447H34.39V18.7347H32.78C31.4052 18.7181 30.0619 19.146 28.95 19.9547C28.3243 20.416 27.5674 20.6649 26.79 20.6649C26.0126 20.6649 25.2557 20.416 24.63 19.9547C23.4899 19.1611 22.1341 18.7356 20.745 18.7356C19.3559 18.7356 18.0001 19.1611 16.86 19.9547C16.2343 20.416 15.4774 20.6649 14.7 20.6649C13.9226 20.6649 13.1657 20.416 12.54 19.9547C11.4144 19.1356 10.0518 18.7072 8.66 18.7347H7V21.9447H8.61C9.39051 21.924 10.154 22.175 10.77 22.6547C11.908 23.4489 13.2623 23.8747 14.65 23.8747C16.0377 23.8747 17.392 23.4489 18.53 22.6547C19.1468 22.1765 19.9097 21.9257 20.69 21.9447C21.4708 21.9223 22.2348 22.1735 22.85 22.6547C23.9901 23.4484 25.3459 23.8738 26.735 23.8738C28.1241 23.8738 29.4799 23.4484 30.62 22.6547ZM30.62 28.3947C31.236 27.915 31.9995 27.664 32.78 27.6847H34.39V24.4747H32.78C31.4052 24.4581 30.0619 24.886 28.95 25.6947C28.3243 26.156 27.5674 26.4049 26.79 26.4049C26.0126 26.4049 25.2557 26.156 24.63 25.6947C23.4899 24.9011 22.1341 24.4757 20.745 24.4757C19.3559 24.4757 18.0001 24.9011 16.86 25.6947C16.2343 26.156 15.4774 26.4049 14.7 26.4049C13.9226 26.4049 13.1657 26.156 12.54 25.6947C11.4144 24.8757 10.0518 24.4472 8.66 24.4747H7V27.6847H8.61C9.39051 27.664 10.154 27.915 10.77 28.3947C11.908 29.1889 13.2623 29.6147 14.65 29.6147C16.0377 29.6147 17.392 29.1889 18.53 28.3947C19.1468 27.9165 19.9097 27.6657 20.69 27.6847C21.4708 27.6623 22.2348 27.9135 22.85 28.3947C23.9901 29.1884 25.3459 29.6138 26.735 29.6138C28.1241 29.6138 29.4799 29.1884 30.62 28.3947Z" fill="white"/>
</svg>
