<svg width="1380" height="671" viewBox="0 0 1380 671" fill="none" xmlns="http://www.w3.org/2000/svg">
<g clip-path="url(#clip0_1_61)">
<path d="M929.129 565.12C926.215 565.12 923.787 562.69 923.787 559.774V8.84139C923.787 5.92537 926.215 3.49536 929.129 3.49536H1163.23C1166.14 3.49536 1168.57 5.92537 1168.57 8.84139V559.774C1168.57 562.69 1166.14 565.12 1163.23 565.12H929.129Z" fill="white"/>
<path d="M1163.23 3.98134C1165.95 3.98134 1168.09 6.11975 1168.09 8.84137V559.774C1168.09 562.495 1165.95 564.634 1163.23 564.634H929.129C926.41 564.634 924.273 562.495 924.273 559.774V8.84137C924.273 6.11975 926.41 3.98134 929.129 3.98134H1163.23ZM1163.23 3.00934H929.129C925.924 3.00934 923.301 5.63375 923.301 8.84137V559.774C923.301 562.981 925.924 565.606 929.129 565.606H1163.23C1166.43 565.606 1169.06 562.981 1169.06 559.774V8.84137C1169.06 5.63375 1166.43 3.00934 1163.23 3.00934Z" fill="#696872"/>
<path d="M1168.09 35.0855H924.273V8.84135C924.273 6.11973 926.41 3.98132 929.129 3.98132H1163.23C1165.95 3.98132 1168.09 6.11973 1168.09 8.84135V35.0855Z" fill="#E1E7F3"/>
<path d="M950.402 24.3934C953.085 24.3934 955.259 22.2175 955.259 19.5334C955.259 16.8493 953.085 14.6734 950.402 14.6734C947.72 14.6734 945.546 16.8493 945.546 19.5334C945.546 22.2175 947.72 24.3934 950.402 24.3934Z" fill="white"/>
<path d="M968.955 24.3934C971.638 24.3934 973.812 22.2175 973.812 19.5334C973.812 16.8493 971.638 14.6734 968.955 14.6734C966.273 14.6734 964.099 16.8493 964.099 19.5334C964.099 22.2175 966.273 24.3934 968.955 24.3934Z" fill="white"/>
<path d="M987.606 24.3934C990.288 24.3934 992.463 22.2175 992.463 19.5334C992.463 16.8493 990.288 14.6734 987.606 14.6734C984.923 14.6734 982.749 16.8493 982.749 19.5334C982.749 22.2175 984.923 24.3934 987.606 24.3934Z" fill="white"/>
<path d="M1145.06 12.3406H1123.5C1122.63 12.3406 1122.04 12.8266 1122.04 13.6042C1122.04 14.2846 1122.72 14.7706 1123.5 14.7706H1145.06C1145.94 14.7706 1146.72 14.2846 1146.72 13.6042C1146.72 12.9238 1146.04 12.3406 1145.06 12.3406Z" fill="white"/>
<path d="M1145.06 18.367H1123.5C1122.63 18.367 1122.04 18.853 1122.04 19.6306C1122.04 20.311 1122.72 20.797 1123.5 20.797H1145.06C1145.94 20.797 1146.72 20.311 1146.72 19.6306C1146.72 18.853 1146.04 18.367 1145.06 18.367Z" fill="white"/>
<path d="M1145.06 24.3934H1123.5C1122.63 24.3934 1122.04 24.8794 1122.04 25.657C1122.04 26.3374 1122.72 26.8234 1123.5 26.8234H1145.06C1145.94 26.8234 1146.72 26.3374 1146.72 25.657C1146.72 24.8794 1146.04 24.3934 1145.06 24.3934Z" fill="white"/>
<path d="M992.463 309.677C998.203 309.677 1002.86 305.02 1002.86 299.276C1002.86 293.532 998.203 288.876 992.463 288.876C986.722 288.876 982.069 293.532 982.069 299.276C982.069 305.02 986.722 309.677 992.463 309.677Z" fill="#E1E7F3"/>
<path d="M1016.55 292.57C1015.58 292.57 1014.9 293.444 1014.9 294.222C1014.9 295.194 1015.78 295.874 1016.55 295.874H1098.34C1099.31 295.874 1099.99 295 1099.99 294.222C1099.99 293.25 1099.12 292.57 1098.34 292.57H1016.55Z" fill="#E1E7F3"/>
<path d="M1016.55 303.067C1015.58 303.067 1014.9 303.942 1014.9 304.72C1014.9 305.692 1015.78 306.372 1016.55 306.372H1051.72C1052.69 306.372 1053.37 305.497 1053.37 304.72C1053.37 303.748 1052.49 303.067 1051.72 303.067H1016.55Z" fill="#E1E7F3"/>
<path d="M1027.04 258.841C1032.78 258.841 1037.44 254.185 1037.44 248.441C1037.44 242.697 1032.78 238.04 1027.04 238.04C1021.3 238.04 1016.65 242.697 1016.65 248.441C1016.65 254.185 1021.3 258.841 1027.04 258.841Z" fill="#E1E7F3"/>
<path d="M1051.04 241.831C1050.06 241.831 1049.38 242.706 1049.38 243.483C1049.38 244.455 1050.26 245.136 1051.04 245.136H1132.83C1133.8 245.136 1134.48 244.261 1134.48 243.483C1134.48 242.511 1133.6 241.831 1132.83 241.831H1051.04Z" fill="#E1E7F3"/>
<path d="M1051.04 252.329C1050.06 252.329 1049.38 253.203 1049.38 253.981C1049.38 254.953 1050.26 255.633 1051.04 255.633H1086.2C1087.17 255.633 1087.85 254.759 1087.85 253.981C1087.85 253.009 1086.98 252.329 1086.2 252.329H1051.04Z" fill="#E1E7F3"/>
<path d="M1000.14 91.3646C1005.88 91.3646 1010.53 86.7081 1010.53 80.9641C1010.53 75.2201 1005.88 70.5637 1000.14 70.5637C994.396 70.5637 989.743 75.2201 989.743 80.9641C989.743 86.7081 994.396 91.3646 1000.14 91.3646Z" fill="#ADA3F1"/>
<path d="M1114.47 183.511H981.195C978.475 183.511 976.338 181.372 976.338 178.651V65.1205C976.338 62.3988 978.475 60.2604 981.195 60.2604H1114.47C1117.19 60.2604 1119.32 62.3988 1119.32 65.1205V178.651C1119.32 181.372 1117.09 183.511 1114.47 183.511Z" stroke="#696872" stroke-miterlimit="10"/>
<path d="M1024.23 74.1601C1023.25 74.1601 1022.57 75.0349 1022.57 75.8125C1022.57 76.7845 1023.45 77.4649 1024.23 77.4649H1105.92C1106.89 77.4649 1107.57 76.5901 1107.57 75.8125C1107.57 74.8405 1106.7 74.1601 1105.92 74.1601H1024.23Z" fill="#CCCCCC"/>
<path d="M1024.23 84.4633C1023.25 84.4633 1022.57 85.3381 1022.57 86.1157C1022.57 87.0877 1023.45 87.7681 1024.23 87.7681H1059.39C1060.36 87.7681 1061.04 86.8933 1061.04 86.1157C1061.04 85.1437 1060.17 84.4633 1059.39 84.4633H1024.23Z" fill="#CCCCCC"/>
<path d="M1149.53 168.153H1011.5C1010.14 168.153 1008.98 166.987 1008.98 165.626V104.973C1008.98 103.612 1010.14 102.445 1011.5 102.445H1149.53C1150.89 102.445 1152.06 103.612 1152.06 104.973V165.626C1152.06 166.987 1150.89 168.153 1149.53 168.153Z" fill="#ADA3F1"/>
<path d="M1039.57 123.538C1038.6 123.538 1037.92 124.413 1037.92 125.19C1037.92 126.162 1038.8 126.843 1039.57 126.843H1121.36C1122.33 126.843 1123.01 125.968 1123.01 125.19C1123.01 124.218 1122.14 123.538 1121.36 123.538H1039.57Z" fill="white"/>
<path d="M1039.57 133.55C1038.6 133.55 1037.92 134.424 1037.92 135.202C1037.92 136.174 1038.8 136.854 1039.57 136.854H1121.36C1122.33 136.854 1123.01 135.98 1123.01 135.202C1123.01 134.23 1122.14 133.55 1121.36 133.55H1039.57Z" fill="white"/>
<path d="M1039.57 143.658C1038.6 143.658 1037.92 144.533 1037.92 145.311C1037.92 146.283 1038.8 146.963 1039.57 146.963H1074.74C1075.71 146.963 1076.39 146.088 1076.39 145.311C1076.39 144.339 1075.51 143.658 1074.74 143.658H1039.57Z" fill="white"/>
<path d="M1137.49 495.33C1146.62 489.109 1153.32 478.125 1151.86 467.142C1143.51 475.987 1132.53 481.527 1120.49 482.985C1115.83 483.471 1110.68 483.666 1107.47 486.971C1105.43 489.012 1104.66 492.122 1104.66 494.941C1104.66 497.76 1105.34 500.579 1106.11 503.495L1105.92 504.175C1116.8 503.592 1128.16 501.648 1137.49 495.33Z" fill="#E1E7F3"/>
<path d="M1151.48 467.044C1148.17 475.598 1142.15 482.888 1134.28 487.943C1132.63 489.109 1130.79 489.984 1128.94 490.47C1127.09 490.956 1125.05 490.761 1123.31 490.275C1121.65 489.789 1119.81 489.109 1117.96 489.109C1116.12 489.109 1114.27 489.984 1112.91 491.247C1111.26 492.9 1110.39 495.135 1109.61 497.274C1108.74 499.607 1107.76 502.134 1105.92 503.981C1105.72 504.175 1106.11 504.467 1106.21 504.272C1109.51 501.259 1109.9 496.302 1112.43 492.705C1113.59 491.053 1115.44 489.692 1117.48 489.692C1119.32 489.692 1121.17 490.373 1122.82 490.859C1124.67 491.345 1126.51 491.539 1128.36 491.15C1130.4 490.664 1132.24 489.984 1133.89 489.012C1137.78 486.679 1141.08 483.86 1144.09 480.458C1147.4 476.57 1150.12 472.293 1151.96 467.433C1152.16 466.947 1151.67 466.947 1151.48 467.044Z" fill="white"/>
<path d="M1137 486.484C1139.04 489.012 1142.64 489.498 1145.36 487.845C1145.65 487.651 1145.36 487.165 1145.16 487.359C1142.64 488.817 1139.33 488.331 1137.29 485.998C1137.2 485.901 1136.81 486.29 1137 486.484Z" fill="white"/>
<path d="M1124.28 490.567C1124.47 487.359 1125.93 484.346 1128.26 482.208C1128.45 482.013 1128.07 481.722 1127.97 481.916C1125.64 484.249 1124.08 487.262 1123.79 490.567C1123.79 490.956 1124.28 490.956 1124.28 490.567Z" fill="white"/>
<path d="M1146.81 476.279C1145.84 475.404 1145.36 474.237 1145.36 473.071C1145.36 472.779 1144.87 472.779 1144.87 473.071C1144.68 474.432 1145.36 475.695 1146.33 476.57C1146.52 476.765 1146.52 476.765 1146.62 476.57C1147.01 476.376 1147.01 476.279 1146.81 476.279Z" fill="white"/>
<path d="M1119.81 447.41C1119.81 447.604 1119.81 447.702 1119.81 448.09C1119.52 450.715 1118.93 453.242 1118.35 455.964C1118.35 456.158 1118.16 456.255 1118.16 456.644C1116.31 462.865 1113.5 468.502 1109.51 473.557C1108.06 475.598 1106.21 477.445 1104.36 479.194C1101.84 481.527 1098.83 484.054 1097.37 487.068C1097.18 487.359 1097.08 487.748 1096.88 488.04L1105.04 504.272C1105.04 504.272 1105.04 504.272 1105.24 504.467L1105.53 505.147C1105.72 504.953 1105.72 504.953 1105.82 504.855L1106.02 504.661C1106.02 504.661 1106.02 504.661 1106.21 504.467C1106.21 504.467 1106.21 504.467 1106.4 504.272C1106.89 503.786 1107.57 503.3 1108.06 502.814C1112.43 498.926 1116.6 494.649 1119.71 489.984C1119.91 489.789 1119.91 489.692 1120 489.498C1121.46 487.359 1122.82 485.124 1123.89 482.694C1124.57 481.333 1125.05 480.069 1125.54 478.708C1126.71 475.209 1127.39 471.516 1127.58 467.822C1127.77 460.435 1125.54 453.145 1120.59 447.993C1120 447.507 1120 447.507 1119.81 447.41Z" fill="#E1E7F3"/>
<path d="M1119.61 447.507C1122.14 456.352 1121.65 465.878 1118.45 474.432C1117.77 476.278 1116.8 478.125 1115.63 479.583C1114.47 481.041 1112.82 482.208 1110.97 482.888C1109.32 483.569 1107.47 484.055 1105.92 485.027C1104.46 486.193 1103.39 487.845 1103.3 489.692C1103 492.025 1103.59 494.163 1104.17 496.496C1104.85 499.023 1105.63 501.551 1105.14 503.981C1105.14 504.272 1105.63 504.272 1105.63 503.981C1106.5 499.509 1103.78 495.427 1103.59 490.956C1103.59 488.915 1104.07 486.776 1105.72 485.415C1107.18 484.249 1109.03 483.763 1110.78 483.083C1112.62 482.402 1114.08 481.43 1115.44 480.069C1116.8 478.611 1117.77 476.862 1118.45 475.015C1120.1 470.835 1121.07 466.461 1121.46 461.99C1121.75 456.936 1121.27 451.784 1120 446.924C1120 447.021 1119.52 447.216 1119.61 447.507Z" fill="white"/>
<path d="M1119.61 471.71C1122.82 472.39 1125.93 470.738 1127.09 467.725C1127.29 467.433 1126.8 467.239 1126.61 467.53C1125.44 470.349 1122.43 471.904 1119.61 471.224C1119.52 471.03 1119.32 471.613 1119.61 471.71Z" fill="white"/>
<path d="M1111.94 482.791C1110.29 480.167 1109.61 476.959 1110.1 473.751C1110.1 473.46 1109.61 473.46 1109.61 473.751C1109.12 477.056 1109.8 480.458 1111.65 483.083C1111.65 483.277 1112.14 482.888 1111.94 482.791Z" fill="white"/>
<path d="M1121.27 457.519C1120.1 457.519 1118.93 456.838 1118.25 455.866C1118.06 455.575 1117.77 455.866 1117.96 456.158C1118.64 457.324 1120 458.005 1121.27 458.005C1121.46 458.005 1121.56 458.005 1121.56 457.81C1121.46 457.713 1121.46 457.519 1121.27 457.519Z" fill="white"/>
<path d="M1095.23 353.028H1087.27C1088.43 356.042 1087.07 359.541 1083.97 360.707C1083.29 360.999 1082.51 361.193 1081.83 361.193H1046.66C1043.36 361.193 1040.64 358.569 1040.64 355.167C1040.64 354.292 1040.84 353.709 1041.13 353.028H1033.65C1026.85 353.028 1021.12 358.666 1021.12 365.567V524.393C1021.12 531.197 1026.75 536.932 1033.65 536.932H1095.43C1102.23 536.932 1107.96 531.294 1107.96 524.393V365.567C1107.76 358.569 1102.13 353.028 1095.23 353.028Z" fill="white" stroke="#696872" stroke-miterlimit="10"/>
<path d="M1095.82 377.426H1077.26C1076.78 377.426 1076.39 377.134 1076.39 376.551C1076.39 375.968 1076.68 375.676 1077.26 375.676H1095.82C1096.3 375.676 1096.69 375.968 1096.69 376.551C1096.5 377.037 1096.11 377.426 1095.82 377.426Z" fill="#ADA3F1"/>
<path d="M1037.83 488.915H971.87C970.024 488.915 968.47 487.359 968.47 485.513V470.252C968.47 468.405 970.024 466.85 971.87 466.85H1037.83C1039.67 466.85 1041.23 468.405 1041.23 470.252V485.513C1041.23 487.457 1039.67 488.915 1037.83 488.915Z" fill="white" stroke="#696872" stroke-miterlimit="10"/>
<path d="M1095.82 380.925H1077.26C1076.78 380.925 1076.39 380.633 1076.39 380.05C1076.39 379.467 1076.68 379.175 1077.26 379.175H1095.82C1096.3 379.175 1096.69 379.467 1096.69 380.05C1096.5 380.536 1096.11 380.925 1095.82 380.925Z" fill="#ADA3F1"/>
<path d="M1095.82 384.424H1077.26C1076.78 384.424 1076.39 384.132 1076.39 383.549C1076.39 382.966 1076.68 382.674 1077.26 382.674H1095.82C1096.3 382.674 1096.69 382.966 1096.69 383.549C1096.5 384.035 1096.11 384.424 1095.82 384.424Z" fill="#ADA3F1"/>
<path d="M1026.65 474.723H982.943C982.457 474.723 981.972 474.432 981.972 473.751C981.972 473.265 982.263 472.779 982.943 472.779H1026.65C1027.14 472.779 1027.63 473.071 1027.63 473.751C1027.72 474.237 1027.24 474.723 1026.65 474.723Z" fill="#ADA3F1"/>
<path d="M1026.65 478.903H982.943C982.457 478.903 981.972 478.611 981.972 477.931C981.972 477.445 982.263 476.959 982.943 476.959H1026.65C1027.14 476.959 1027.63 477.251 1027.63 477.931C1027.72 478.417 1027.24 478.903 1026.65 478.903Z" fill="#ADA3F1"/>
<path d="M1008.98 483.083H982.943C982.457 483.083 981.972 482.791 981.972 482.111C981.972 481.625 982.263 481.139 982.943 481.139H1008.98C1009.46 481.139 1009.95 481.43 1009.95 482.111C1010.04 482.791 1009.46 483.083 1008.98 483.083Z" fill="#ADA3F1"/>
<path d="M1141.37 526.531H1042.2C1039.38 526.531 1037.05 524.782 1037.05 522.643V505.244C1037.05 503.106 1039.38 501.356 1042.2 501.356H1141.47C1144.29 501.356 1146.62 503.106 1146.62 505.244V522.643C1146.52 524.782 1144.19 526.531 1141.37 526.531Z" fill="white" stroke="#696872" stroke-miterlimit="10"/>
<path d="M1106.79 319.105H973.521C970.801 319.105 968.664 316.967 968.664 314.245V284.696C968.664 281.975 970.801 279.836 973.521 279.836H1106.79C1109.51 279.836 1111.65 281.975 1111.65 284.696V314.245C1111.65 316.967 1109.42 319.105 1106.79 319.105Z" stroke="#696872" stroke-miterlimit="10"/>
<path d="M1052.88 509.618C1052.2 509.618 1051.91 510.104 1051.91 510.59C1051.91 511.271 1052.4 511.562 1052.88 511.562H1130.69C1131.37 511.562 1131.66 511.076 1131.66 510.59C1131.66 509.91 1131.17 509.618 1130.69 509.618H1052.88Z" fill="#ADA3F1"/>
<path d="M1052.88 516.131C1052.2 516.131 1051.91 516.617 1051.91 517.103C1051.91 517.589 1052.4 518.075 1052.88 518.075H1102.13C1102.81 518.075 1103.1 517.589 1103.1 517.103C1103.1 516.617 1102.62 516.131 1102.13 516.131H1052.88Z" fill="#ADA3F1"/>
<path d="M974.104 454.02C971.578 454.02 969.635 451.978 969.635 449.548C969.635 447.118 971.675 445.077 974.104 445.077C976.532 445.077 978.572 447.118 978.572 449.548C978.572 451.978 976.629 454.02 974.104 454.02Z" fill="#F0F0F0"/>
<path d="M994.988 389.284C992.171 389.284 989.937 386.951 989.937 384.23C989.937 381.508 992.268 379.175 994.988 379.175C997.805 379.175 1000.04 381.508 1000.04 384.23C1000.04 386.951 997.611 389.284 994.988 389.284Z" fill="#E1E7F3"/>
<path d="M1124.96 425.345C1122.63 425.345 1120.59 423.304 1120.59 420.971C1120.59 418.639 1122.63 416.597 1124.96 416.597C1127.29 416.597 1129.33 418.639 1129.33 420.971C1129.33 423.499 1127.29 425.345 1124.96 425.345Z" fill="#E1E7F3"/>
<path d="M1097.47 398.324H1032.19L1097.47 447.41V398.324Z" fill="#E1E7F3"/>
<path d="M1097.47 397.74H1031.03V447.993H1097.47V397.74Z" stroke="#696872" stroke-miterlimit="10"/>
<path d="M1134.19 537.029C1128.84 537.029 1124.37 532.655 1124.37 527.212C1124.37 521.866 1128.75 517.394 1134.19 517.394C1139.62 517.394 1144 521.768 1144 527.212C1144 532.655 1139.53 537.029 1134.19 537.029Z" fill="#ADA3F1"/>
<path d="M963.322 214.42H941.951C941.077 214.42 940.3 213.74 940.3 212.768C940.3 211.796 940.98 211.116 941.951 211.116H963.322C964.196 211.116 964.779 211.796 964.779 212.768C964.973 213.74 964.293 214.42 963.322 214.42Z" fill="white"/>
<path d="M963.322 220.447H941.951C941.077 220.447 940.3 219.766 940.3 218.794C940.3 217.822 940.98 217.142 941.951 217.142H963.322C964.196 217.142 964.973 217.822 964.973 218.794C964.973 219.766 964.293 220.447 963.322 220.447Z" fill="white"/>
<path d="M963.322 226.473H941.951C941.077 226.473 940.3 225.793 940.3 224.821C940.3 223.849 940.98 223.168 941.951 223.168H963.322C964.196 223.168 964.779 223.849 964.779 224.821C964.973 225.793 964.293 226.473 963.322 226.473Z" fill="white"/>
<path d="M950.014 194.98H928.449C927.575 194.98 926.992 195.466 926.992 196.244C926.992 196.924 927.672 197.41 928.449 197.41H950.014C950.888 197.41 951.665 196.924 951.665 196.244C951.762 195.661 951.082 194.98 950.014 194.98Z" fill="white"/>
<path d="M950.014 201.007H928.449C927.575 201.007 926.992 201.493 926.992 202.27C926.992 202.951 927.672 203.437 928.449 203.437H950.014C950.888 203.437 951.665 202.951 951.665 202.27C951.762 201.493 951.082 201.007 950.014 201.007Z" fill="white"/>
<path d="M950.014 207.033H928.449C927.575 207.033 926.992 207.519 926.992 208.297C926.992 208.977 927.672 209.463 928.449 209.463H950.014C950.888 209.463 951.665 208.977 951.665 208.297C951.762 207.519 951.082 207.033 950.014 207.033Z" fill="white"/>
<path d="M1139.14 526.823H1134.57V521.671C1134.57 521.477 1134.38 521.282 1134.19 521.282C1133.99 521.282 1133.8 521.477 1133.8 521.671V526.823H1129.23C1129.04 526.823 1128.84 527.017 1128.84 527.211C1128.84 527.406 1129.04 527.6 1129.23 527.6H1133.8V532.752C1133.8 532.946 1133.99 533.141 1134.19 533.141C1134.38 533.141 1134.57 532.946 1134.57 532.752V527.6H1139.14C1139.33 527.6 1139.53 527.406 1139.53 527.211C1139.53 526.92 1139.24 526.823 1139.14 526.823Z" fill="white"/>
<path d="M1141.18 268.367H1007.81C1005.09 268.367 1002.95 266.228 1002.95 263.507V233.958C1002.95 231.236 1005.09 229.098 1007.81 229.098H1141.08C1143.8 229.098 1145.94 231.236 1145.94 233.958V263.507C1146.04 266.131 1143.9 268.367 1141.18 268.367Z" stroke="#696872" stroke-miterlimit="10"/>
</g>
<g clip-path="url(#clip1_1_61)">
<path d="M956.76 157.282H935.538C934.67 157.282 933.899 156.606 933.899 155.64C933.899 154.675 934.574 153.999 935.538 153.999H956.76C957.629 153.999 958.207 154.675 958.207 155.64C958.4 156.606 957.725 157.282 956.76 157.282Z" fill="white"/>
<path d="M956.76 163.267H935.538C934.67 163.267 933.899 162.591 933.899 161.626C933.899 160.66 934.574 159.985 935.538 159.985H956.76C957.629 159.985 958.4 160.66 958.4 161.626C958.4 162.591 957.725 163.267 956.76 163.267Z" fill="white"/>
<path d="M956.76 169.252H935.538C934.67 169.252 933.899 168.576 933.899 167.611C933.899 166.646 934.574 165.97 935.538 165.97H956.76C957.629 165.97 958.207 166.646 958.207 167.611C958.4 168.576 957.725 169.252 956.76 169.252Z" fill="white"/>
<path d="M711.936 422.465C715.346 422.465 718.11 419.699 718.11 416.287C718.11 412.875 715.346 410.109 711.936 410.109C708.526 410.109 705.762 412.875 705.762 416.287C705.762 419.699 708.526 422.465 711.936 422.465Z" fill="white"/>
<path d="M549.202 647.49C546.308 647.49 543.897 645.077 543.897 642.181V134.499C543.897 131.603 546.308 129.19 549.202 129.19H962.645C965.539 129.19 967.95 131.603 967.95 134.499V642.084C967.95 644.98 965.539 647.394 962.645 647.394H549.202V647.49Z" fill="white"/>
<path d="M962.645 129.672C965.346 129.672 967.468 131.796 967.468 134.499V642.084C967.468 644.787 965.346 646.911 962.645 646.911H549.202C546.501 646.911 544.379 644.787 544.379 642.084V134.499C544.379 131.796 546.501 129.672 549.202 129.672H962.645ZM962.645 128.707H549.202C546.019 128.707 543.414 131.313 543.414 134.499V642.084C543.414 645.27 546.019 647.876 549.202 647.876H962.645C965.828 647.876 968.432 645.27 968.432 642.084V134.499C968.432 131.313 965.828 128.707 962.645 128.707Z" fill="#696872"/>
<path d="M743.094 316.566C751.245 316.566 757.853 309.953 757.853 301.796C757.853 293.638 751.245 287.026 743.094 287.026C734.943 287.026 728.335 293.638 728.335 301.796C728.335 309.953 734.943 316.566 743.094 316.566Z" fill="white"/>
<path d="M919.911 189.718H644.991C642.868 189.718 641.036 191.552 641.036 193.676V293.204H707.692C711.55 293.204 714.444 296.197 714.444 299.961V384.044H919.911C921.069 384.044 922.227 383.561 922.902 382.693C922.902 382.693 922.902 382.693 923.095 382.499C923.288 382.21 923.577 381.824 923.577 381.534C923.77 381.051 923.866 380.569 923.866 380.086V193.676C923.673 191.552 922.034 189.718 919.911 189.718Z" fill="#E1E7F3"/>
<path d="M923.191 205.453H641.614V206.611H923.191V205.453Z" fill="#CCCCCC"/>
<path d="M651.068 201.495C652.879 201.495 654.347 200.025 654.347 198.213C654.347 196.4 652.879 194.93 651.068 194.93C649.256 194.93 647.788 196.4 647.788 198.213C647.788 200.025 649.256 201.495 651.068 201.495Z" fill="#CCCCCC"/>
<path d="M660.907 201.495C662.718 201.495 664.187 200.025 664.187 198.213C664.187 196.4 662.718 194.93 660.907 194.93C659.096 194.93 657.627 196.4 657.627 198.213C657.627 200.025 659.096 201.495 660.907 201.495Z" fill="#CCCCCC"/>
<path d="M670.65 201.495C672.461 201.495 673.93 200.025 673.93 198.213C673.93 196.4 672.461 194.93 670.65 194.93C668.838 194.93 667.37 196.4 667.37 198.213C667.37 200.025 668.838 201.495 670.65 201.495Z" fill="#CCCCCC"/>
<path d="M852.966 230.166H711.55C708.271 230.166 705.57 232.772 705.57 236.151C705.57 239.53 708.174 242.136 711.55 242.136H852.869C856.149 242.136 858.85 239.53 858.85 236.151C858.85 232.772 856.245 230.166 852.966 230.166ZM852.966 241.171H711.55C708.753 241.171 706.534 239.047 706.534 236.151C706.534 233.255 708.656 231.131 711.55 231.131H852.869C855.667 231.131 857.885 233.255 857.885 236.151C858.078 238.854 855.763 241.171 852.966 241.171Z" fill="#CCCCCC"/>
<path d="M896.181 277.082H754.862C751.583 277.082 748.882 279.689 748.882 283.068C748.882 286.446 751.486 289.053 754.862 289.053H896.181C899.461 289.053 902.162 286.446 902.162 283.068C902.162 279.785 899.558 277.082 896.181 277.082Z" fill="white"/>
<path d="M896.181 298.899H754.862C751.583 298.899 748.882 301.506 748.882 304.885C748.882 308.263 751.486 310.87 754.862 310.87H896.181C899.461 310.87 902.162 308.263 902.162 304.885C902.162 301.506 899.558 298.899 896.181 298.899Z" fill="white"/>
<path d="M896.181 320.62H754.862C751.583 320.62 748.882 323.226 748.882 326.605C748.882 329.984 751.486 332.59 754.862 332.59H896.181C899.461 332.59 902.162 329.984 902.162 326.605C902.162 323.226 899.558 320.62 896.181 320.62Z" fill="white"/>
<path d="M732.097 267.332H667.756C664.958 267.332 662.643 269.649 662.643 272.449V292.818H663.512V272.449C663.512 270.132 665.537 268.105 667.852 268.105H732.193C734.509 268.105 736.534 270.132 736.534 272.449V336.935C736.534 339.251 734.509 341.279 732.193 341.279H714.251V342.147H732.193C734.991 342.147 737.306 339.831 737.306 337.031V272.642C737.306 269.649 734.991 267.332 732.097 267.332Z" fill="#CCCCCC"/>
<path d="M683.094 400.648H607.852C600.231 400.648 600.039 388.871 607.852 388.871H683.094C690.714 388.871 690.907 400.648 683.094 400.648Z" fill="#CCCCCC"/>
<path d="M683.094 422.369H607.852C600.231 422.369 600.039 410.591 607.852 410.591H683.094C690.714 410.784 690.907 422.369 683.094 422.369Z" fill="#CCCCCC"/>
<path d="M683.094 444.282H607.852C600.231 444.282 600.039 432.505 607.852 432.505H683.094C690.714 432.505 690.907 444.089 683.094 444.282Z" fill="#CCCCCC"/>
<path d="M681.743 374.777H609.299C605.151 374.777 601.871 371.494 601.871 367.343V326.702C601.871 322.551 605.151 319.269 609.299 319.269H681.743C685.891 319.269 689.171 322.551 689.171 326.702V367.343C689.267 371.494 685.891 374.777 681.743 374.777Z" fill="#ADA3F1"/>
<path d="M787.467 456.929C787.467 463.396 790.072 469.671 794.605 474.305C794.798 474.498 794.895 474.595 795.281 474.788C796.438 475.946 797.789 476.911 799.139 477.78C799.428 477.973 799.621 478.07 800.007 478.263C801.358 479.132 802.805 479.711 804.445 480.29C804.734 480.483 804.927 480.483 805.313 480.483C810.136 481.835 815.441 481.835 820.265 480.001C820.458 480.001 820.458 480.001 820.554 479.807C833.287 475.174 839.75 461.08 835.12 448.337C830.49 435.594 816.406 429.126 803.673 433.76C793.93 437.332 787.467 446.503 787.467 456.929Z" fill="white"/>
<path d="M813.319 473.146C819.925 473.146 825.281 467.787 825.281 461.176C825.281 454.565 819.925 449.206 813.319 449.206C806.713 449.206 801.358 454.565 801.358 461.176C801.358 467.787 806.713 473.146 813.319 473.146Z" fill="#ADA3F1"/>
<path d="M812.644 466.196V465.713C813.512 465.713 814.091 465.713 814.766 465.23C815.056 465.037 815.248 464.555 815.248 464.265C815.248 464.072 815.248 463.782 814.959 463.589C814.477 463.3 813.994 463.3 813.609 463.589L813.319 463.782L813.994 458.666H814.477L813.801 463.107C814.284 462.914 814.766 462.914 815.248 463.3C815.538 463.589 815.731 463.975 815.731 464.265C815.731 464.748 815.441 465.23 815.056 465.617C814.38 466.196 813.319 466.196 812.644 466.196Z" fill="#2F2E41"/>
<path d="M819.011 459.052H816.695V459.535H819.011V459.052Z" fill="#2F2E41"/>
<path d="M811.39 459.052H809.075V459.535H811.39V459.052Z" fill="#2F2E41"/>
<path d="M819.3 453.453C819.589 454.129 819.589 454.901 819.011 455.48C818.335 456.156 817.371 456.349 816.406 456.156C815.441 455.963 814.284 455.48 813.223 455.867C812.355 456.156 811.776 456.832 810.908 457.218C810.039 457.411 809.075 457.218 808.882 456.349C808.689 456.06 809.364 455.673 809.557 456.156C809.75 456.639 810.522 456.639 811.004 456.446C811.679 456.253 812.355 455.577 813.03 455.287C813.898 454.998 814.863 454.998 815.634 455.287C816.503 455.48 817.274 455.77 818.142 455.48C818.818 455.191 819.107 454.515 818.818 453.839C818.528 453.453 819.011 453.067 819.3 453.453Z" fill="#2F2E41"/>
<path d="M822.58 459.921C822.58 461.948 823.544 463.589 824.895 463.879C825.088 463.879 825.184 463.879 825.184 463.879C826.631 463.879 827.789 462.045 827.789 459.921C827.789 458.763 827.499 457.604 826.824 456.735C826.631 456.446 826.342 456.253 825.956 456.06C825.57 455.867 825.474 455.867 825.088 455.867C824.702 455.867 824.22 456.06 823.93 456.156C823.255 456.928 822.58 458.183 822.58 459.921Z" fill="#3F3D56"/>
<path d="M798.753 459.921C798.753 461.562 799.429 463.107 800.586 463.782C800.875 463.976 801.261 463.976 801.551 463.976H801.744C803.094 463.782 804.252 462.141 804.252 460.018C804.252 458.376 803.576 456.832 802.612 456.349C802.322 456.156 801.937 456.06 801.647 456.06C801.358 456.06 800.972 456.06 800.779 456.253C800.49 456.446 800.297 456.542 799.911 456.928C799.139 457.604 798.753 458.763 798.753 459.921Z" fill="#3F3D56"/>
<path d="M800.779 463.203C800.972 463.203 801.068 463.01 801.068 462.914C801.068 462.914 801.068 462.914 801.068 462.721C798.753 455.963 802.419 448.433 809.171 446.116C815.924 443.8 823.448 447.468 825.763 454.226C826.438 456.349 826.631 458.859 826.052 460.983C826.052 461.176 826.052 461.273 826.342 461.273C826.535 461.273 826.631 461.273 826.631 460.983C828.078 453.55 823.448 446.213 816.02 444.765C808.593 443.317 801.261 447.951 799.814 455.384C799.332 457.701 799.525 460.211 800.297 462.528C800.393 463.203 800.586 463.203 800.779 463.203Z" fill="#3F3D56"/>
<path d="M806.76 468.802C806.76 470.637 806.084 472.664 804.734 473.919C803.383 475.27 801.551 476.236 799.718 475.946C797.885 475.657 796.535 474.112 796.728 472.278C796.92 470.83 798.175 469.671 799.718 469.768C799.911 469.768 800.007 469.768 800.2 469.768C801.84 470.25 802.515 472.567 801.165 473.726C800.875 474.015 800.297 473.533 800.683 473.243C801.358 472.567 801.358 471.602 800.875 470.926C800.683 470.733 800.586 470.637 800.393 470.637C799.236 470.347 798.078 470.926 797.789 471.988C797.789 472.181 797.596 472.278 797.596 472.471C797.403 473.919 798.753 475.077 800.104 475.463C801.744 475.753 803.287 474.981 804.252 473.822C805.409 472.471 806.084 470.83 806.084 468.996C806.084 468.802 806.277 468.706 806.374 468.706C806.567 468.513 806.76 468.706 806.76 468.802Z" fill="#2F2E41"/>
<path d="M805.216 480.483C810.039 481.835 815.345 481.835 820.168 480.001C820.361 480.001 820.361 480.001 820.458 479.808C819.3 478.939 817.95 478.359 816.599 477.78C816.792 477.491 816.792 477.104 816.599 476.815C816.31 475.946 815.441 475.367 814.573 475.367H811.583C810.618 475.367 809.75 476.043 809.557 476.815C809.364 477.104 809.364 477.491 809.557 477.78C808.4 478.07 807.242 478.746 806.277 479.421C806.085 479.614 805.988 479.711 805.602 479.904C805.409 480.097 805.216 480.29 805.216 480.483Z" fill="#2F2E41"/>
<path d="M812.065 481.931C809.75 481.931 807.435 481.642 805.12 480.966C804.83 480.966 804.637 480.773 804.252 480.676C802.612 480.194 801.068 479.518 799.814 478.649C799.525 478.456 799.332 478.359 798.946 478.166C797.499 477.298 796.149 476.332 794.991 475.174C794.798 474.981 794.702 474.884 794.316 474.691C784.573 464.941 784.38 449.013 794.316 439.069C804.252 429.126 819.975 429.126 829.911 439.069C839.847 449.013 839.847 464.748 829.911 474.691C827.306 477.298 824.123 479.325 820.65 480.483C820.458 480.483 820.458 480.483 820.361 480.676C817.66 481.642 814.863 481.931 812.065 481.931ZM812.065 432.988C798.946 432.988 788.239 443.607 788.239 456.832C788.239 463.107 790.747 469.285 795.184 473.726C795.377 473.919 795.473 474.015 795.666 474.208C796.824 475.367 798.174 476.236 799.525 477.008C799.814 477.201 800.007 477.298 800.393 477.491C801.744 478.359 803.191 478.842 804.734 479.325C805.023 479.518 805.216 479.518 805.602 479.518C810.425 480.869 815.345 480.676 819.975 479.228L820.265 479.035C832.708 474.595 838.979 460.79 834.541 448.53C830.876 439.166 822.001 432.988 812.065 432.988Z" fill="#E1E7F3"/>
<path d="M882.773 457.218H845.442C843.802 457.218 842.451 455.867 842.451 454.226C842.451 452.584 843.802 451.233 845.442 451.233H882.773C884.413 451.233 885.763 452.584 885.763 454.226C885.763 455.867 884.413 457.218 882.773 457.218Z" fill="#ADA3F1"/>
<path d="M895.024 467.161H845.442C843.802 467.161 842.451 465.81 842.451 464.169C842.451 462.528 843.802 461.176 845.442 461.176H895.024C896.664 461.176 898.014 462.528 898.014 464.169C898.014 465.81 896.664 467.161 895.024 467.161Z" fill="#ADA3F1"/>
<path d="M882.773 505.486H789.782C788.142 505.486 786.792 504.134 786.792 502.493C786.792 500.852 788.142 499.501 789.782 499.501H882.773C884.413 499.501 885.763 500.852 885.763 502.493C885.763 504.134 884.413 505.486 882.773 505.486Z" fill="#E1E7F3"/>
<path d="M894.927 515.429H789.686C788.046 515.429 786.695 514.078 786.695 512.437C786.695 510.795 788.046 509.444 789.686 509.444H894.927C896.567 509.444 897.918 510.795 897.918 512.437C897.918 514.078 896.567 515.429 894.927 515.429Z" fill="#E1E7F3"/>
<path d="M882.773 538.308H789.782C788.142 538.308 786.792 536.957 786.792 535.316C786.792 533.674 788.142 532.323 789.782 532.323H882.773C884.413 532.323 885.763 533.674 885.763 535.316C885.763 536.957 884.413 538.308 882.773 538.308Z" fill="#E1E7F3"/>
<path d="M894.927 548.251H789.686C788.046 548.251 786.695 546.9 786.695 545.259C786.695 543.618 788.046 542.266 789.686 542.266H894.927C896.567 542.266 897.918 543.618 897.918 545.259C897.918 546.9 896.567 548.251 894.927 548.251Z" fill="#E1E7F3"/>
<path d="M882.773 571.323H789.782C788.142 571.323 786.792 569.972 786.792 568.331C786.792 566.69 788.142 565.338 789.782 565.338H882.773C884.413 565.338 885.763 566.69 885.763 568.331C885.763 569.972 884.413 571.323 882.773 571.323Z" fill="#E1E7F3"/>
<path d="M894.927 581.266H789.686C788.046 581.266 786.695 579.915 786.695 578.274C786.695 576.633 788.046 575.281 789.686 575.281H894.927C896.567 575.281 897.918 576.633 897.918 578.274C897.918 579.915 896.567 581.266 894.927 581.266C895.024 581.266 895.024 581.266 894.927 581.266Z" fill="#E1E7F3"/>
<path d="M967.468 160.564H544.283V134.789C544.283 131.989 546.501 129.672 549.202 129.672H962.548C965.249 129.672 967.468 131.989 967.468 134.789V160.564Z" fill="#E1E7F3"/>
<path d="M571.389 149.945C574.053 149.945 576.212 147.784 576.212 145.118C576.212 142.452 574.053 140.291 571.389 140.291C568.725 140.291 566.566 142.452 566.566 145.118C566.566 147.784 568.725 149.945 571.389 149.945Z" fill="white"/>
<path d="M589.717 149.945C592.381 149.945 594.54 147.784 594.54 145.118C594.54 142.452 592.381 140.291 589.717 140.291C587.053 140.291 584.894 142.452 584.894 145.118C584.894 147.784 587.053 149.945 589.717 149.945Z" fill="white"/>
<path d="M608.334 149.945C610.998 149.945 613.158 147.784 613.158 145.118C613.158 142.452 610.998 140.291 608.334 140.291C605.671 140.291 603.511 142.452 603.511 145.118C603.511 147.784 605.671 149.945 608.334 149.945Z" fill="white"/>
<path d="M943.545 137.974H922.13C921.262 137.974 920.683 138.457 920.683 139.229C920.683 139.905 921.358 140.388 922.13 140.388H943.545C944.413 140.388 945.185 139.905 945.185 139.229C945.281 138.65 944.606 137.974 943.545 137.974Z" fill="white"/>
<path d="M943.545 143.96H922.13C921.262 143.96 920.683 144.442 920.683 145.215C920.683 145.89 921.358 146.373 922.13 146.373H943.545C944.413 146.373 945.185 145.89 945.185 145.215C945.281 144.442 944.606 143.96 943.545 143.96Z" fill="white"/>
<path d="M943.545 149.945H922.13C921.262 149.945 920.683 150.428 920.683 151.2C920.683 151.876 921.358 152.358 922.13 152.358H943.545C944.413 152.358 945.185 151.876 945.185 151.2C945.281 150.428 944.606 149.945 943.545 149.945Z" fill="white"/>
<path d="M709.428 468.995H575.826C573.125 468.995 571.003 466.872 571.003 464.169V298.031C571.003 295.328 573.125 293.204 575.826 293.204H709.428C712.129 293.204 714.251 295.328 714.251 298.031V464.265C714.251 466.872 712.129 468.995 709.428 468.995Z" stroke="#696872" stroke-miterlimit="10"/>
<path d="M711.068 306.622C704.605 306.622 699.299 301.313 699.299 294.845C699.299 288.377 704.605 283.068 711.068 283.068C717.531 283.068 722.837 288.377 722.837 294.845C722.837 301.313 717.724 306.622 711.068 306.622Z" fill="#ADA3F1"/>
<path d="M716.566 294.362H711.55V288.763C711.55 288.474 711.357 288.281 711.068 288.281C710.779 288.281 710.586 288.474 710.586 288.763V294.362H705.57C705.28 294.362 705.087 294.555 705.087 294.845C705.087 295.135 705.28 295.328 705.57 295.328H710.586V300.927C710.586 301.216 710.779 301.409 711.068 301.409C711.357 301.409 711.55 301.216 711.55 300.927V295.328H716.566C716.856 295.328 717.049 295.135 717.049 294.845C717.049 294.555 716.856 294.362 716.566 294.362Z" fill="white"/>
<path d="M909.783 602.504H774.927C772.226 602.504 770.104 600.381 770.104 597.678V415.418C770.104 412.715 772.226 410.591 774.927 410.591H909.783C912.484 410.591 914.606 412.715 914.606 415.418V597.678C914.606 600.381 912.484 602.504 909.783 602.504Z" stroke="#696872" stroke-miterlimit="10"/>
<path d="M913.738 625.576C901.487 625.576 891.551 615.633 891.551 603.373C891.551 591.113 901.487 581.17 913.738 581.17C925.988 581.17 935.924 591.113 935.924 603.373C935.828 615.633 925.988 625.576 913.738 625.576Z" fill="#ADA3F1"/>
<path d="M923.866 602.504H914.606V591.885C914.606 591.403 914.316 591.017 913.738 591.017C913.159 591.017 912.87 591.306 912.87 591.885V602.504H903.609C903.127 602.504 902.741 602.794 902.741 603.373C902.741 603.952 903.03 604.242 903.609 604.242H912.87V614.861C912.87 615.344 913.159 615.73 913.738 615.73C914.316 615.73 914.606 615.44 914.606 614.861V604.242H923.866C924.349 604.242 924.734 603.952 924.734 603.373C924.734 602.794 924.252 602.504 923.866 602.504Z" fill="white"/>
</g>
<g clip-path="url(#clip2_1_61)">
<path d="M236.012 58.4622C238.724 58.4622 240.923 56.2629 240.923 53.5501C240.923 50.8372 238.724 48.638 236.012 48.638C233.3 48.638 231.101 50.8372 231.101 53.5501C231.101 56.2629 233.3 58.4622 236.012 58.4622Z" fill="white"/>
<path d="M254.773 58.4622C257.485 58.4622 259.684 56.2629 259.684 53.5501C259.684 50.8372 257.485 48.638 254.773 48.638C252.061 48.638 249.862 50.8372 249.862 53.5501C249.862 56.2629 252.061 58.4622 254.773 58.4622Z" fill="white"/>
<path d="M273.632 58.4622C276.345 58.4622 278.544 56.2629 278.544 53.5501C278.544 50.8372 276.345 48.638 273.632 48.638C270.92 48.638 268.721 50.8372 268.721 53.5501C268.721 56.2629 270.92 58.4622 273.632 58.4622Z" fill="white"/>
<path d="M216.858 665.202C213.911 665.202 211.456 662.746 211.456 659.798V41.9575C211.456 39.0103 213.911 36.5543 216.858 36.5543H846.876C849.823 36.5543 852.279 39.0103 852.279 41.9575V659.798C852.279 662.746 849.823 665.202 846.876 665.202H216.858Z" fill="white"/>
<path d="M846.876 37.0455C849.626 37.0455 851.787 39.2068 851.787 41.9575V659.799C851.787 662.549 849.626 664.711 846.876 664.711H216.858C214.108 664.711 211.947 662.549 211.947 659.799V41.9575C211.947 39.2068 214.108 37.0455 216.858 37.0455H846.876ZM846.876 36.063H216.858C213.617 36.063 210.965 38.7156 210.965 41.9575V659.799C210.965 663.041 213.617 665.693 216.858 665.693H846.876C850.117 665.693 852.77 663.041 852.77 659.799V41.9575C852.77 38.7156 850.117 36.063 846.876 36.063Z" fill="#696872"/>
<path d="M472.834 540.337H267.837C265.087 540.337 262.926 538.176 262.926 535.425V368.021C262.926 365.27 265.087 363.109 267.837 363.109H472.834C475.584 363.109 477.745 365.27 477.745 368.021V535.425C477.745 538.077 475.584 540.337 472.834 540.337Z" stroke="#696872" stroke-miterlimit="10"/>
<path d="M851.787 68.4828H211.947V42.3505C211.947 39.5015 214.206 37.1437 216.858 37.1437H846.778C849.528 37.1437 851.689 39.5015 851.689 42.3505L851.787 68.4828Z" fill="#E1E7F3"/>
<path d="M239.45 57.6762C242.162 57.6762 244.361 55.477 244.361 52.7641C244.361 50.0513 242.162 47.8521 239.45 47.8521C236.737 47.8521 234.539 50.0513 234.539 52.7641C234.539 55.477 236.737 57.6762 239.45 57.6762Z" fill="white"/>
<path d="M258.211 57.6762C260.923 57.6762 263.122 55.477 263.122 52.7641C263.122 50.0513 260.923 47.8521 258.211 47.8521C255.499 47.8521 253.3 50.0513 253.3 52.7641C253.3 55.477 255.499 57.6762 258.211 57.6762Z" fill="white"/>
<path d="M277.07 57.6762C279.783 57.6762 281.982 55.477 281.982 52.7641C281.982 50.0513 279.783 47.8521 277.07 47.8521C274.358 47.8521 272.159 50.0513 272.159 52.7641C272.159 55.477 274.358 57.6762 277.07 57.6762Z" fill="white"/>
<path d="M827.526 45.4943H805.72C804.836 45.4943 804.246 45.9855 804.246 46.7714C804.246 47.4591 804.934 47.9503 805.72 47.9503H827.526C828.41 47.9503 829.195 47.4591 829.195 46.7714C829.195 46.0837 828.606 45.4943 827.526 45.4943Z" fill="white"/>
<path d="M827.526 51.5852H805.72C804.836 51.5852 804.246 52.0764 804.246 52.8623C804.246 53.55 804.934 54.0412 805.72 54.0412H827.526C828.41 54.0412 829.195 53.55 829.195 52.8623C829.195 52.0764 828.606 51.5852 827.526 51.5852Z" fill="white"/>
<path d="M827.526 57.6762H805.72C804.836 57.6762 804.246 58.1674 804.246 58.9533C804.246 59.641 804.934 60.1322 805.72 60.1322H827.526C828.41 60.1322 829.195 59.641 829.195 58.9533C829.195 58.1674 828.606 57.6762 827.526 57.6762Z" fill="white"/>
<path d="M585.498 302.887H268.819C266.069 302.887 263.908 300.726 263.908 297.975V170.85H585.498V302.887Z" fill="#E1E7F3"/>
<path d="M541.1 229.795C541.1 282.649 509.668 301.217 470.869 301.217C469.985 301.217 469.003 301.217 468.217 301.217C466.351 301.217 464.681 301.02 462.815 301.02C427.846 298.466 400.54 279.113 400.54 229.992C400.54 179.005 465.467 114.853 470.378 110.137C470.574 109.941 470.673 109.842 470.673 109.842C470.673 109.842 541.1 177.04 541.1 229.795Z" fill="#F8FE91"/>
<path d="M468.315 293.161L493.952 257.205L468.119 296.993V301.02C466.252 301.02 464.583 300.824 462.716 300.824L465.368 247.872V247.577L465.663 242.469L440.026 202.681L465.86 238.834V239.816L467.922 199.832L445.822 158.669L468.217 192.955L470.378 110.039V109.646V109.941L470.083 175.271L491.988 149.237L469.887 180.773L469.396 216.533L490.023 182.148L469.396 221.838L469.101 241.781L498.962 194.035L468.905 248.854L468.315 293.161Z" fill="#696872"/>
<path d="M470.673 632.88H271.57C268.328 632.88 265.676 630.228 265.676 626.986V560.869C265.676 557.627 268.328 554.975 271.57 554.975H470.673C473.914 554.975 476.566 557.627 476.566 560.869V626.986C476.664 630.13 473.914 632.88 470.673 632.88Z" fill="#E1E7F3"/>
<path d="M672.919 302.887H268.819C266.069 302.887 263.908 300.726 263.908 297.975V143.834C263.908 141.083 266.069 138.922 268.819 138.922H673.017C675.767 138.922 677.928 141.083 677.928 143.834V297.975C677.83 300.627 675.669 302.887 672.919 302.887Z" stroke="#696872" stroke-miterlimit="10"/>
<path d="M702.485 549.08C705.957 549.08 708.771 546.265 708.771 542.793C708.771 539.32 705.957 536.505 702.485 536.505C699.013 536.505 696.198 539.32 696.198 542.793C696.198 546.265 699.013 549.08 702.485 549.08Z" fill="white"/>
<path d="M734.211 441.309C742.511 441.309 749.24 434.58 749.24 426.278C749.24 417.977 742.511 411.247 734.211 411.247C725.911 411.247 719.183 417.977 719.183 426.278C719.183 434.58 725.911 441.309 734.211 441.309Z" fill="white"/>
<path d="M502.596 567.55H303.493C300.251 567.55 297.599 564.897 297.599 561.655V400.146C297.599 396.904 300.251 394.252 303.493 394.252H502.596C505.837 394.252 508.489 396.904 508.489 400.146V561.655C508.391 564.995 505.837 567.55 502.596 567.55Z" fill="#ADA3F1"/>
<path d="M425.685 527.86H324.12C323.924 527.86 323.826 527.86 323.826 527.86L371.956 444.65C372.84 442.979 375.001 442.488 376.474 443.274C376.966 443.569 377.457 443.962 377.85 444.65L410.068 500.549L411.541 503.202L425.685 527.86Z" fill="white"/>
<path d="M482.361 527.86H394.45L411.541 503.005L412.72 501.139L435.017 468.915C436.49 467.049 439.437 466.754 441.303 468.228C441.5 468.424 441.5 468.424 441.598 468.522C441.696 468.621 441.794 468.817 441.893 468.817L482.361 527.86Z" fill="white"/>
<path d="M476.271 442.488C484.571 442.488 491.3 435.759 491.3 427.457C491.3 419.156 484.571 412.426 476.271 412.426C467.971 412.426 461.243 419.156 461.243 427.457C461.243 435.759 467.971 442.488 476.271 442.488Z" fill="white"/>
<path d="M675.276 176.647C694.643 176.647 710.343 160.944 710.343 141.574C710.343 122.205 694.643 106.502 675.276 106.502C655.91 106.502 640.21 122.205 640.21 141.574C640.21 160.944 655.91 176.647 675.276 176.647Z" fill="#ADA3F1"/>
<path d="M688.438 140.396H676.455V126.74C676.455 126.052 675.964 125.758 675.473 125.758C674.982 125.758 674.49 126.249 674.49 126.74V140.396H662.507C661.819 140.396 661.525 140.887 661.525 141.378C661.525 141.869 662.016 142.36 662.507 142.36H674.49V156.016C674.49 156.704 674.982 156.998 675.473 156.998C675.964 156.998 676.455 156.507 676.455 156.016V142.557H688.438C689.126 142.557 689.421 142.066 689.421 141.574C689.421 141.083 688.93 140.396 688.438 140.396Z" fill="white"/>
</g>
<defs>
<clipPath id="clip0_1_61">
<rect width="250" height="569" fill="white" transform="translate(921)"/>
</clipPath>
<clipPath id="clip1_1_61">
<rect width="435" height="525" fill="white" transform="translate(538 125)"/>
</clipPath>
<clipPath id="clip2_1_61">
<rect width="650" height="637" fill="white" transform="translate(209 34)"/>
</clipPath>
</defs>
</svg>
